<?xml version="1.0" encoding="UTF-8" standalone="no"?>
<!DOCTYPE svg  PUBLIC '-//W3C//DTD SVG 1.1//EN'  'http://www.w3.org/Graphics/SVG/1.1/DTD/svg11.dtd'>
<svg xmlns="http://www.w3.org/2000/svg">
<defs>
<font id="DIN-RegularAlternate" horiz-adv-x="530">
<font-face underline-position="-114" font-weight="400" descent="-200" panose-1="2 0 5 3 4 0 0 2 0 3" units-per-em="1000" unicode-range="U+0020-25CA" bbox="-15 -226 1115 985" x-height="492" underline-thickness="51" font-family="DIN" ascent="800" cap-height="712"/>
<missing-glyph horiz-adv-x="1000"/>
<glyph glyph-name=".notdef" horiz-adv-x="1000"/>
<glyph glyph-name=".null" horiz-adv-x="0"/>
<glyph glyph-name="nonmarkingreturn" horiz-adv-x="1000"/>
<glyph glyph-name="space" horiz-adv-x="249" unicode=" "/>
<glyph glyph-name="exclam" horiz-adv-x="316" unicode="!" d="M224 47q0 -21 -14 -35t-36 -15q-21 1 -36 15t-15 35t15 35t36 15q22 -1 36 -15t14 -35zM216 712l-13 -512h-58l-13 512h84z"/>
<glyph glyph-name="quotedbl" horiz-adv-x="423" unicode='&quot;' d="M167 542h-79v170h79v-170zM335 542h-79v170h79v-170z"/>
<glyph glyph-name="numbersign" horiz-adv-x="653" unicode="#" d="M432 432h-159l-23 -141h159zM602 432h-96l-23 -141h89v-64h-99l-36 -227h-74l36 227h-160l-35 -227h-74l36 227h-89v64h100l23 141h-92v66h101l34 215h75l-35 -215h159l34 215h73l-34 -215h87v-66z"/>
<glyph glyph-name="dollar" horiz-adv-x="596" unicode="$" d="M464 194q0 28 -9 51t-26 38q-25 22 -51 27t-59 10v-257q69 5 107 39t38 92zM266 399v252q-62 -5 -96 -40t-34 -91q0 -54 32 -82q20 -17 46 -26t52 -13zM540 196q0 -44 -16 -79t-44 -61t-68 -42t-90 -18v-110h-60v108q-71 3 -122 25t-98 69l52 52q40 -40 80 -58t92 -19 v265l-20 2q-41 4 -75 20t-55 34q-55 49 -55 133q-1 85 53 139t148 61v89h60v-89q58 -3 101 -21t85 -56l-49 -49q-29 25 -61 41t-79 19v-259l31 -5q25 -5 44 -9t34 -10q16 -6 28 -14t23 -17q29 -25 45 -61t16 -80z"/>
<glyph glyph-name="percent" horiz-adv-x="833" unicode="%" d="M278 481v101q0 40 -18 64t-60 23q-42 0 -60 -23t-18 -64v-101q0 -41 18 -63t60 -23q42 0 60 23t18 63zM712 130v101q0 39 -18 63t-60 24t-60 -23t-18 -64v-101q0 -41 18 -64t60 -23q42 -1 60 23t18 64zM335 479q-1 -61 -39 -97t-96 -37q-59 1 -97 37t-38 97v105 q0 62 38 98t97 37q58 -1 96 -37t39 -98v-105zM614 712l-334 -712h-60l334 712h60zM769 128q-1 -62 -39 -98t-96 -37q-59 1 -97 37t-38 98v105q0 63 38 99t97 36q58 0 96 -36t39 -99v-105z"/>
<glyph glyph-name="ampersand" horiz-adv-x="739" unicode="&amp;" d="M469 130l-196 236q-23 -16 -45 -32t-39 -35t-27 -43t-11 -53q0 -32 11 -58t31 -45q19 -19 47 -29t61 -10q40 0 81 14t87 55zM395 568q0 36 -24 60t-60 25q-37 1 -59 -23t-23 -60q1 -26 15 -50t49 -67q5 5 15 11t16 10t7 5q25 17 45 37t19 52zM671 0h-95l-64 78 q-11 -10 -29 -24t-44 -28q-26 -12 -60 -22t-77 -10q-52 0 -94 15t-70 42q-30 27 -46 65t-15 85q0 40 13 71q12 31 34 56q22 26 50 46t57 40q-13 16 -27 33t-24 36q-12 19 -19 41t-7 45q0 32 12 59t32 47q21 19 50 31t63 12q33 0 61 -12t50 -31q20 -19 32 -47t12 -60 q0 -44 -22 -74t-57 -53q-1 -1 -10 -7t-22 -14q-13 -9 -21 -15l182 -219q10 16 18 32t12 36q4 19 8 42q2 23 2 53h72q-1 -68 -16 -122t-50 -96z"/>
<glyph glyph-name="quotesingle" horiz-adv-x="255" unicode="&apos;" d="M167 542h-79v170h79v-170z"/>
<glyph glyph-name="parenleft" horiz-adv-x="298" unicode="(" d="M234 -45l-49 -49q-24 24 -41 42t-31 44q-13 25 -17 51t-4 52v522q0 26 4 52t17 51q14 26 31 44t41 42l49 -49q-16 -17 -30 -31t-24 -34q-16 -32 -16 -81v-510q0 -49 16 -81q10 -20 24 -34t30 -31z"/>
<glyph glyph-name="parenright" horiz-adv-x="298" unicode=")" d="M205 95q0 -26 -3 -52t-17 -51q-14 -26 -31 -44t-41 -42l-51 51l31 31t24 34q8 15 11 35t3 44v510q0 24 -3 44t-11 35q-10 20 -24 34l-31 31l51 51q24 -24 41 -42t31 -44q14 -25 17 -51t3 -52v-522z"/>
<glyph glyph-name="asterisk" horiz-adv-x="474" unicode="*" d="M407 472l-28 -49l-117 71l4 -137h-58l4 137l-116 -71l-29 49l120 65l-120 66l29 48l116 -71l-4 137h58l-4 -137l117 71l28 -48l-120 -66z"/>
<glyph glyph-name="plus" horiz-adv-x="522" unicode="+" d="M470 234h-175v-176h-67v176h-176v67h176v174h67v-174h175v-67z"/>
<glyph glyph-name="comma" horiz-adv-x="264" unicode="," d="M176 -65l-88 -79v232h88v-153z"/>
<glyph glyph-name="hyphen" horiz-adv-x="426" unicode="-" d="M350 236h-274v67h274v-67z"/>
<glyph glyph-name="period" horiz-adv-x="272" unicode="." d="M193 54q0 -23 -17 -40t-40 -17t-40 17t-17 40t17 40t40 17t40 -17t17 -40z"/>
<glyph glyph-name="slash" horiz-adv-x="355" unicode="/" d="M356 786l-285 -860h-71l285 860h71z"/>
<glyph glyph-name="zero" horiz-adv-x="522" unicode="0" d="M384 194v209q0 59 -32 97t-91 39q-59 -1 -91 -39t-32 -97v-209q0 -60 32 -98t91 -38t91 38t32 98zM456 190q0 -44 -15 -80t-41 -62t-62 -40t-77 -14t-77 14t-62 40t-41 62t-15 80v217q0 45 15 81t41 62t62 39q36 14 77 14t77 -14q36 -13 62 -39t41 -62t15 -81v-217z"/>
<glyph glyph-name="one" horiz-adv-x="373" unicode="1" d="M256 0h-72v517l-133 -117v82l133 115h72v-597z"/>
<glyph glyph-name="two" horiz-adv-x="506" unicode="2" d="M450 0h-409v64l251 242q32 31 50 64t18 70q0 25 -9 47t-25 38t-38 25t-50 9q-26 -1 -48 -9t-38 -24t-27 -38q-10 -22 -10 -50h-72q1 40 15 74t40 58t62 39q36 14 78 14q44 0 80 -14q36 -15 60 -39q26 -24 40 -58t14 -71q0 -54 -26 -96t-66 -81l-204 -200h314v-64z"/>
<glyph glyph-name="three" horiz-adv-x="515" unicode="3" d="M456 78q0 -48 -16 -86t-45 -64t-67 -38q-38 -13 -81 -13q-42 0 -79 11q-37 10 -65 34q-27 24 -45 60t-20 83h72q2 -33 14 -57t31 -38q19 -16 43 -22t49 -6q29 0 54 9t43 27t30 42q10 26 10 59q0 65 -34 101t-106 37h-14v63h14q66 0 96 34t31 95q0 64 -36 97t-88 33 q-57 1 -90 -31t-38 -87h-72q3 43 19 77t44 57q26 23 61 35t76 13q43 0 79 -14t62 -39t40 -61t15 -79q0 -115 -96 -158q109 -41 109 -174z"/>
<glyph glyph-name="four" horiz-adv-x="541" unicode="4" d="M501 30h-91v-153h-71v153h-303v66l264 533h77l-265 -533h227v205h71v-205h91v-66z"/>
<glyph glyph-name="five" horiz-adv-x="517" unicode="5" d="M453 120q1 -54 -9 -102t-48 -87q-26 -25 -60 -39t-82 -14t-84 14t-59 37q-23 24 -35 55t-15 69h72q7 -55 35 -83t86 -28q55 0 88 33q14 14 22 31t12 36t4 39q1 20 1 39q-1 33 -5 64t-16 55t-36 39t-63 15q-47 0 -77 -19t-41 -51h-65v374h360v-64h-295v-226q21 23 53 36 t75 13q40 0 71 -12t52 -33q19 -21 31 -43t18 -47t8 -51t2 -50z"/>
<glyph glyph-name="six" horiz-adv-x="527" unicode="6" d="M404 216q0 32 -9 62t-27 52t-44 35t-61 13q-64 0 -102 -44t-38 -118q0 -73 38 -117t102 -44q65 0 103 44t38 117zM476 220q0 -48 -15 -90t-43 -72t-66 -47q-39 -17 -88 -17q-48 0 -88 16t-68 44t-42 70q-15 40 -15 90q1 44 13 88t39 91l190 335h76l-180 -309q21 11 41 15 t46 4q45 0 82 -16q38 -16 64 -45t40 -69t14 -88z"/>
<glyph glyph-name="seven" horiz-adv-x="502" unicode="7" d="M467 533l-291 -656h-76l290 656h-274v-112h-71v176h422v-64z"/>
<glyph glyph-name="eight" horiz-adv-x="538" unicode="8" d="M407 197q-1 30 -11 55t-28 44q-18 20 -44 30t-55 10t-55 -10t-44 -30q-18 -19 -28 -44t-11 -55q1 -30 11 -55t28 -44q18 -20 44 -30t55 -10t55 10t44 30q18 19 28 44t11 55zM394 526q0 28 -10 52t-26 40t-39 26t-50 10t-50 -10t-39 -26t-26 -40t-10 -52q0 -57 35 -92 t90 -35t90 35t35 92zM479 196q0 -45 -16 -82q-17 -37 -45 -64q-28 -28 -66 -42t-83 -14t-83 14t-66 42q-28 27 -45 64q-16 37 -16 82q0 63 31 105t76 68q-42 24 -68 63t-26 95q0 42 15 77q15 34 41 60t62 40t79 14t79 -14t62 -40t41 -60q15 -35 15 -77q0 -56 -26 -95 t-68 -63q45 -26 76 -68t31 -105z"/>
<glyph glyph-name="nine" horiz-adv-x="527" unicode="9" d="M404 381q0 73 -38 117t-102 44t-102 -44t-39 -117q0 -33 9 -63t27 -51q18 -22 44 -35t61 -13q64 0 102 44t38 118zM476 383q0 -43 -12 -87t-40 -92l-190 -335h-76l180 309q-22 -11 -42 -15t-45 -4q-45 0 -82 16t-63 45t-41 69q-14 40 -14 88q0 49 15 91q14 42 42 71 q28 30 67 47t88 17t89 -16q40 -17 66 -45q28 -28 43 -69t15 -90z"/>
<glyph glyph-name="colon" horiz-adv-x="299" unicode=":" d="M220 54q0 -23 -17 -40t-40 -17t-40 17t-17 40t17 40t40 17t40 -17t17 -40zM220 345q0 -23 -17 -40t-40 -17t-40 17t-17 40t17 40t40 17t40 -17t17 -40z"/>
<glyph glyph-name="semicolon" horiz-adv-x="297" unicode=";" d="M207 -65l-88 -79v232h88v-153zM220 345q0 -23 -17 -40t-40 -17t-40 17t-17 40t17 40t40 17t40 -17t17 -40z"/>
<glyph glyph-name="less" horiz-adv-x="1027" unicode="&lt;" d="M913 210l-399 -399l-399 399v94l364 -365v789h70v-789l364 365v-94z"/>
<glyph glyph-name="equal" horiz-adv-x="522" unicode="=" d="M470 151h-418v66h418v-66zM470 320h-418v67h418v-67z"/>
<glyph glyph-name="greater" horiz-adv-x="1027" unicode="&gt;" d="M913 235l-364 365v-789h-70v789l-364 -365v94l399 399l399 -399v-94z"/>
<glyph glyph-name="question" horiz-adv-x="497" unicode="?" d="M319 47q-1 -21 -15 -35t-35 -15q-21 1 -35 15t-15 35q1 21 15 35t35 15q21 -1 35 -15t15 -35zM451 536q-1 -36 -13 -64t-32 -57l-82 -118q-10 -14 -14 -30t-4 -28v-39h-72v40q0 29 8 50t23 44l81 117q14 21 24 40t9 45q0 50 -32 84t-83 34q-26 0 -48 -10t-37 -26t-23 -38 t-8 -45h-72q0 37 14 71t40 58t59 40q34 14 75 14q40 0 74 -14t59 -37t39 -57t15 -74z"/>
<glyph glyph-name="at" horiz-adv-x="713" unicode="@" d="M571 238q0 35 -4 68q-4 32 -17 58t-37 42t-63 15q-39 1 -63 -15t-37 -42t-17 -58q-4 -33 -4 -68t4 -68q4 -32 17 -58t37 -42t63 -15q39 -1 63 15t37 42t17 58q4 33 4 68zM641 -1l-69 1v55q-24 -32 -56 -47t-78 -15q-42 0 -78 16t-58 45q-26 32 -35 74t-9 110q0 66 9 109 t32 74q22 29 58 45t80 17t76 -15t58 -48v78q-1 40 -9 66t-30 48q-20 20 -48 30t-63 10h-130q-35 0 -61 -9t-48 -31q-24 -24 -32 -48t-8 -66v-337q0 -24 2 -41q2 -16 10 -30q6 -14 17 -26t28 -24l-49 -49q-23 17 -38 33t-24 35q-8 19 -12 43t-4 58v336q0 104 56 161 q55 56 154 56h148q98 0 154 -56q57 -57 57 -161v-497z"/>
<glyph glyph-name="A" horiz-adv-x="611" unicode="A" d="M439 227l-132 376l-134 -376h266zM599 0h-81l-57 161h-311l-57 -161h-81l262 712h64z"/>
<glyph glyph-name="B" horiz-adv-x="668" unicode="B" d="M516 199q0 60 -38 95t-105 35h-194v-261h194q67 0 105 36t38 95zM505 521q0 32 -11 55q-12 23 -30 38q-18 14 -44 22t-55 8h-186v-247h186q29 -1 55 7t44 23t30 39q11 24 11 55zM592 197q0 -48 -16 -85t-43 -62q-28 -26 -67 -38t-86 -12h-277v712h268q46 0 85 -13 q38 -13 66 -37t44 -60q16 -35 15 -80q0 -57 -30 -98t-75 -58q52 -19 84 -62t32 -107z"/>
<glyph glyph-name="C" horiz-adv-x="587" unicode="C" d="M525 81q-42 -39 -88 -63t-112 -24q-53 0 -99 19t-83 55q-25 25 -39 52q-14 26 -20 60t-7 76t-1 100t1 100t7 76t20 60q14 27 39 52q37 36 83 55t99 19q66 0 112 -24t88 -63l-51 -51q-34 32 -66 51t-83 19q-35 0 -67 -13t-56 -37q-17 -16 -27 -36t-15 -48q-4 -28 -6 -66 t-2 -94t2 -94t6 -66q5 -28 15 -48t27 -36q24 -24 56 -37t67 -13q51 0 83 19t66 51z"/>
<glyph glyph-name="D" horiz-adv-x="673" unicode="D" d="M521 364q-1 34 -1 66t-4 62t-14 55q-10 26 -28 45q-28 28 -63 40t-77 12h-155v-576h155q42 0 77 12t63 40q18 20 28 48t14 60t4 68q0 35 1 68zM597 364q-1 -37 -1 -78q0 -40 -6 -80t-20 -76t-43 -64q-32 -32 -78 -49t-102 -17h-244v712h244q56 0 102 -17t78 -49 q29 -28 43 -62t20 -70t6 -74t1 -76z"/>
<glyph glyph-name="E" horiz-adv-x="600" unicode="E" d="M545 0h-442v712h442v-68h-366v-251h312v-68h-312v-257h366v-68z"/>
<glyph glyph-name="F" horiz-adv-x="580" unicode="F" d="M545 644h-366v-262h312v-68h-312v-314h-76v712h442v-68z"/>
<glyph glyph-name="G" horiz-adv-x="645" unicode="G" d="M574 260q0 -62 -14 -106t-47 -78q-36 -38 -84 -60t-104 -22q-53 0 -99 19t-83 55q-25 25 -39 52q-14 26 -20 60t-7 76t-1 100t1 100t7 76t20 60q14 27 39 52q74 74 182 74q70 0 118 -25t95 -72l-51 -51q-19 20 -37 34t-36 24t-40 16t-49 6q-35 0 -67 -14t-56 -37 q-17 -17 -27 -37t-15 -46q-4 -28 -6 -66t-2 -94t2 -94t6 -66q5 -28 15 -48t27 -36q24 -24 56 -37t67 -13q39 0 74 16t60 45q23 25 31 57t8 73v53h-173v67h249v-113z"/>
<glyph glyph-name="H" horiz-adv-x="696" unicode="H" d="M593 0h-76v325h-338v-325h-76v712h76v-319h338v319h76v-712z"/>
<glyph glyph-name="I" horiz-adv-x="282" unicode="I" d="M179 0h-76v712h76v-712z"/>
<glyph glyph-name="J" horiz-adv-x="501" unicode="J" d="M408 216q0 -50 -16 -92t-46 -70t-70 -44t-90 -16t-90 16t-73 48l51 51q20 -19 44 -33t68 -14q70 0 108 42t38 122v486h76v-496z"/>
<glyph glyph-name="K" horiz-adv-x="650" unicode="K" d="M636 0h-90l-217 379l-150 -180v-199h-76v712h76v-409l332 409h93l-224 -275z"/>
<glyph glyph-name="L" horiz-adv-x="573" unicode="L" d="M543 0h-440v712h76v-644h364v-68z"/>
<glyph glyph-name="M" horiz-adv-x="816" unicode="M" d="M713 0h-76v541l-195 -429h-65l-198 429v-541h-76v712h76l232 -505l226 505h76v-712z"/>
<glyph glyph-name="N" horiz-adv-x="732" unicode="N" d="M629 0h-72l-378 571v-571h-76v712h72l378 -569v569h76v-712z"/>
<glyph glyph-name="O" horiz-adv-x="650" unicode="O" d="M498 356q0 56 -1.5 94.5t-6.5 65.5t-15 46.5t-27 36.5q-23 24 -55.5 37.5t-67.5 13.5t-67.5 -13.5t-55.5 -37.5q-17 -17 -27 -36.5t-15 -46.5t-6.5 -65.5t-1.5 -94.5t1.5 -94.5t6.5 -65.5t15 -46.5t27 -36.5q23 -24 55.5 -37.5t67.5 -13.5t67.5 13.5t55.5 37.5 q17 17 27 36.5t15 46.5t6.5 65.5t1.5 94.5zM574 356q0 -57 -1 -99.5t-7.5 -76t-20 -60.5t-38.5 -52q-36 -36 -82 -55t-100 -19q-108 0 -182 74q-25 25 -38.5 52t-20 60.5t-7.5 76t-1 99.5t1 99.5t7.5 76t20 60.5t38.5 52q74 74 182 74t182 -74q25 -25 38.5 -52t20 -60.5 t7.5 -76t1 -99.5z"/>
<glyph glyph-name="P" horiz-adv-x="630" unicode="P" d="M512 503q0 71 -42 106t-109 35h-182v-283h182q67 -1 109 35t42 107zM588 503q0 -48 -16 -87t-45 -66t-69 -42t-90 -15h-189v-293h-76v712h265q48 0 88 -14t70 -42t46 -66t16 -87z"/>
<glyph glyph-name="Q" horiz-adv-x="649" unicode="Q" d="M498 356q0 56 -2 94t-6 66q-5 26 -15 46t-27 37q-24 23 -56 37t-67 14t-67 -14t-56 -37q-17 -17 -27 -37t-15 -46q-4 -28 -6 -66t-2 -94t2 -94t6 -66q5 -26 15 -46t27 -37q24 -23 56 -37t67 -14q56 0 101 34l-90 90l46 46l87 -87q9 16 15 35q6 20 9 44t4 56t1 76zM603 11 l-46 -46l-79 79q-65 -50 -153 -50q-108 0 -182 74q-25 25 -39 52q-14 26 -20 60t-7 76t-1 100t1 100t7 76t20 60q14 27 39 52q74 74 182 74t182 -74q25 -25 39 -52q14 -26 20 -60t7 -76t1 -100q0 -50 -1 -90t-5 -72t-15 -56q-10 -26 -28 -49z"/>
<glyph glyph-name="R" horiz-adv-x="656" unicode="R" d="M511 513q1 67 -39 99t-103 32h-190v-261h190q63 0 103 32t39 98zM601 0h-89l-162 316h-171v-316h-76v712h273q46 0 85 -14t67 -38q28 -26 44 -63t15 -83q0 -78 -43 -128t-112 -63z"/>
<glyph glyph-name="S" horiz-adv-x="588" unicode="S" d="M532 196q0 -47 -17.5 -84.5t-50 -63.5t-78 -40t-100.5 -14q-80 0 -137 22t-107 72l52 52q44 -44 89 -61t105 -17q78 0 123 34.5t45 97.5q0 28 -8.5 51t-25.5 38t-35.5 21.5t-57.5 12.5l-83 13q-85 14 -131 54q-54 48 -54 133q0 45 16 82.5t45.5 63.5t71.5 40.5t95 14.5 q68 0 117 -18.5t95 -59.5l-49 -49q-33 30 -71 45.5t-95 15.5q-72 0 -111 -36t-39 -96q0 -54 32 -82q17 -14 42.5 -24t53.5 -15l78 -12q25 -4 44.5 -8.5t34.5 -10.5t27.5 -13.5t23.5 -17.5q60 -51 60 -141z"/>
<glyph glyph-name="T" horiz-adv-x="548" unicode="T" d="M518 644h-206v-644h-76v644h-206v68h488v-68z"/>
<glyph glyph-name="U" horiz-adv-x="683" unicode="U" d="M590 235q0 -53 -18 -97t-52 -77q-34 -31 -80 -49t-99 -18t-99 18t-79 49q-33 33 -51 77t-19 97v477h76v-471q0 -41 12 -74q13 -33 35 -56t54 -36t71 -13t71 13t54 36t36 56q12 33 12 74v471h76v-477z"/>
<glyph glyph-name="V" horiz-adv-x="546" unicode="V" d="M538 712l-234 -712h-62l-234 712h80l185 -576l185 576h80z"/>
<glyph glyph-name="W" horiz-adv-x="854" unicode="W" d="M838 712l-182 -712h-71l-158 570l-158 -570h-71l-182 712h81l139 -574l157 574h68l157 -574l139 574h81z"/>
<glyph glyph-name="X" horiz-adv-x="551" unicode="X" d="M536 0h-88l-173 299l-174 -299h-86l218 365l-204 347h88l158 -281l158 281h88l-205 -347z"/>
<glyph glyph-name="Y" horiz-adv-x="514" unicode="Y" d="M506 712l-210 -418v-294h-76v294l-212 418h82l168 -341l166 341h82z"/>
<glyph glyph-name="Z" horiz-adv-x="556" unicode="Z" d="M499 0h-442v72l356 572h-342v68h428v-64l-359 -580h359v-68z"/>
<glyph glyph-name="bracketleft" horiz-adv-x="313" unicode="[" d="M269 -74h-177v860h177v-64h-105v-732h105v-64z"/>
<glyph glyph-name="backslash" horiz-adv-x="355" unicode="\" d="M355 -74h-71l-284 857h71z"/>
<glyph glyph-name="bracketright" horiz-adv-x="313" unicode="]" d="M221 -74h-177v62h108v736h-108v62h177v-860z"/>
<glyph glyph-name="asciicircum" horiz-adv-x="537" unicode="^" d="M465 413h-74l-122 228l-123 -228h-74l164 305h66z"/>
<glyph glyph-name="underscore" horiz-adv-x="537" unicode="_" d="M537 -165h-537v51h537v-51z"/>
<glyph glyph-name="grave" horiz-adv-x="500" unicode="`" d="M299 594h-66l-108 153h86z"/>
<glyph glyph-name="a" horiz-adv-x="526" unicode="a" d="M369 174v53h-138q-110 0 -110 -87q0 -43 27 -63.5t86 -20.5q32 0 59.5 5t50.5 28q25 24 25 85zM441 0h-72v47q-30 -30 -61.5 -41.5t-80.5 -11.5q-51 0 -83.5 10.5t-55.5 34.5q-18 18 -27.5 44.5t-9.5 55.5q0 65 43.5 103.5t126.5 38.5h148v47q0 54 -29 81t-97 27 q-48 0 -75 -12.5t-49 -43.5l-49 45q33 43 73.5 58t100.5 15q100 0 148.5 -41.5t48.5 -122.5v-334z"/>
<glyph glyph-name="b" horiz-adv-x="545" unicode="b" d="M409 246q0 36 -4 70t-17 60q-14 26 -38 42t-64 16t-64 -16t-38 -42t-18 -60t-4 -70t4 -70t18 -60t38 -42t64 -16t64 16t38 42q13 26 17 60t4 70zM481 246q-1 -29 -3 -58q-2 -28 -8 -56t-18 -52t-31 -43q-20 -19 -51 -31t-69 -12q-41 0 -75 13t-64 52v-59h-72v712h72v-277 q30 39 64 51t75 12q38 0 69 -12t51 -31q19 -19 31 -43t18 -52t8 -56q2 -29 3 -58z"/>
<glyph glyph-name="c" horiz-adv-x="490" unicode="c" d="M443 67q-39 -41 -75 -57t-87 -16q-47 0 -87 16t-68 46q-30 32 -46 80t-17 110q1 63 17 110q16 46 46 78t68 48q40 16 87 16q51 0 87 -16t75 -57l-49 -46q-28 31 -53 43t-60 12q-36 0 -65 -14t-49 -42q-17 -24 -25 -54t-7 -78q-1 -48 7 -78t25 -54q20 -28 49 -42t65 -14 q35 0 60 12t53 44z"/>
<glyph glyph-name="d" horiz-adv-x="545" unicode="d" d="M383 246q0 36 -4 70t-17 60q-14 26 -38 42t-64 16t-64 -16t-38 -42t-18 -60t-4 -70t4 -70t18 -60t38 -42t64 -16t64 16t38 42q13 26 17 60t4 70zM455 0h-71v59q-30 -39 -64 -52t-76 -13q-38 0 -69 12t-51 31q-18 19 -30 43t-18 52t-10 56q-2 29 -2 58t2 58q2 28 10 56 q6 28 18 52t30 43q20 19 51 31t69 12q41 0 75 -12t64 -51v277h72v-712z"/>
<glyph glyph-name="e" d="M395 281q-1 15 -2 26t-2.5 20t-4 17.5t-6.5 18.5q-14 34 -45 54t-70 20t-70 -20t-45 -54q-8 -20 -11 -36t-4 -46h260zM467 227h-332q0 -81 37 -125.5t108 -44.5q43 0 71.5 13.5t57.5 42.5l49 -43q-19 -19 -37.5 -33t-39.5 -23.5t-46.5 -14.5t-56.5 -5q-49 0 -88.5 15 t-67.5 46t-43.5 78.5t-15.5 112.5q0 120 54 186t148 66q96 0 149 -64t53 -174v-33z" unicode="e"/>
<glyph glyph-name="f" horiz-adv-x="314" unicode="f" d="M283 434h-105v-434h-72v434h-63v55h63v93q0 27 8 51t23 42q16 19 39 29t55 10h52v-62h-39q-34 0 -50 -19t-16 -53v-91h105v-55z"/>
<glyph glyph-name="g" horiz-adv-x="543" unicode="g" d="M381 250q0 34 -4 68t-17 58q-13 26 -37 42t-64 16q-41 0 -65 -16t-37 -42t-17 -58q-4 -34 -4 -68q0 -35 4 -68q4 -32 17 -58t37 -42t65 -16q40 0 64 16t37 42t17 58q4 33 4 68zM453 -15q0 -47 -14 -85t-40 -66q-27 -28 -65 -44t-86 -16q-28 0 -50 4t-42 11q-20 9 -38 21 t-37 30l47 46q14 -12 26 -21t26 -15t29 -10q16 -3 37 -3q36 0 62 12t42 32q16 19 24 47t7 60v77q-30 -38 -64 -51t-74 -13q-39 0 -69 12t-50 32q-36 37 -48 91t-12 114t12 114t48 91q20 19 51 31t69 12q40 0 74 -12t64 -52v58h71v-507z"/>
<glyph glyph-name="h" horiz-adv-x="562" unicode="h" d="M477 0h-72v304q0 66 -32 98t-88 32q-55 0 -89 -33t-34 -97v-304h-72v712h72v-274q53 60 138 60q84 0 130 -49t47 -133v-316z"/>
<glyph glyph-name="i" horiz-adv-x="253" unicode="i" d="M162 0h-72v492h72v-492zM176 677q0 -21 -15 -35t-35 -14t-34 14t-15 35q1 21 15 35t34 14t35 -14t15 -35z"/>
<glyph glyph-name="j" horiz-adv-x="253" unicode="j" d="M162 -89q0 -28 -8 -52t-22 -42q-16 -18 -40 -28t-55 -10h-52v63h39q38 0 52 18t14 54v578h72v-581zM176 677q0 -21 -15 -35t-35 -14t-34 14t-15 35q1 21 15 35t34 14t35 -14t15 -35z"/>
<glyph glyph-name="k" horiz-adv-x="536" unicode="k" d="M503 0h-89l-156 252l-96 -110v-142h-72v712h72v-476l222 256h90l-167 -188z"/>
<glyph glyph-name="l" horiz-adv-x="297" unicode="l" d="M265 0h-52q-65 0 -95 38t-30 93v581h72v-578q0 -36 14 -54t52 -18h39v-62z"/>
<glyph glyph-name="m" horiz-adv-x="879" unicode="m" d="M794 0h-72v303q0 67 -32 99t-89 32q-55 0 -89 -32t-34 -91v-311h-72v303q0 67 -32 99t-89 32q-55 0 -89 -33t-34 -98v-303h-72v492h72v-54q26 30 62 45t77 15q51 0 89 -20t62 -62q58 82 162 82q40 0 72 -12t55 -34q53 -51 53 -137v-315z"/>
<glyph glyph-name="n" horiz-adv-x="562" unicode="n" d="M477 0h-72v303q-1 67 -33 99t-88 32t-89 -33t-33 -98v-303h-72v492h72v-54q26 30 61 45t77 15q80 0 126 -46q51 -50 51 -137v-315z"/>
<glyph glyph-name="o" d="M394 246q0 21 -1 42t-5 41t-12 37.5t-21 31.5q-36 36 -90 36q-53 0 -89 -36q-14 -14 -21.5 -31.5t-12 -37.5t-5.5 -41t-1 -42t1 -42t5.5 -41t12 -38t21.5 -31q36 -36 89 -36q54 0 90 36q13 13 21 31t12 38t5 41t1 42zM466 246q0 -57 -11.5 -107.5t-48.5 -88.5 q-26 -26 -61 -41t-80 -15t-80 15t-61 41q-19 19 -30.5 41.5t-18 47t-9 51.5t-2.5 56q0 28 2.5 55.5t9 52t18 47t30.5 41.5q26 26 61 41t80 15t80 -15t61 -41q37 -38 48.5 -88.5t11.5 -107.5z" unicode="o"/>
<glyph glyph-name="p" horiz-adv-x="545" unicode="p" d="M409 246q0 36 -4 70t-17 60q-14 26 -38 42t-64 16t-64 -16t-38 -42t-18 -60t-4 -70t4 -70t18 -60t38 -42t64 -16t64 16t38 42q13 26 17 60t4 70zM481 246q-1 -29 -3 -58q-2 -28 -8 -56t-18 -52t-31 -43q-20 -19 -51 -31t-69 -12q-41 0 -75 13t-64 51v-278h-72v712h72v-58 q30 40 64 52t75 12q38 0 69 -12t51 -31q19 -19 31 -43t18 -52t8 -56q2 -29 3 -58z"/>
<glyph glyph-name="q" horiz-adv-x="545" unicode="q" d="M383 246q0 36 -4 70t-17 60q-14 26 -38 42t-64 16t-64 -16t-38 -42t-18 -60t-4 -70t4 -70t18 -60t38 -42t64 -16t64 16t38 42q13 26 17 60t4 70zM455 -220h-72v278q-30 -38 -64 -51t-75 -13q-38 0 -69 12t-51 31q-18 19 -30 43t-18 52t-10 56q-2 29 -2 58t2 58 q2 28 10 56q6 28 18 52t30 43q20 19 51 31t69 12q42 0 76 -12t64 -52v58h71v-712z"/>
<glyph glyph-name="r" horiz-adv-x="421" unicode="r" d="M418 452l-53 -54q-20 20 -38 28t-47 8q-27 0 -49 -10t-37 -28q-16 -18 -24 -42t-8 -52v-302h-72v492h72v-60q20 30 58 48t80 18q36 0 64 -10t54 -36z"/>
<glyph glyph-name="s" horiz-adv-x="496" unicode="s" d="M445 144q0 -36 -14.5 -63.5t-41 -47t-63 -29.5t-81.5 -10q-63 0 -112 16t-90 55l48 48q29 -31 68 -44t85 -13q61 0 96 21.5t35 65.5q0 32 -19.5 50t-62.5 22l-81 7q-72 6 -109.5 38.5t-37.5 93.5q0 34 13.5 60.5t37.5 45t57.5 28.5t72.5 10q53 0 98.5 -13t78.5 -40 l-47 -47q-26 20 -59.5 29.5t-71.5 9.5q-54 0 -82 -21.5t-28 -59.5q0 -32 19.5 -50t66.5 -22l79 -7q32 -3 59 -11t46 -24t29.5 -40t10.5 -58z"/>
<glyph glyph-name="t" horiz-adv-x="332" unicode="t" d="M279 0h-51q-32 0 -56 10t-38 29q-16 18 -24 42t-8 51v302h-62v55h62v154h72v-154h105v-55h-105v-300q0 -34 16 -53t51 -19h38v-62z"/>
<glyph glyph-name="u" horiz-adv-x="562" unicode="u" d="M472 0h-71v55q-26 -30 -61.5 -45.5t-77.5 -15.5q-81 0 -127 46q-26 26 -38 60.5t-12 77.5v314h72v-303q0 -66 32 -98.5t88 -32.5t89.5 33t33.5 98v303h72v-492z"/>
<glyph glyph-name="v" horiz-adv-x="447" unicode="v" d="M436 492l-181 -492h-64l-180 492h78l134 -395l135 395h78z"/>
<glyph glyph-name="w" horiz-adv-x="724" unicode="w" d="M713 492l-155 -492h-67l-129 382l-128 -382h-67l-156 492h78l113 -395l129 395h62l130 -395l112 395h78z"/>
<glyph glyph-name="x" horiz-adv-x="478" unicode="x" d="M445 0h-87l-118 191l-120 -191h-87l167 251l-160 241h87l113 -182l111 182h87l-160 -241z"/>
<glyph glyph-name="y" horiz-adv-x="447" unicode="y" d="M436 492l-224 -611q-14 -39 -35 -58q-20 -19 -45 -26.5t-51 -7.5h-31v64h22q37 0 53 13.5t28 47.5l35 96l-177 482h78l135 -395l134 395h78z"/>
<glyph glyph-name="z" horiz-adv-x="459" unicode="z" d="M407 0h-357v62l274 366h-259v64h342v-61l-275 -367h275v-64z"/>
<glyph glyph-name="braceleft" horiz-adv-x="354" unicode="{" d="M305 -74h-37q-38 0 -62 7t-39 23q-17 16 -23 38t-7 61v191q0 42 -18 60q-7 8 -19 13t-26 5h-26v64h26q14 0 26 5t19 13q18 18 18 60v191q1 39 7 61t23 38q15 16 39 23t62 7h37v-64h-23q-26 0 -38 -2t-21 -11q-8 -8 -11 -23t-3 -42v-188q0 -42 -17 -64t-46 -36 q29 -14 46 -36t17 -64v-188q0 -27 3 -42t11 -23q9 -9 21 -11t38 -2h23v-64z"/>
<glyph glyph-name="bar" horiz-adv-x="326" unicode="|" d="M199 -74h-72v860h72v-860z"/>
<glyph glyph-name="braceright" horiz-adv-x="354" unicode="}" d="M305 324h-25q-14 0 -26 -5t-19 -13q-18 -18 -18 -60v-191q-1 -39 -7 -61t-23 -38q-15 -16 -39 -23t-62 -7h-38v64h24q26 0 38 2t20 11q8 8 12 23t3 42v188q0 42 17 64t46 36q-29 14 -46 36t-17 64v188q1 27 -3 42t-12 23q-8 9 -20 11t-38 2h-24v64h38q38 0 62 -7t39 -23 q17 -16 23 -38t7 -61v-191q0 -42 18 -60q7 -8 19 -13t26 -5h25v-64z"/>
<glyph glyph-name="asciitilde" horiz-adv-x="539" unicode="~" d="M490 278q-22 -20 -38 -34t-30 -22t-30 -10q-14 -2 -31 -2q-25 0 -51 9t-55 22q-21 10 -39 17t-39 7q-11 1 -19 -1t-18 -7t-21 -13t-26 -24l-44 45q21 21 37 34t32 21q14 8 28 10q14 3 32 3q26 0 51 -9t54 -22q21 -10 39 -17t39 -7q10 0 19 2q8 2 18 6q10 6 21 14t26 23z "/>
<glyph glyph-name="nonbreakingspace" horiz-adv-x="249" unicode=" "/>
<glyph glyph-name="exclamdown" horiz-adv-x="316" unicode="¡" d="M191 -220h-84l13 512h58zM199 445q-1 -21 -15 -35t-35 -15q-21 1 -35 15t-15 35q1 21 15 35t35 15q21 -1 35 -15t15 -35z"/>
<glyph glyph-name="cent" horiz-adv-x="498" unicode="¢" d="M248 182v368q-49 -9 -80 -52q-17 -24 -25 -54t-8 -78t8 -78t25 -54q31 -43 80 -52zM448 189q-36 -39 -68 -55t-77 -19v-115h-59v117q-83 12 -132 76t-49 173t49 173t132 76v97h59v-95q45 -3 77 -19t68 -55l-49 -46q-25 29 -47 41t-53 14v-372q31 2 53 14t47 41z"/>
<glyph glyph-name="sterling" horiz-adv-x="548" unicode="£" d="M496 0h-386v330h-63v54h63v112q0 50 16 92t46 70t71 44t90 16q51 0 91 -16t72 -48l-52 -51q-10 11 -20 19t-23 14t-29 10t-39 4q-70 0 -108 -42t-38 -122v-102h146v-54h-146v-262h309v-68z"/>
<glyph glyph-name="currency" horiz-adv-x="660" unicode="¤" d="M485 271q0 33 -12 61t-33 49q-22 21 -50 33t-60 12t-60 -12t-50 -33t-34 -49t-12 -61t12 -61t34 -49t50 -33t60 -13q32 1 60 13t50 33q21 21 33 49t12 61zM582 65l-46 -46l-75 74q-27 -20 -60 -32t-71 -12t-72 12t-60 32l-74 -74l-46 46l74 74q-20 27 -32 61t-12 71 t12 71t32 61l-74 73l46 46l74 -73q26 19 60 31t72 12t71 -12t60 -31l75 73l46 -46l-74 -73q20 -27 32 -61t12 -71t-12 -71t-32 -61z"/>
<glyph glyph-name="yen" horiz-adv-x="514" unicode="¥" d="M506 712l-157 -311h100v-54h-127l-26 -53v-52h153v-55h-153v-187h-77v187h-154v55h154v52l-26 53h-128v54h100l-157 311h82l168 -341l167 341h81z"/>
<glyph glyph-name="brokenbar" horiz-adv-x="335" unicode="¦" d="M199 -74h-72v350h72v-350zM199 436h-72v350h72v-350z"/>
<glyph glyph-name="section" horiz-adv-x="557" unicode="§" d="M397 253q-1 29 -7 51t-25 41q-36 36 -86 36q-53 0 -86 -36q-17 -19 -25 -40t-8 -52q0 -32 10 -54t23 -38q33 -36 86 -36t86 36q15 17 23 39t9 53zM470 254q0 -30 -9 -56t-23 -47t-34 -36q-18 -15 -38 -25q43 -16 70 -52t27 -92q-1 -39 -15 -71q-14 -33 -38 -55t-58 -34 t-73 -12q-37 0 -71 10t-58 30q-26 20 -42 51q-16 30 -18 70h73q5 -47 35 -71t81 -24t81 27t30 78q0 35 -23 63t-65 39l-78 22q-66 19 -102 67t-35 116q0 30 9 56q10 26 24 47t33 36t39 25q-43 20 -68 52t-25 86q-1 36 13 66t38 52t57 34t72 12t71 -11t57 -31q24 -20 38 -50 t16 -65h-72q-4 49 -33 71t-77 22q-51 0 -79 -25t-29 -74q0 -41 23 -63t61 -33l78 -22q65 -19 101 -67t36 -116z"/>
<glyph glyph-name="dieresis" horiz-adv-x="500" unicode="¨" d="M189 645q0 -19 -13 -32t-32 -13t-32 13t-13 32t13 32.5t32 13.5t32 -13.5t13 -32.5zM401 645q0 -19 -13 -32t-32 -13t-32 13t-13 32t13 32.5t32 13.5t32 -13.5t13 -32.5z"/>
<glyph glyph-name="copyright" horiz-adv-x="881" unicode="©" d="M576 205q-29 -26 -59 -39t-72 -13q-44 -1 -77 15q-34 16 -56 43t-34 64t-11 81q-1 44 11 82t34 64t56 42q33 16 77 16q42 0 71 -13t60 -40l-36 -36q-25 23 -46 31t-49 8q-33 0 -57 -12t-38 -34q-14 -21 -20 -49t-7 -59q1 -32 7 -60t20 -48q14 -21 38 -33t57 -12 q28 0 49 8t46 30zM744 356q0 63 -24 119t-65 98q-41 43 -97 67t-118 24q-63 0 -118 -24q-54 -24 -96 -67q-42 -42 -66 -98t-23 -119q-1 -63 23 -119t66 -98q42 -43 96 -67q55 -24 118 -24q62 0 118 24t97 67q41 42 65 98t24 119zM802 356q0 -75 -28 -141t-78 -115 q-49 -50 -115 -78t-141 -28t-141 28t-115 78q-50 49 -78 115t-28 141t28 141t78 115q49 50 115 78t141 28t141 -28t115 -78q50 -49 78 -115t28 -141z"/>
<glyph glyph-name="ordfeminine" horiz-adv-x="449" unicode="ª" d="M306 458v40h-107q-84 0 -84 -67q1 -33 21 -49t65 -16q25 0 47 4t39 21q19 18 19 67zM365 319h-58v36q-23 -23 -48 -32t-63 -9q-41 0 -66 8t-44 28q-30 32 -30 79q0 52 34 83t101 31h115v36q0 42 -22 63t-75 21q-37 1 -59 -9t-39 -35l-41 37q28 36 60 48t80 12 q79 0 117 -34t38 -98v-265z"/>
<glyph glyph-name="guillemotleft" horiz-adv-x="554" unicode="«" d="M250 58l-210 210l210 210v-90l-120 -120l120 -121v-89zM476 58l-210 210l210 210v-90l-121 -120l121 -121v-89z"/>
<glyph glyph-name="logicalnot" horiz-adv-x="522" unicode="¬" d="M471 103h-67v137h-353v67h420v-204z"/>
<glyph glyph-name="registered" horiz-adv-x="881" unicode="®" d="M526 436q0 30 -21 50t-54 20h-74v-139h74q33 -1 54 19t21 50zM592 158h-64l-91 162h-60v-162h-55v397h135q27 0 49 -9t39 -25t27 -38t10 -47q0 -44 -24 -71t-61 -38zM745 356q0 64 -24 120q-23 56 -65 98t-98 66t-118 25q-62 -1 -118 -25t-97 -66t-65 -98t-24 -120 t24 -120t65 -98t97 -66t118 -25q62 1 118 25t98 66t65 98q24 56 24 120zM802 356q0 -75 -28 -141t-78 -115q-49 -50 -115 -78t-141 -28t-141 28t-115 78q-50 49 -78 115t-28 141t28 141t78 115q49 50 115 78t141 28t141 -28t115 -78q50 -49 78 -115t28 -141z"/>
<glyph glyph-name="degree" horiz-adv-x="463" unicode="°" d="M335 557q0 21 -8 41t-22 34t-33 23q-19 8 -41 8t-41 -8q-18 -9 -32 -23t-22 -34t-8 -41q0 -23 8 -42t22 -33t33 -23q19 -8 41 -8t41 8q19 9 33 23t21 33q8 19 8 42zM396 557q0 -34 -13 -64t-35 -52t-52 -35t-64 -13t-64 13t-52 35t-36 52q-13 30 -13 64t13 64 q14 30 36 52t52 35t64 13t64 -13t52 -35t35 -52t13 -64z"/>
<glyph glyph-name="plusminus" horiz-adv-x="522" unicode="±" d="M470 0h-418v67h418v-67zM470 289h-175v-177h-67v177h-176v67h176v175h67v-175h175v-67z"/>
<glyph glyph-name="twosuperior" horiz-adv-x="342" unicode="²" d="M294 285h-246v52l165 202q11 15 17 28t6 30q0 31 -17 49t-48 18q-25 0 -45 -15t-20 -52h-58q0 55 34 87t89 32t89 -32t34 -87q0 -28 -10 -48t-29 -44l-138 -168h177v-52z"/>
<glyph glyph-name="threesuperior" horiz-adv-x="356" unicode="³" d="M308 405q0 -31 -10 -55t-28 -38q-18 -16 -40 -24q-24 -8 -51 -8q-26 0 -49 7t-41 21t-29 38q-11 22 -12 53h58q2 -35 24 -51t49 -16q31 0 51 19t21 54q-1 33 -19 53t-56 20h-9v50h9q36 0 52 18t16 50q0 34 -20 51t-46 17q-29 0 -47 -17t-20 -46h-57q3 55 38 85t86 30 q54 0 88 -32t35 -87q0 -35 -14 -57t-40 -35q29 -12 45 -36t16 -64z"/>
<glyph glyph-name="acute" horiz-adv-x="500" unicode="´" d="M375 747l-108 -153h-66l88 153h86z"/>
<glyph glyph-name="mu" horiz-adv-x="561" unicode="µ" d="M471 0h-72v55q-53 -61 -138 -61q-66 0 -106 37v-251h-72v712h72v-303q1 -67 33 -99t88 -32t90 33t33 98v303h72v-492z"/>
<glyph glyph-name="mu" horiz-adv-x="561" unicode="μ" d="M471 0h-72v55q-53 -61 -138 -61q-66 0 -106 37v-251h-72v712h72v-303q1 -67 33 -99t88 -32t90 33t33 98v303h72v-492z"/>
<glyph glyph-name="paragraph" horiz-adv-x="603" unicode="¶" d="M500 -220h-72v864h-117v-864h-72v546q-45 0 -81 16t-62 43t-40 61t-14 72q0 40 14 76t43 61t69 41t91 16h241v-932z"/>
<glyph glyph-name="periodcentered" horiz-adv-x="272" unicode="·" d="M193 267q0 -23 -17 -40t-40 -17t-40 17t-17 40t17 39t40 17q23 -1 40 -17t17 -39z"/>
<glyph glyph-name="cedilla" horiz-adv-x="500" unicode="¸" d="M313 -67l-59 -149h-79l71 149h67z"/>
<glyph glyph-name="onesuperior" horiz-adv-x="261" unicode="¹" d="M183 285h-57v363l-83 -73v66l83 71h57v-427z"/>
<glyph glyph-name="ordmasculine" horiz-adv-x="455" unicode="º" d="M328 515q0 32 -5 65t-26 54q-28 28 -70 28t-70 -28q-21 -21 -25 -54t-5 -65q1 -33 5 -65t25 -53q14 -13 32 -21t38 -8t38 8t32 21q21 21 26 53t5 65zM387 515q0 -45 -9 -85t-39 -71q-20 -20 -48 -32t-64 -12t-64 12t-48 32q-30 31 -39 71t-9 85t9 85t39 71q20 21 48 33 t64 12t64 -12t48 -33q30 -31 39 -71t9 -85z"/>
<glyph glyph-name="guillemotright" horiz-adv-x="554" unicode="»" d="M288 268l-210 -210v89l121 121l-121 120v90zM514 268l-210 -210v89l120 121l-120 120v90z"/>
<glyph glyph-name="onequarter" horiz-adv-x="777" unicode="¼" d="M183 285h-57v363l-83 -73v66l83 71h57v-427zM566 712l-333 -712h-60l333 712h60zM737 64h-47v-64h-56v64h-172v53l151 310h62l-150 -310h109v105h56v-105h47v-53z"/>
<glyph glyph-name="onehalf" horiz-adv-x="790" unicode="½" d="M183 285h-57v363l-83 -73v66l83 71h57v-427zM554 712l-333 -712h-60l333 712h60zM742 0h-246v52l165 202q11 15 17 28t6 30q0 30 -17 48t-48 19q-25 0 -45 -15t-20 -52h-58q0 54 34 86t89 33q55 0 89 -32t34 -87q0 -28 -10 -48t-29 -44l-137 -168h176v-52z"/>
<glyph glyph-name="threequarters" horiz-adv-x="822" unicode="¾" d="M308 405q0 -31 -10 -55t-28 -38q-18 -16 -40 -24q-24 -8 -51 -8q-26 0 -49 7t-41 21t-29 38q-11 22 -12 53h58q2 -35 24 -51t49 -16q31 0 51 19t21 54q-1 33 -19 53t-56 20h-9v50h9q36 0 52 18t16 50q0 34 -20 51t-46 17q-29 0 -47 -17t-20 -46h-57q3 55 38 85t86 30 q54 0 88 -32t35 -87q0 -35 -14 -57t-40 -35q29 -12 45 -36t16 -64zM619 712l-334 -712h-60l334 712h60zM782 64h-47v-64h-56v64h-172v53l151 310h62l-151 -310h110v105h56v-105h47v-53z"/>
<glyph glyph-name="questiondown" horiz-adv-x="497" unicode="¿" d="M427 -43q0 -37 -14 -71q-13 -34 -39 -59t-60 -39t-75 -14q-39 0 -73 14t-60 38t-40 58t-14 73q0 35 12 63t33 57l82 118q9 14 13 30t5 28v40h72v-41q1 -29 -7 -50t-24 -44l-81 -116q-13 -21 -23 -40t-10 -45q0 -51 32 -85t83 -33q27 -1 49 9t36 26q15 16 23 38q8 21 8 45 h72zM284 445q0 -21 -14 -35t-36 -15q-21 1 -36 15t-15 35t15 35t36 15q22 -1 36 -15t14 -35z"/>
<glyph glyph-name="Agrave" horiz-adv-x="611" unicode="À" d="M439 227l-132 376l-134 -376h266zM599 0h-81l-57 161h-311l-57 -161h-81l262 712h64zM351 781h-66l-108 153h86z"/>
<glyph glyph-name="Aacute" horiz-adv-x="611" unicode="Á" d="M439 227l-132 376l-134 -376h266zM599 0h-81l-57 161h-311l-57 -161h-81l262 712h64zM427 934l-108 -153h-66l88 153h86z"/>
<glyph glyph-name="Acircumflex" horiz-adv-x="611" unicode="Â" d="M439 227l-132 376l-134 -376h266zM599 0h-81l-57 161h-311l-57 -161h-81l262 712h64zM461 781h-69l-90 104l-90 -104h-69l125 153h68z"/>
<glyph glyph-name="Atilde" horiz-adv-x="611" unicode="Ã" d="M439 227l-132 376l-134 -376h266zM599 0h-81l-57 161h-311l-57 -161h-81l262 712h64zM459 846q-34 -34 -56 -42.5t-39 -8.5q-21 0 -37 6t-34 17q-14 8 -27.5 14.5t-28.5 6.5q-12 0 -24.5 -5t-34.5 -27l-37 36q17 17 30.5 27t24.5 15.5t21 7t19 1.5q22 0 37 -6.5t34 -17.5 q16 -10 28.5 -15t27.5 -5q11 0 24 5t35 27z"/>
<glyph glyph-name="Adieresis" horiz-adv-x="611" unicode="Ä" d="M439 227l-132 376l-134 -376h266zM599 0h-81l-57 161h-311l-57 -161h-81l262 712h64zM241 832q0 -19 -13 -32t-32 -13t-32 13t-13 32t13 32.5t32 13.5t32 -13.5t13 -32.5zM453 832q0 -19 -13 -32t-32 -13t-32 13t-13 32t13 32.5t32 13.5t32 -13.5t13 -32.5z"/>
<glyph glyph-name="Aring" horiz-adv-x="611" unicode="Å" d="M439 227l-132 376l-134 -376h266zM599 0h-81l-57 161h-311l-57 -161h-81l262 712h64zM371 867q0 29 -20 48.5t-49 19.5t-49 -19.5t-20 -48.5t20 -49t49 -20t49 20t20 49zM420 867q0 -24 -9.5 -46t-25.5 -38t-37.5 -25.5t-45.5 -9.5t-45.5 9.5t-37.5 25.5t-25.5 38 t-9.5 46t9.5 45.5t25.5 37.5t37.5 25.5t45.5 9.5t45.5 -9t37.5 -25t25.5 -37.5t9.5 -46.5z"/>
<glyph glyph-name="AE" horiz-adv-x="922" unicode="Æ" d="M426 235v409l-214 -409h214zM867 0h-441v169h-247l-88 -169h-83l376 712h483v-68h-366v-253h312v-68h-312v-255h366v-68z"/>
<glyph glyph-name="Ccedilla" horiz-adv-x="626" unicode="Ç" d="M370 -67l-59 -149h-79l71 149h67zM525 81q-42 -39 -88 -63t-112 -24q-53 0 -99 19t-83 55q-25 25 -39 52q-14 26 -20 60t-7 76t-1 100t1 100t7 76t20 60q14 27 39 52q37 36 83 55t99 19q66 0 112 -24t88 -63l-51 -51q-34 32 -66 51t-83 19q-35 0 -67 -13t-56 -37 q-17 -16 -27 -36t-15 -48q-4 -28 -6 -66t-2 -94t2 -94t6 -66q5 -28 15 -48t27 -36q24 -24 56 -37t67 -13q51 0 83 19t66 51z"/>
<glyph glyph-name="Egrave" horiz-adv-x="600" unicode="È" d="M545 0h-442v712h442v-68h-366v-251h312v-68h-312v-257h366v-68zM362 781h-66l-108 153h86z"/>
<glyph glyph-name="Eacute" horiz-adv-x="600" unicode="É" d="M545 0h-442v712h442v-68h-366v-251h312v-68h-312v-257h366v-68zM438 934l-108 -153h-66l88 153h86z"/>
<glyph glyph-name="Ecircumflex" horiz-adv-x="600" unicode="Ê" d="M545 0h-442v712h442v-68h-366v-251h312v-68h-312v-257h366v-68zM472 781h-69l-90 104l-90 -104h-69l125 153h68z"/>
<glyph glyph-name="Edieresis" horiz-adv-x="600" unicode="Ë" d="M545 0h-442v712h442v-68h-366v-251h312v-68h-312v-257h366v-68zM252 832q0 -19 -13 -32t-32 -13t-32 13t-13 32t13 32.5t32 13.5t32 -13.5t13 -32.5zM464 832q0 -19 -13 -32t-32 -13t-32 13t-13 32t13 32.5t32 13.5t32 -13.5t13 -32.5z"/>
<glyph glyph-name="Igrave" horiz-adv-x="282" unicode="Ì" d="M179 0h-76v712h76v-712zM278 781h-66l-108 153h86z"/>
<glyph glyph-name="Iacute" horiz-adv-x="282" unicode="Í" d="M179 0h-76v712h76v-712zM278 934l-108 -153h-66l88 153h86z"/>
<glyph glyph-name="Icircumflex" horiz-adv-x="282" unicode="Î" d="M179 0h-76v712h76v-712zM421 781h-69l-90 104l-90 -104h-69l125 153h68z"/>
<glyph glyph-name="Idieresis" horiz-adv-x="282" unicode="Ï" d="M179 0h-76v712h76v-712zM193 832q0 -19 -13 -32t-32 -13t-32 13t-13 32t13 32.5t32 13.5t32 -13.5t13 -32.5zM405 832q0 -19 -13 -32t-32 -13t-32 13t-13 32t13 32.5t32 13.5t32 -13.5t13 -32.5z"/>
<glyph glyph-name="Eth" horiz-adv-x="687" unicode="Ð" d="M535 352q0 50 -1 84q0 34 -4 60q-4 24 -11 42t-20 35q-29 39 -65 55t-86 17h-154v-256h161v-59h-161v-263h154q106 0 156 74q11 16 17 32q6 17 9 39t4 55t1 85zM611 356q1 -61 -1 -100t-6 -66t-14 -46q-9 -19 -23 -39q-33 -45 -85 -75t-126 -30h-239v330h-78v59h78v323 h245q135 0 205 -107q15 -24 24 -44q9 -21 13 -47t6 -63q1 -37 1 -95z"/>
<glyph glyph-name="Ntilde" horiz-adv-x="732" unicode="Ñ" d="M629 0h-72l-378 571v-571h-76v712h72l378 -569v569h76v-712zM523 846q-34 -34 -56 -42.5t-39 -8.5q-21 0 -37 6t-34 17q-14 8 -27.5 14.5t-28.5 6.5q-12 0 -24.5 -5t-34.5 -27l-37 36q17 17 30.5 27t24.5 15.5t21 7t19 1.5q22 0 37 -6.5t34 -17.5q16 -10 28.5 -15 t27.5 -5q11 0 24 5t35 27z"/>
<glyph glyph-name="Ograve" horiz-adv-x="650" unicode="Ò" d="M498 356q0 56 -1.5 94.5t-6.5 65.5t-15 46.5t-27 36.5q-23 24 -55.5 37.5t-67.5 13.5t-67.5 -13.5t-55.5 -37.5q-17 -17 -27 -36.5t-15 -46.5t-6.5 -65.5t-1.5 -94.5t1.5 -94.5t6.5 -65.5t15 -46.5t27 -36.5q23 -24 55.5 -37.5t67.5 -13.5t67.5 13.5t55.5 37.5 q17 17 27 36.5t15 46.5t6.5 65.5t1.5 94.5zM574 356q0 -57 -1 -99.5t-7.5 -76t-20 -60.5t-38.5 -52q-36 -36 -82 -55t-100 -19q-108 0 -182 74q-25 25 -38.5 52t-20 60.5t-7.5 76t-1 99.5t1 99.5t7.5 76t20 60.5t38.5 52q74 74 182 74t182 -74q25 -25 38.5 -52t20 -60.5 t7.5 -76t1 -99.5zM374 781h-66l-108 153h86z"/>
<glyph glyph-name="Oacute" horiz-adv-x="650" unicode="Ó" d="M498 356q0 56 -1.5 94.5t-6.5 65.5t-15 46.5t-27 36.5q-23 24 -55.5 37.5t-67.5 13.5t-67.5 -13.5t-55.5 -37.5q-17 -17 -27 -36.5t-15 -46.5t-6.5 -65.5t-1.5 -94.5t1.5 -94.5t6.5 -65.5t15 -46.5t27 -36.5q23 -24 55.5 -37.5t67.5 -13.5t67.5 13.5t55.5 37.5 q17 17 27 36.5t15 46.5t6.5 65.5t1.5 94.5zM574 356q0 -57 -1 -99.5t-7.5 -76t-20 -60.5t-38.5 -52q-36 -36 -82 -55t-100 -19q-108 0 -182 74q-25 25 -38.5 52t-20 60.5t-7.5 76t-1 99.5t1 99.5t7.5 76t20 60.5t38.5 52q74 74 182 74t182 -74q25 -25 38.5 -52t20 -60.5 t7.5 -76t1 -99.5zM450 934l-108 -153h-66l88 153h86z"/>
<glyph glyph-name="Ocircumflex" horiz-adv-x="650" unicode="Ô" d="M498 356q0 56 -1.5 94.5t-6.5 65.5t-15 46.5t-27 36.5q-23 24 -55.5 37.5t-67.5 13.5t-67.5 -13.5t-55.5 -37.5q-17 -17 -27 -36.5t-15 -46.5t-6.5 -65.5t-1.5 -94.5t1.5 -94.5t6.5 -65.5t15 -46.5t27 -36.5q23 -24 55.5 -37.5t67.5 -13.5t67.5 13.5t55.5 37.5 q17 17 27 36.5t15 46.5t6.5 65.5t1.5 94.5zM574 356q0 -57 -1 -99.5t-7.5 -76t-20 -60.5t-38.5 -52q-36 -36 -82 -55t-100 -19q-108 0 -182 74q-25 25 -38.5 52t-20 60.5t-7.5 76t-1 99.5t1 99.5t7.5 76t20 60.5t38.5 52q74 74 182 74t182 -74q25 -25 38.5 -52t20 -60.5 t7.5 -76t1 -99.5zM484 781h-69l-90 104l-90 -104h-69l125 153h68z"/>
<glyph glyph-name="Otilde" horiz-adv-x="650" unicode="Õ" d="M498 356q0 56 -1.5 94.5t-6.5 65.5t-15 46.5t-27 36.5q-23 24 -55.5 37.5t-67.5 13.5t-67.5 -13.5t-55.5 -37.5q-17 -17 -27 -36.5t-15 -46.5t-6.5 -65.5t-1.5 -94.5t1.5 -94.5t6.5 -65.5t15 -46.5t27 -36.5q23 -24 55.5 -37.5t67.5 -13.5t67.5 13.5t55.5 37.5 q17 17 27 36.5t15 46.5t6.5 65.5t1.5 94.5zM574 356q0 -57 -1 -99.5t-7.5 -76t-20 -60.5t-38.5 -52q-36 -36 -82 -55t-100 -19q-108 0 -182 74q-25 25 -38.5 52t-20 60.5t-7.5 76t-1 99.5t1 99.5t7.5 76t20 60.5t38.5 52q74 74 182 74t182 -74q25 -25 38.5 -52t20 -60.5 t7.5 -76t1 -99.5zM482 846q-34 -34 -56 -42.5t-39 -8.5q-21 0 -37 6t-34 17q-14 8 -27.5 14.5t-28.5 6.5q-12 0 -24.5 -5t-34.5 -27l-37 36q17 17 30.5 27t24.5 15.5t21 7t19 1.5q22 0 37 -6.5t34 -17.5q16 -10 28.5 -15t27.5 -5q11 0 24 5t35 27z"/>
<glyph glyph-name="Odieresis" horiz-adv-x="650" unicode="Ö" d="M498 356q0 56 -1.5 94.5t-6.5 65.5t-15 46.5t-27 36.5q-23 24 -55.5 37.5t-67.5 13.5t-67.5 -13.5t-55.5 -37.5q-17 -17 -27 -36.5t-15 -46.5t-6.5 -65.5t-1.5 -94.5t1.5 -94.5t6.5 -65.5t15 -46.5t27 -36.5q23 -24 55.5 -37.5t67.5 -13.5t67.5 13.5t55.5 37.5 q17 17 27 36.5t15 46.5t6.5 65.5t1.5 94.5zM574 356q0 -57 -1 -99.5t-7.5 -76t-20 -60.5t-38.5 -52q-36 -36 -82 -55t-100 -19q-108 0 -182 74q-25 25 -38.5 52t-20 60.5t-7.5 76t-1 99.5t1 99.5t7.5 76t20 60.5t38.5 52q74 74 182 74t182 -74q25 -25 38.5 -52t20 -60.5 t7.5 -76t1 -99.5zM264 832q0 -19 -13 -32t-32 -13t-32 13t-13 32t13 32.5t32 13.5t32 -13.5t13 -32.5zM476 832q0 -19 -13 -32t-32 -13t-32 13t-13 32t13 32.5t32 13.5t32 -13.5t13 -32.5z"/>
<glyph glyph-name="multiply" horiz-adv-x="522" unicode="×" d="M457 119l-45 -45l-151 151l-151 -151l-45 45l151 151l-151 151l45 45l151 -152l151 152l45 -45l-152 -151z"/>
<glyph glyph-name="Oslash" horiz-adv-x="652" unicode="Ø" d="M421 621q-21 13 -45 21t-51 8q-35 0 -67 -14t-56 -37q-17 -17 -27 -37t-15 -46q-4 -28 -6 -66t-2 -94q0 -49 1 -84q1 -36 5 -62t10 -44t19 -35zM497 356q0 49 -1 84q0 36 -4 62t-10 44t-19 35l-234 -490q21 -13 45 -21t51 -8q35 0 67 14t56 37q16 17 26 37t15 46 q5 28 7 66t1 94zM574 356q0 -58 -1 -100t-7 -76t-20 -60q-14 -27 -39 -52q-36 -36 -82 -55t-100 -19q-70 0 -126 32l-33 -70h-65l50 104l-8 8q-25 25 -39 52q-14 26 -20 60t-7 76t-1 100t1 100t7 76t20 60q14 27 39 52q74 74 182 74q70 0 125 -31l34 69h65l-50 -104l4 -4 l4 -4q25 -25 39 -52q14 -26 20 -60t7 -76t1 -100z"/>
<glyph glyph-name="Ugrave" horiz-adv-x="682" unicode="Ù" d="M390 781h-66l-108 153h86zM590 235q0 -53 -18 -97t-52 -77q-34 -31 -80 -49t-99 -18t-99 18t-79 49q-33 33 -51 77t-19 97v477h76v-471q0 -41 12 -74q13 -33 35 -56t54 -36t71 -13t71 13t54 36t36 56q12 33 12 74v471h76v-477z"/>
<glyph glyph-name="Uacute" horiz-adv-x="682" unicode="Ú" d="M466 934l-108 -153h-66l88 153h86zM590 235q0 -53 -18 -97t-52 -77q-34 -31 -80 -49t-99 -18t-99 18t-79 49q-33 33 -51 77t-19 97v477h76v-471q0 -41 12 -74q13 -33 35 -56t54 -36t71 -13t71 13t54 36t36 56q12 33 12 74v471h76v-477z"/>
<glyph glyph-name="Ucircumflex" horiz-adv-x="682" unicode="Û" d="M500 781h-69l-90 104l-90 -104h-69l125 153h68zM590 235q0 -53 -18 -97t-52 -77q-34 -31 -80 -49t-99 -18t-99 18t-79 49q-33 33 -51 77t-19 97v477h76v-471q0 -41 12 -74q13 -33 35 -56t54 -36t71 -13t71 13t54 36t36 56q12 33 12 74v471h76v-477z"/>
<glyph glyph-name="Udieresis" horiz-adv-x="682" unicode="Ü" d="M280 832q0 -19 -13 -32t-32 -13t-32 13t-13 32q0 18 13 32t32 14t32 -14t13 -32zM492 832q0 -19 -13 -32t-32 -13t-32 13t-13 32q0 18 13 32t32 14t32 -14t13 -32zM590 235q0 -53 -18 -97t-52 -77q-34 -31 -80 -49t-99 -18t-99 18t-79 49q-33 33 -51 77t-19 97v477h76 v-471q0 -41 12 -74q13 -33 35 -56t54 -36t71 -13t71 13t54 36t36 56q12 33 12 74v471h76v-477z"/>
<glyph glyph-name="Yacute" horiz-adv-x="514" unicode="Ý" d="M506 712l-210 -418v-294h-76v294l-212 418h82l168 -341l166 341h82zM382 934l-108 -153h-66l88 153h86z"/>
<glyph glyph-name="Thorn" horiz-adv-x="642" unicode="Þ" d="M512 359q0 71 -42 106t-109 35h-182v-282h182q67 0 109 35t42 106zM588 359q0 -49 -16 -87t-45 -66t-69 -42t-90 -14h-189v-150h-76v712h76v-143h189q50 0 90 -15t69 -42t45 -66t16 -87z"/>
<glyph glyph-name="germandbls" horiz-adv-x="556" unicode="ß" d="M484 141q0 -69 -39 -105q-20 -20 -44 -28t-59 -8h-54v62h40q22 0 34 4t25 16q25 20 25 67v169q0 41 -21 62t-59 21h-44v60h36q40 1 64 25t24 66q0 22 -8 42t-23 33q-30 29 -94 29q-67 0 -95 -38t-29 -97v-521h-73v524q0 94 54 144t147 51q40 0 75 -10t61 -30 q25 -19 41 -51t16 -75t-16 -71t-47 -48q18 -10 30 -21q11 -11 19 -25t11 -32t3 -42v-173z"/>
<glyph glyph-name="agrave" horiz-adv-x="526" unicode="à" d="M369 174v53h-138q-110 0 -110 -87q0 -43 27 -63.5t86 -20.5q32 0 59.5 5t50.5 28q25 24 25 85zM441 0h-72v47q-30 -30 -61.5 -41.5t-80.5 -11.5q-51 0 -83.5 10.5t-55.5 34.5q-18 18 -27.5 44.5t-9.5 55.5q0 65 43.5 103.5t126.5 38.5h148v47q0 54 -29 81t-97 27 q-48 0 -75 -12.5t-49 -43.5l-49 45q33 43 73.5 58t100.5 15q100 0 148.5 -41.5t48.5 -122.5v-334zM301 594h-66l-108 153h86z"/>
<glyph glyph-name="aacute" horiz-adv-x="526" unicode="á" d="M369 174v53h-138q-110 0 -110 -87q0 -43 27 -63.5t86 -20.5q32 0 59.5 5t50.5 28q25 24 25 85zM441 0h-72v47q-30 -30 -61.5 -41.5t-80.5 -11.5q-51 0 -83.5 10.5t-55.5 34.5q-18 18 -27.5 44.5t-9.5 55.5q0 65 43.5 103.5t126.5 38.5h148v47q0 54 -29 81t-97 27 q-48 0 -75 -12.5t-49 -43.5l-49 45q33 43 73.5 58t100.5 15q100 0 148.5 -41.5t48.5 -122.5v-334zM377 747l-108 -153h-66l88 153h86z"/>
<glyph glyph-name="acircumflex" horiz-adv-x="526" unicode="â" d="M369 174v53h-138q-110 0 -110 -87q0 -43 27 -63.5t86 -20.5q32 0 59.5 5t50.5 28q25 24 25 85zM441 0h-72v47q-30 -30 -61.5 -41.5t-80.5 -11.5q-51 0 -83.5 10.5t-55.5 34.5q-18 18 -27.5 44.5t-9.5 55.5q0 65 43.5 103.5t126.5 38.5h148v47q0 54 -29 81t-97 27 q-48 0 -75 -12.5t-49 -43.5l-49 45q33 43 73.5 58t100.5 15q100 0 148.5 -41.5t48.5 -122.5v-334zM411 594h-69l-90 104l-90 -104h-69l125 153h68z"/>
<glyph glyph-name="atilde" horiz-adv-x="526" unicode="ã" d="M369 174v53h-138q-110 0 -110 -87q0 -43 27 -63.5t86 -20.5q32 0 59.5 5t50.5 28q25 24 25 85zM441 0h-72v47q-30 -30 -61.5 -41.5t-80.5 -11.5q-51 0 -83.5 10.5t-55.5 34.5q-18 18 -27.5 44.5t-9.5 55.5q0 65 43.5 103.5t126.5 38.5h148v47q0 54 -29 81t-97 27 q-48 0 -75 -12.5t-49 -43.5l-49 45q33 43 73.5 58t100.5 15q100 0 148.5 -41.5t48.5 -122.5v-334zM409 659q-34 -34 -56 -42.5t-39 -8.5q-21 0 -37 6t-34 17q-14 8 -27.5 14.5t-28.5 6.5q-12 0 -24.5 -5t-34.5 -27l-37 36q17 17 30.5 27t24.5 15.5t21 7t19 1.5q22 0 37 -6.5 t34 -17.5q16 -10 28.5 -15t27.5 -5q11 0 24 5t35 27z"/>
<glyph glyph-name="adieresis" horiz-adv-x="526" unicode="ä" d="M369 174v53h-138q-110 0 -110 -87q0 -43 27 -63.5t86 -20.5q32 0 59.5 5t50.5 28q25 24 25 85zM441 0h-72v47q-30 -30 -61.5 -41.5t-80.5 -11.5q-51 0 -83.5 10.5t-55.5 34.5q-18 18 -27.5 44.5t-9.5 55.5q0 65 43.5 103.5t126.5 38.5h148v47q0 54 -29 81t-97 27 q-48 0 -75 -12.5t-49 -43.5l-49 45q33 43 73.5 58t100.5 15q100 0 148.5 -41.5t48.5 -122.5v-334zM191 645q0 -19 -13 -32t-32 -13t-32 13t-13 32t13 32.5t32 13.5t32 -13.5t13 -32.5zM403 645q0 -19 -13 -32t-32 -13t-32 13t-13 32t13 32.5t32 13.5t32 -13.5t13 -32.5z"/>
<glyph glyph-name="aring" horiz-adv-x="526" unicode="å" d="M369 174v53h-138q-110 0 -110 -87q0 -43 27 -63.5t86 -20.5q32 0 59.5 5t50.5 28q25 24 25 85zM441 0h-72v47q-30 -30 -61.5 -41.5t-80.5 -11.5q-51 0 -83.5 10.5t-55.5 34.5q-18 18 -27.5 44.5t-9.5 55.5q0 65 43.5 103.5t126.5 38.5h148v47q0 54 -29 81t-97 27 q-48 0 -75 -12.5t-49 -43.5l-49 45q33 43 73.5 58t100.5 15q100 0 148.5 -41.5t48.5 -122.5v-334zM321 687q0 29 -20 48.5t-49 19.5t-49 -19.5t-20 -48.5t20 -49t49 -20t49 20t20 49zM370 687q0 -24 -9.5 -46t-25.5 -38t-37.5 -25.5t-45.5 -9.5t-45.5 9.5t-37.5 25.5 t-25.5 38t-9.5 46t9.5 45.5t25.5 37.5t37.5 25.5t45.5 9.5t45.5 -9t37.5 -25t25.5 -37.5t9.5 -46.5z"/>
<glyph glyph-name="ae" horiz-adv-x="835" unicode="æ" d="M369 174v53h-138q-110 0 -110 -87q0 -44 27 -64t86 -20q32 0 60 5t50 28q25 24 25 85zM701 281q-1 15 -2 26t-3 20t-4 17t-6 19q-14 34 -45 54t-70 20t-70 -20t-45 -54q-8 -20 -11 -36t-5 -46h261zM773 227h-333q0 -81 38 -125t108 -45q43 -1 71 13t57 43l50 -43 q-19 -19 -38 -33q-18 -13 -40 -23t-48 -15t-56 -5q-58 0 -103 20t-72 65q-34 -49 -75 -67t-105 -18q-51 0 -83 10t-56 35q-18 19 -28 45t-9 55q-1 65 43 103t127 39h148v47q0 54 -29 81t-97 27q-48 0 -75 -12t-49 -44l-49 45q34 43 74 58t100 15q132 0 173 -77q52 77 154 77 q96 0 149 -64t53 -174v-33z"/>
<glyph glyph-name="ccedilla" horiz-adv-x="494" unicode="ç" d="M313 -67l-59 -149h-79l71 149h67zM443 67q-39 -41 -75 -57t-87 -16q-47 0 -87 16t-68 46q-30 32 -46 80t-17 110q1 63 17 110q16 46 46 78t68 48q40 16 87 16q51 0 87 -16t75 -57l-49 -46q-28 31 -53 43t-60 12q-36 0 -65 -14t-49 -42q-17 -24 -25 -54t-7 -78 q-1 -48 7 -78t25 -54q20 -28 49 -42t65 -14q35 0 60 12t53 44z"/>
<glyph glyph-name="egrave" d="M395 281q-1 15 -2 26t-2.5 20t-4 17.5t-6.5 18.5q-14 34 -45 54t-70 20t-70 -20t-45 -54q-8 -20 -11 -36t-4 -46h260zM467 227h-332q0 -81 37 -125.5t108 -44.5q43 0 71.5 13.5t57.5 42.5l49 -43q-19 -19 -37.5 -33t-39.5 -23.5t-46.5 -14.5t-56.5 -5q-49 0 -88.5 15 t-67.5 46t-43.5 78.5t-15.5 112.5q0 120 54 186t148 66q96 0 149 -64t53 -174v-33zM317 594h-66l-108 153h86z" unicode="è"/>
<glyph glyph-name="eacute" d="M395 281q-1 15 -2 26t-2.5 20t-4 17.5t-6.5 18.5q-14 34 -45 54t-70 20t-70 -20t-45 -54q-8 -20 -11 -36t-4 -46h260zM467 227h-332q0 -81 37 -125.5t108 -44.5q43 0 71.5 13.5t57.5 42.5l49 -43q-19 -19 -37.5 -33t-39.5 -23.5t-46.5 -14.5t-56.5 -5q-49 0 -88.5 15 t-67.5 46t-43.5 78.5t-15.5 112.5q0 120 54 186t148 66q96 0 149 -64t53 -174v-33zM393 747l-108 -153h-66l88 153h86z" unicode="é"/>
<glyph glyph-name="ecircumflex" d="M395 281q-1 15 -2 26t-2.5 20t-4 17.5t-6.5 18.5q-14 34 -45 54t-70 20t-70 -20t-45 -54q-8 -20 -11 -36t-4 -46h260zM467 227h-332q0 -81 37 -125.5t108 -44.5q43 0 71.5 13.5t57.5 42.5l49 -43q-19 -19 -37.5 -33t-39.5 -23.5t-46.5 -14.5t-56.5 -5q-49 0 -88.5 15 t-67.5 46t-43.5 78.5t-15.5 112.5q0 120 54 186t148 66q96 0 149 -64t53 -174v-33zM427 594h-69l-90 104l-90 -104h-69l125 153h68z" unicode="ê"/>
<glyph glyph-name="edieresis" d="M395 281q-1 15 -2 26t-2.5 20t-4 17.5t-6.5 18.5q-14 34 -45 54t-70 20t-70 -20t-45 -54q-8 -20 -11 -36t-4 -46h260zM467 227h-332q0 -81 37 -125.5t108 -44.5q43 0 71.5 13.5t57.5 42.5l49 -43q-19 -19 -37.5 -33t-39.5 -23.5t-46.5 -14.5t-56.5 -5q-49 0 -88.5 15 t-67.5 46t-43.5 78.5t-15.5 112.5q0 120 54 186t148 66q96 0 149 -64t53 -174v-33zM207 645q0 -19 -13 -32t-32 -13t-32 13t-13 32t13 32.5t32 13.5t32 -13.5t13 -32.5zM419 645q0 -19 -13 -32t-32 -13t-32 13t-13 32t13 32.5t32 13.5t32 -13.5t13 -32.5z" unicode="ë"/>
<glyph glyph-name="igrave" horiz-adv-x="253" unicode="ì" d="M162 0h-72v492h72v-492zM265 594h-66l-108 153h86z"/>
<glyph glyph-name="iacute" horiz-adv-x="253" unicode="í" d="M162 0h-72v492h72v-492zM265 747l-108 -153h-66l88 153h86z"/>
<glyph glyph-name="icircumflex" horiz-adv-x="253" unicode="î" d="M162 0h-72v492h72v-492zM409 594h-69l-90 104l-90 -104h-69l125 153h68z"/>
<glyph glyph-name="idieresis" horiz-adv-x="253" unicode="ï" d="M162 0h-72v492h72v-492zM181 645q0 -19 -13 -32t-32 -13t-32 13t-13 32t13 32.5t32 13.5t32 -13.5t13 -32.5zM393 645q0 -19 -13 -32t-32 -13t-32 13t-13 32t13 32.5t32 13.5t32 -13.5t13 -32.5z"/>
<glyph glyph-name="eth" d="M393 244q0 21 -1 42q-1 20 -5 40t-12 38t-21 31q-36 36 -89 36q-52 0 -88 -36q-13 -13 -21 -31t-12 -38t-5 -40q-1 -21 -1 -42q0 -42 6 -82t33 -68q36 -36 88 -36q53 0 89 36q27 28 33 68t6 82zM465 244q0 -57 -11 -107t-49 -88q-25 -27 -60 -41t-80 -14t-80 14t-60 41 q-39 38 -49 88t-10 107t10 107t49 88q46 47 122 52h15q12 -1 24 -1q20 -2 36 -9l-58 99h-116v52h88l-47 82h75l47 -82h82v-52h-54l63 -111q20 -35 32 -62t20 -53q6 -26 8 -51q2 -26 3 -59z" unicode="ð"/>
<glyph glyph-name="ntilde" horiz-adv-x="563" unicode="ñ" d="M442 659q-34 -35 -56 -43t-39 -8q-21 0 -37 6t-34 17q-14 9 -28 15t-28 6q-12 0 -24 -5t-35 -27l-37 36q16 17 30 27q14 9 25 15t21 8t19 1q22 -1 37 -7t34 -17q16 -10 28 -15t28 -5q11 0 24 5t35 27zM477 0h-72v303q-1 67 -33 99t-88 32t-89 -33t-33 -98v-303h-72v492 h72v-54q26 30 61 45t77 15q80 0 126 -46q51 -50 51 -137v-315z"/>
<glyph glyph-name="ograve" d="M394 246q0 21 -1 42t-5 41t-12 37.5t-21 31.5q-36 36 -90 36q-53 0 -89 -36q-14 -14 -21.5 -31.5t-12 -37.5t-5.5 -41t-1 -42t1 -42t5.5 -41t12 -38t21.5 -31q36 -36 89 -36q54 0 90 36q13 13 21 31t12 38t5 41t1 42zM466 246q0 -57 -11.5 -107.5t-48.5 -88.5 q-26 -26 -61 -41t-80 -15t-80 15t-61 41q-19 19 -30.5 41.5t-18 47t-9 51.5t-2.5 56q0 28 2.5 55.5t9 52t18 47t30.5 41.5q26 26 61 41t80 15t80 -15t61 -41q37 -38 48.5 -88.5t11.5 -107.5zM304 594h-66l-108 153h86z" unicode="ò"/>
<glyph glyph-name="oacute" d="M394 246q0 21 -1 42t-5 41t-12 37.5t-21 31.5q-36 36 -90 36q-53 0 -89 -36q-14 -14 -21.5 -31.5t-12 -37.5t-5.5 -41t-1 -42t1 -42t5.5 -41t12 -38t21.5 -31q36 -36 89 -36q54 0 90 36q13 13 21 31t12 38t5 41t1 42zM466 246q0 -57 -11.5 -107.5t-48.5 -88.5 q-26 -26 -61 -41t-80 -15t-80 15t-61 41q-19 19 -30.5 41.5t-18 47t-9 51.5t-2.5 56q0 28 2.5 55.5t9 52t18 47t30.5 41.5q26 26 61 41t80 15t80 -15t61 -41q37 -38 48.5 -88.5t11.5 -107.5zM390 747l-108 -153h-66l88 153h86z" unicode="ó"/>
<glyph glyph-name="ocircumflex" d="M394 246q0 21 -1 42t-5 41t-12 37.5t-21 31.5q-36 36 -90 36q-53 0 -89 -36q-14 -14 -21.5 -31.5t-12 -37.5t-5.5 -41t-1 -42t1 -42t5.5 -41t12 -38t21.5 -31q36 -36 89 -36q54 0 90 36q13 13 21 31t12 38t5 41t1 42zM466 246q0 -57 -11.5 -107.5t-48.5 -88.5 q-26 -26 -61 -41t-80 -15t-80 15t-61 41q-19 19 -30.5 41.5t-18 47t-9 51.5t-2.5 56q0 28 2.5 55.5t9 52t18 47t30.5 41.5q26 26 61 41t80 15t80 -15t61 -41q37 -38 48.5 -88.5t11.5 -107.5zM424 594h-69l-90 104l-90 -104h-69l125 153h68z" unicode="ô"/>
<glyph glyph-name="otilde" d="M394 246q0 21 -1 42t-5 41t-12 37.5t-21 31.5q-36 36 -90 36q-53 0 -89 -36q-14 -14 -21.5 -31.5t-12 -37.5t-5.5 -41t-1 -42t1 -42t5.5 -41t12 -38t21.5 -31q36 -36 89 -36q54 0 90 36q13 13 21 31t12 38t5 41t1 42zM466 246q0 -57 -11.5 -107.5t-48.5 -88.5 q-26 -26 -61 -41t-80 -15t-80 15t-61 41q-19 19 -30.5 41.5t-18 47t-9 51.5t-2.5 56q0 28 2.5 55.5t9 52t18 47t30.5 41.5q26 26 61 41t80 15t80 -15t61 -41q37 -38 48.5 -88.5t11.5 -107.5zM422 659q-34 -34 -56 -42.5t-39 -8.5q-21 0 -37 6t-34 17q-14 8 -27.5 14.5 t-28.5 6.5q-12 0 -24.5 -5t-34.5 -27l-37 36q17 17 30.5 27t24.5 15.5t21 7t19 1.5q22 0 37 -6.5t34 -17.5q16 -10 28.5 -15t27.5 -5q11 0 24 5t35 27z" unicode="õ"/>
<glyph glyph-name="odieresis" d="M394 246q0 21 -1 42t-5 41t-12 37.5t-21 31.5q-36 36 -90 36q-53 0 -89 -36q-14 -14 -21.5 -31.5t-12 -37.5t-5.5 -41t-1 -42t1 -42t5.5 -41t12 -38t21.5 -31q36 -36 89 -36q54 0 90 36q13 13 21 31t12 38t5 41t1 42zM466 246q0 -57 -11.5 -107.5t-48.5 -88.5 q-26 -26 -61 -41t-80 -15t-80 15t-61 41q-19 19 -30.5 41.5t-18 47t-9 51.5t-2.5 56q0 28 2.5 55.5t9 52t18 47t30.5 41.5q26 26 61 41t80 15t80 -15t61 -41q37 -38 48.5 -88.5t11.5 -107.5zM204 645q0 -19 -13 -32t-32 -13t-32 13t-13 32t13 32.5t32 13.5t32 -13.5 t13 -32.5zM416 645q0 -19 -13 -32t-32 -13t-32 13t-13 32t13 32.5t32 13.5t32 -13.5t13 -32.5z" unicode="ö"/>
<glyph glyph-name="divide" horiz-adv-x="522" unicode="÷" d="M318 90q0 -23 -17 -40t-40 -17t-40 17t-17 40t17 40t40 17t40 -17t17 -40zM471 236h-420v67h420v-67zM318 449q0 -23 -17 -40t-40 -17t-40 17t-17 40t17 40t40 17t40 -17t17 -40z"/>
<glyph glyph-name="oslash" d="M337 413q-30 21 -72 21q-53 0 -89 -36q-14 -14 -22 -32t-12 -37q-4 -20 -5 -41t-1 -42q0 -34 4 -70t21 -63zM394 246q0 34 -4 70t-20 63l-177 -299q31 -22 72 -22q54 0 90 36q13 13 21 31t12 38t5 41t1 42zM466 246q0 -58 -12 -108t-48 -88q-26 -26 -61 -41t-80 -15 q-31 0 -57 7t-48 20l-38 -65h-57l57 96q-36 38 -47 88t-11 106q0 28 2 56t10 52q6 24 18 46t30 42q26 26 61 41t80 15q31 0 57 -7t48 -20l39 65h56l-57 -96q36 -38 47 -88t11 -106z" unicode="ø"/>
<glyph glyph-name="ugrave" horiz-adv-x="562" unicode="ù" d="M472 0h-71v55q-26 -30 -61.5 -45.5t-77.5 -15.5q-81 0 -127 46q-26 26 -38 60.5t-12 77.5v314h72v-303q0 -66 32 -98.5t88 -32.5t89.5 33t33.5 98v303h72v-492zM327 594h-66l-108 153h86z"/>
<glyph glyph-name="uacute" horiz-adv-x="562" unicode="ú" d="M472 0h-71v55q-26 -30 -61.5 -45.5t-77.5 -15.5q-81 0 -127 46q-26 26 -38 60.5t-12 77.5v314h72v-303q0 -66 32 -98.5t88 -32.5t89.5 33t33.5 98v303h72v-492zM403 747l-108 -153h-66l88 153h86z"/>
<glyph glyph-name="ucircumflex" horiz-adv-x="562" unicode="û" d="M472 0h-71v55q-26 -30 -61.5 -45.5t-77.5 -15.5q-81 0 -127 46q-26 26 -38 60.5t-12 77.5v314h72v-303q0 -66 32 -98.5t88 -32.5t89.5 33t33.5 98v303h72v-492zM437 594h-69l-90 104l-90 -104h-69l125 153h68z"/>
<glyph glyph-name="udieresis" horiz-adv-x="562" unicode="ü" d="M472 0h-71v55q-26 -30 -61.5 -45.5t-77.5 -15.5q-81 0 -127 46q-26 26 -38 60.5t-12 77.5v314h72v-303q0 -66 32 -98.5t88 -32.5t89.5 33t33.5 98v303h72v-492zM217 645q0 -19 -13 -32t-32 -13t-32 13t-13 32t13 32.5t32 13.5t32 -13.5t13 -32.5zM429 645q0 -19 -13 -32 t-32 -13t-32 13t-13 32t13 32.5t32 13.5t32 -13.5t13 -32.5z"/>
<glyph glyph-name="yacute" horiz-adv-x="447" unicode="ý" d="M436 492l-224 -611q-14 -39 -35 -58q-20 -19 -45 -26.5t-51 -7.5h-31v64h22q37 0 53 13.5t28 47.5l35 96l-177 482h78l135 -395l134 395h78zM349 747l-108 -153h-66l88 153h86z"/>
<glyph glyph-name="thorn" horiz-adv-x="546" unicode="þ" d="M409 246q0 36 -4 70t-17 60q-14 26 -38 42t-64 16t-64 -16t-38 -42t-18 -60t-4 -70t4 -70t18 -60t38 -42t64 -16t64 16t38 42q13 26 17 60t4 70zM481 246q-1 -29 -3 -58q-2 -28 -8 -56t-18 -52t-31 -43q-20 -19 -51 -31t-69 -12q-41 0 -75 13t-64 51v-278h-72v932h72 v-277q30 39 64 51t75 12q38 0 69 -12t51 -31q19 -19 31 -43t18 -52t8 -56q2 -29 3 -58z"/>
<glyph glyph-name="dotlessi" horiz-adv-x="253" unicode="ı" d="M162 0h-72v492h72v-492z"/>
<glyph glyph-name="OE" horiz-adv-x="989" unicode="Œ" d="M497 356q1 56 -1 94t-7 66q-5 26 -15 46t-26 37q-24 23 -56 37t-67 14t-67 -14t-56 -37q-17 -17 -27 -37t-15 -46q-4 -28 -6 -66t-2 -94t2 -94t6 -66q5 -26 15 -46t27 -37q24 -23 56 -37t67 -14t67 14t56 37q16 17 26 37t15 46q5 28 7 66t1 94zM933 0h-436v74 q-33 -40 -79 -60t-94 -20q-107 0 -181 74q-25 26 -39 52t-20 60t-7 76t-1 100t1 100t7 76t20 60t39 52q74 74 181 74q52 0 96 -20t77 -60v74h434v-67h-358q1 -59 1 -127v-127h304v-64h-304v-130t-1 -130h360v-67z"/>
<glyph glyph-name="oe" horiz-adv-x="861" unicode="œ" d="M394 246q0 21 -1 42t-5 41q-4 19 -12 37t-21 32q-36 36 -90 36q-53 0 -89 -36q-14 -14 -22 -32t-12 -37q-4 -20 -5 -41t-1 -42t1 -42t5 -41t12 -38t22 -31q36 -36 89 -36q54 0 90 36q13 13 21 31t12 38t5 41t1 42zM727 281q-2 30 -5 46t-11 36q-14 34 -45 54t-70 20 t-70 -20t-45 -54q-8 -20 -11 -36t-4 -46h261zM798 227h-332q0 -81 37 -125t108 -45q43 -1 71 13t58 43l49 -43q-19 -19 -37 -33q-18 -13 -40 -23q-20 -10 -46 -15t-57 -5q-124 0 -177 95q-23 -45 -67 -70t-100 -25q-45 0 -80 15t-61 41q-18 20 -30 42t-18 46t-10 52 q-2 27 -2 56q0 28 2 56t10 52q6 24 18 46t30 42q26 26 61 41t80 15q57 0 101 -25t67 -70q51 95 163 95q96 0 149 -64t53 -174v-33z"/>
<glyph glyph-name="Scaron" horiz-adv-x="588" unicode="Š" d="M532 196q0 -47 -17.5 -84.5t-50 -63.5t-78 -40t-100.5 -14q-80 0 -137 22t-107 72l52 52q44 -44 89 -61t105 -17q78 0 123 34.5t45 97.5q0 28 -8.5 51t-25.5 38t-35.5 21.5t-57.5 12.5l-83 13q-85 14 -131 54q-54 48 -54 133q0 45 16 82.5t45.5 63.5t71.5 40.5t95 14.5 q68 0 117 -18.5t95 -59.5l-49 -49q-33 30 -71 45.5t-95 15.5q-72 0 -111 -36t-39 -96q0 -54 32 -82q17 -14 42.5 -24t53.5 -15l78 -12q25 -4 44.5 -8.5t34.5 -10.5t27.5 -13.5t23.5 -17.5q60 -51 60 -141zM448 934l-125 -153h-68l-125 153h69l90 -105l90 105h69z"/>
<glyph glyph-name="scaron" horiz-adv-x="496" unicode="š" d="M445 144q0 -36 -14.5 -63.5t-41 -47t-63 -29.5t-81.5 -10q-63 0 -112 16t-90 55l48 48q29 -31 68 -44t85 -13q61 0 96 21.5t35 65.5q0 32 -19.5 50t-62.5 22l-81 7q-72 6 -109.5 38.5t-37.5 93.5q0 34 13.5 60.5t37.5 45t57.5 28.5t72.5 10q53 0 98.5 -13t78.5 -40 l-47 -47q-26 20 -59.5 29.5t-71.5 9.5q-54 0 -82 -21.5t-28 -59.5q0 -32 19.5 -50t66.5 -22l79 -7q32 -3 59 -11t46 -24t29.5 -40t10.5 -58zM406 747l-125 -153h-68l-125 153h69l90 -105l90 105h69z"/>
<glyph glyph-name="Ydieresis" horiz-adv-x="514" unicode="Ÿ" d="M506 712l-210 -418v-294h-76v294l-212 418h82l168 -341l166 341h82zM196 832q0 -19 -13 -32t-32 -13t-32 13t-13 32t13 32.5t32 13.5t32 -13.5t13 -32.5zM408 832q0 -19 -13 -32t-32 -13t-32 13t-13 32t13 32.5t32 13.5t32 -13.5t13 -32.5z"/>
<glyph glyph-name="circumflex" horiz-adv-x="500" unicode="ˆ" d="M409 594h-69l-90 104l-90 -104h-69l125 153h68z"/>
<glyph glyph-name="caron" horiz-adv-x="500" unicode="ˇ" d="M409 747l-125 -153h-68l-125 153h69l90 -105l90 105h69z"/>
<glyph glyph-name="ring" horiz-adv-x="500" unicode="˚" d="M319 687q0 29 -20 48.5t-49 19.5t-49 -19.5t-20 -48.5t20 -49t49 -20t49 20t20 49zM368 687q0 -24 -9.5 -46t-25.5 -38t-37.5 -25.5t-45.5 -9.5t-45.5 9.5t-37.5 25.5t-25.5 38t-9.5 46t9.5 45.5t25.5 37.5t37.5 25.5t45.5 9.5t45.5 -9t37.5 -25t25.5 -37.5t9.5 -46.5z "/>
<glyph glyph-name="tilde" horiz-adv-x="500" unicode="˜" d="M407 659q-34 -34 -56 -42.5t-39 -8.5q-21 0 -37 6t-34 17q-14 8 -27.5 14.5t-28.5 6.5q-12 0 -24.5 -5t-34.5 -27l-37 36q17 17 30.5 27t24.5 15.5t21 7t19 1.5q22 0 37 -6.5t34 -17.5q16 -10 28.5 -15t27.5 -5q11 0 24 5t35 27z"/>
<glyph glyph-name="Delta" horiz-adv-x="603" unicode="Δ" d="M495 66l-193 537l-194 -537h387zM594 0h-586l262 712h63z"/>
<glyph glyph-name="pi" horiz-adv-x="591" unicode="π" d="M490 0h-69v427h-250v-427h-70v492h389v-492z"/>
<glyph glyph-name="endash" horiz-adv-x="522" unicode="–" d="M470 236h-418v67h418v-67z"/>
<glyph glyph-name="emdash" horiz-adv-x="914" unicode="—" d="M838 236h-762v68h762v-68z"/>
<glyph glyph-name="quoteleft" horiz-adv-x="263" unicode="‘" d="M175 628h-87v84l87 79v-163z"/>
<glyph glyph-name="quotesinglbase" horiz-adv-x="263" unicode="‚" d="M175 0l-87 -79v163h87v-84z"/>
<glyph glyph-name="quotedblleft" horiz-adv-x="434" unicode="“" d="M175 628h-87v84l87 79v-163zM346 628h-88v84l88 79v-163z"/>
<glyph glyph-name="quotedblright" horiz-adv-x="434" unicode="”" d="M175 628l-87 -79v163h87v-84zM346 628l-88 -79v163h88v-84z"/>
<glyph glyph-name="dagger" horiz-adv-x="605" unicode="†" d="M531 445h-194v-445h-72v445h-191v64h191v203h72v-203h194v-64z"/>
<glyph glyph-name="daggerdbl" horiz-adv-x="605" unicode="‡" d="M531 -16h-194v-204h-72v204h-191v64h191v397h-191v64h191v203h72v-203h194v-64h-194v-397h194v-64z"/>
<glyph glyph-name="ellipsis" horiz-adv-x="757" unicode="…" d="M193 54q0 -23 -17 -40t-40 -17t-40 17t-17 40t17 40t40 17t40 -17t17 -40zM435 54q0 -23 -17 -40t-40 -17t-40 17t-17 40t17 40t40 17t40 -17t17 -40zM677 54q0 -23 -17 -40t-40 -17t-40 17t-17 40t17 40t40 17t40 -17t17 -40z"/>
<glyph glyph-name="perthousand" horiz-adv-x="1179" unicode="‰" d="M278 481v101q0 40 -18 64t-60 23q-42 0 -60 -23t-18 -64v-101q0 -41 18 -63t60 -23q42 0 60 23t18 63zM712 130v101q0 39 -18 63t-60 24t-60 -23t-18 -64v-101q0 -41 18 -64t60 -23q42 -1 60 23t18 64zM1058 130v101q0 39 -18 63t-60 24t-60 -23t-18 -64v-101 q0 -41 18 -64t60 -23q42 -1 60 23t18 64zM335 479q-1 -61 -39 -97t-96 -37q-59 1 -97 37t-38 97v105q0 62 38 98t97 37q58 -1 96 -37t39 -98v-105zM614 712l-334 -712h-60l334 712h60zM769 128q-1 -62 -39 -98t-96 -37q-59 1 -97 37t-38 98v105q0 63 38 99t97 36 q58 0 96 -36t39 -99v-105zM1115 128q-1 -62 -39 -98t-96 -37q-59 1 -97 37t-38 98v105q0 63 38 99t97 36q58 0 96 -36t39 -99v-105z"/>
<glyph glyph-name="guilsinglleft" horiz-adv-x="328" unicode="‹" d="M250 58l-210 210l210 210v-90l-120 -120l120 -121v-89z"/>
<glyph glyph-name="guilsinglright" horiz-adv-x="328" unicode="›" d="M288 268l-210 -210v89l121 121l-121 120v90z"/>
<glyph glyph-name="trademark" horiz-adv-x="839" unicode="™" d="M331 659h-119v-374h-58v374h-118v53h295v-53zM781 285h-57v308l-102 -202h-56l-102 202v-308h-58v427h58l130 -259l130 259h57v-427z"/>
<glyph glyph-name="partialdiff" horiz-adv-x="544" unicode="∂" d="M381 244q0 21 -1 42q-1 20 -5 40t-11 38t-20 31q-34 36 -84 36q-51 0 -85 -36q-13 -13 -21 -31t-10 -38q-4 -20 -5 -40q-1 -21 -1 -42t1 -42q1 -20 5 -40t10 -38q8 -18 21 -30q34 -36 85 -36q50 0 84 36q13 12 20 30t11 38t5 40q1 21 1 42zM453 244q-1 -57 -11 -107 t-46 -88q-24 -27 -58 -41t-78 -14t-78 14t-59 41q-37 38 -47 88t-10 107q0 61 10 111t47 87q20 21 53 37t77 16q35 1 67 -11t61 -47v70q1 30 -7 57q-8 28 -24 48t-42 32t-62 12q-21 0 -37 -4q-15 -4 -29 -9t-26 -15t-26 -22l-46 46q19 18 37 30q17 12 37 21q20 7 42 11t50 4 q50 0 88 -16t65 -44q26 -28 39 -68t13 -88v-258z"/>
<glyph glyph-name="product" horiz-adv-x="696" unicode="∏" d="M593 -220h-76v912h-338v-912h-76v980h490v-980z"/>
<glyph glyph-name="summation" horiz-adv-x="551" unicode="∑" d="M500 -220h-443v65l202 438l-201 413v64h441v-68h-353l180 -375v-69l-182 -400h356v-68z"/>
<glyph glyph-name="minus" horiz-adv-x="522" unicode="−" d="M470 236h-418v67h418v-67z"/>
<glyph glyph-name="radical" horiz-adv-x="562" unicode="√" d="M532 644h-89l-211 -644h-61l-163 492h79l115 -356l184 576h146v-68z"/>
<glyph glyph-name="infinity" horiz-adv-x="808" unicode="∞" d="M358 266q-36 42 -64 68t-65 26q-41 0 -67 -26t-26 -68t26 -68t67 -25q37 -1 65 25t64 68zM671 266q1 42 -25 68t-67 25q-37 1 -66 -25t-64 -68q35 -42 64 -68t66 -25q41 -1 67 25t25 68zM740 267q0 -34 -11 -63q-11 -28 -32 -50t-50 -34t-65 -12q-26 0 -49 6t-44 19 t-42 33t-43 46q-44 -54 -85 -80t-92 -25q-35 1 -65 13t-51 34t-33 50q-12 29 -11 63q-1 34 11 63q12 28 33 50t51 34t65 13q50 0 91 -26t86 -80q45 54 85 80t93 26q36 -1 65 -13t50 -34t32 -50q11 -29 11 -63z"/>
<glyph glyph-name="approxequal" horiz-adv-x="539" unicode="≈" d="M490 189q-22 -21 -38 -35t-30 -20q-14 -8 -30 -10q-14 -2 -31 -3q-25 0 -51 9t-55 22q-21 10 -39 17t-38 7q-12 0 -20 -2t-18 -6q-10 -6 -20 -14q-11 -8 -26 -23l-45 45q21 21 37 34q16 12 32 20q14 8 28 11t32 3q26 0 52 -9t54 -22q21 -10 39 -17t38 -7q10 -1 19 1 q8 2 18 7t21 13t26 24zM490 366q-22 -20 -38 -34t-30 -22t-30 -10q-14 -2 -31 -2q-25 0 -51 10t-55 22q-21 10 -39 16t-39 7q-11 1 -19 -1t-18 -6t-21 -14q-11 -8 -26 -23l-44 44q21 21 37 35t32 20q14 8 28 11t32 3q26 0 51 -10t54 -22q21 -10 39 -16t39 -7q10 -1 19 1 q8 2 18 6t21 14q11 8 26 23z"/>
<glyph glyph-name="notequal" horiz-adv-x="537" unicode="≠" d="M485 151h-284l-103 -111l-46 40l67 71h-67v66h126l99 103h-225v67h284l104 111l45 -41l-67 -70h67v-67h-126l-98 -103h224v-66z"/>
<glyph glyph-name="lessequal" horiz-adv-x="1027" unicode="≤" d="M862 544l-557 -558l515 1l-66 -66h-564v564l66 67l-1 -516l558 557z"/>
<glyph glyph-name="greaterequal" horiz-adv-x="1027" unicode="≥" d="M837 -79h-564l-66 66l515 -1l-557 558l49 49l558 -557l-1 516l66 -67v-564z"/>
<glyph glyph-name="lozenge" horiz-adv-x="649" unicode="◊" d="M501 352l-176 253l-177 -253l177 -255zM582 352l-257 -364l-258 364l258 364z"/>
</font>
</defs>
</svg>
