<?xml version="1.0" encoding="UTF-8" standalone="no"?>
<!DOCTYPE svg  PUBLIC '-//W3C//DTD SVG 1.1//EN'  'http://www.w3.org/Graphics/SVG/1.1/DTD/svg11.dtd'>
<svg xmlns="http://www.w3.org/2000/svg">
<defs>
<font id="DIN-MediumAlternate" horiz-adv-x="537">
<font-face underline-position="-102" font-weight="400" descent="-200" panose-1="2 0 5 3 4 0 0 2 0 4" units-per-em="1000" unicode-range="U+0020-25CA" bbox="-19 -211.067 1138 1000" x-height="507" underline-thickness="70" font-family="DIN" ascent="800" cap-height="712"/>
<missing-glyph horiz-adv-x="1000"/>
<glyph glyph-name=".notdef" horiz-adv-x="1000"/>
<glyph glyph-name=".null" horiz-adv-x="0"/>
<glyph glyph-name="nonmarkingreturn" horiz-adv-x="1000"/>
<glyph glyph-name="space" horiz-adv-x="240" unicode=" "/>
<glyph glyph-name="exclam" horiz-adv-x="332" unicode="!" d="M248 62q0 -27 -19 -46t-46 -19t-46 19t-19 46t19 46t46 19t46 -19t19 -46zM245 712l-23 -500h-77l-24 500h124z"/>
<glyph glyph-name="quotedbl" horiz-adv-x="444" unicode='&quot;' d="M179 521h-101v191h101v-191zM366 521h-101v191h101v-191z"/>
<glyph glyph-name="numbersign" horiz-adv-x="672" unicode="#" d="M424 426h-136l-20 -124h137zM623 426h-92l-20 -124h79v-94h-94l-33 -208h-106l33 208h-137l-32 -208h-107l33 208h-79v94h94l20 124h-81v94h95l31 196h107l-31 -196h136l31 196h106l-31 -196h78v-94z"/>
<glyph glyph-name="dollar" horiz-adv-x="608" unicode="$" d="M449 200q0 49 -28 74q-20 18 -42 22t-48 9v-212q56 5 87 33t31 74zM267 414v208q-53 -5 -81 -35t-27 -74q1 -21 7 -37t20 -29q16 -14 37 -22t44 -11zM556 203q0 -45 -16 -81t-44 -62t-68 -42t-88 -21v-111h-82v108q-72 2 -126 24t-102 70l72 71q36 -36 76 -51t89 -17v222 l-26 3q-43 5 -77 21t-57 36q-53 50 -53 136t54 142t150 65v90h82v-89q60 -4 105 -23t86 -57l-69 -68q-26 25 -60 38t-71 16v-216l34 -5q50 -8 80 -20t53 -33q30 -26 44 -63t14 -83z"/>
<glyph glyph-name="percent" horiz-adv-x="842" unicode="%" d="M261 484v95q1 34 -15 53t-48 19q-32 -1 -48 -19t-15 -53v-95q0 -71 63 -71q32 1 48 19t15 52zM707 133v95q1 34 -15 53t-48 19t-48 -18t-15 -54v-95q-1 -35 15 -53t48 -19q32 0 48 19t15 53zM338 481q0 -31 -11 -57t-30 -44t-45 -26q-26 -9 -54 -9t-54 9q-26 8 -45 26 t-30 44t-11 57v101q0 32 11 58t30 42q19 18 45 28t54 9q28 1 54 -9t45 -28t30 -42q11 -26 11 -58v-101zM629 712l-335 -712h-82l336 712h81zM784 130q0 -32 -11 -58t-30 -42q-19 -18 -45 -28t-54 -9q-28 -1 -54 9t-45 28t-30 42q-11 26 -11 58v101q0 31 11 57t30 44t45 26 q26 10 54 10t54 -10t45 -26q19 -18 30 -44t11 -57v-101z"/>
<glyph glyph-name="ampersand" horiz-adv-x="730" unicode="&amp;" d="M434 142l-169 201q-20 -13 -37 -27q-16 -14 -30 -30t-22 -34q-8 -19 -7 -44q1 -54 37 -88t92 -33q36 -1 68 11t68 44zM380 558q0 30 -20 50t-51 21q-33 0 -51 -20t-19 -50q0 -22 14 -44t41 -54q6 3 14 9t14 10l6 4q20 14 36 32t16 42zM684 0h-131l-58 70q-12 -10 -29 -23 t-41 -25q-23 -12 -55 -20t-72 -8q-112 0 -171 58t-59 154q0 36 12 66t32 54t46 44t51 37q-12 15 -25 31t-24 35t-18 41t-7 46q1 34 13 63t34 50t55 33q32 12 72 12q38 0 69 -12q32 -12 54 -34t34 -50q12 -29 12 -63q0 -43 -21 -73t-55 -53q-2 -1 -10 -7t-21 -14 q-13 -9 -21 -15l150 -179q20 28 28 61t10 82h98q-2 -69 -18 -123t-53 -96z"/>
<glyph glyph-name="quotesingle" horiz-adv-x="257" unicode="&apos;" d="M179 521h-101v191h101v-191z"/>
<glyph glyph-name="parenleft" horiz-adv-x="317" unicode="(" d="M259 -25l-69 -69q-24 24 -45 46t-36 49q-15 28 -19 57t-4 59v478q0 30 4 59t19 57q15 27 36 49t45 46l69 -69l-31 -31t-25 -35q-15 -29 -15 -82v-466q0 -54 15 -82q11 -21 25 -35z"/>
<glyph glyph-name="parenright" horiz-adv-x="317" unicode=")" d="M232 117q0 -30 -4 -59t-20 -57q-16 -27 -36 -49t-44 -46l-70 70q18 18 31 32t24 34q15 28 15 81v466q0 52 -15 81q-11 20 -24 34t-31 32l70 70q24 -24 44 -46t36 -49q16 -28 20 -57t4 -59v-478z"/>
<glyph glyph-name="asterisk" horiz-adv-x="485" unicode="*" d="M424 466l-37 -65l-111 69l4 -131h-75l4 131l-111 -69l-37 65l115 61l-115 62l37 65l111 -69l-4 130h75l-4 -130l111 69l37 -65l-115 -62z"/>
<glyph glyph-name="plus" horiz-adv-x="533" unicode="+" d="M482 225h-168v-168h-95v168h-168v95h168v167h95v-167h168v-95z"/>
<glyph glyph-name="comma" horiz-adv-x="272" unicode="," d="M194 -60l-116 -95v271h116v-176z"/>
<glyph glyph-name="hyphen" horiz-adv-x="426" unicode="-" d="M359 230h-292v95h292v-95z"/>
<glyph glyph-name="period" horiz-adv-x="284" unicode="." d="M215 70q1 -30 -21 -52t-52 -21q-30 -1 -52 21t-21 52q-1 30 21 51t52 21t52 -21t21 -51z"/>
<glyph glyph-name="slash" horiz-adv-x="380" unicode="/" d="M383 786l-285 -860h-98l285 860h98z"/>
<glyph glyph-name="zero" horiz-adv-x="534" unicode="0" d="M371 201v195q1 52 -27 84t-77 32t-77 -32t-27 -84v-195q-1 -52 27 -84t77 -32t77 32t27 84zM473 198q-1 -48 -17 -86t-44 -64t-66 -40t-79 -14t-79 14t-66 40t-44 64t-17 86v201q1 47 17 85t44 64t66 41q38 14 79 14t79 -14q38 -15 66 -41t44 -64t17 -85v-201z"/>
<glyph glyph-name="one" horiz-adv-x="407" unicode="1" d="M294 0h-102v486l-140 -122v113l140 120h102v-597z"/>
<glyph glyph-name="two" horiz-adv-x="528" unicode="2" d="M471 0h-429v91l242 220q32 29 50 59t19 62q-1 44 -29 72t-74 28q-21 0 -40 -7q-20 -7 -34 -20t-22 -33t-9 -45h-102q0 44 16 80t44 62q27 26 65 40t82 14t82 -14q38 -13 66 -39t42 -60q15 -34 15 -77q-1 -28 -9 -52q-8 -25 -23 -47t-35 -44t-43 -43l-165 -156h291v-91z "/>
<glyph glyph-name="three" horiz-adv-x="526" unicode="3" d="M472 85q0 -51 -18 -90t-46 -65q-30 -26 -70 -39t-84 -13q-43 0 -82 12t-69 36q-31 24 -49 62t-19 89h102q1 -29 11 -49t27 -34t37 -19q20 -6 42 -6q50 1 83 31t33 87q0 53 -30 85t-90 32h-17v89h17q56 0 82 30t26 79q0 54 -30 82t-75 28q-47 0 -75 -27t-32 -75h-102 q2 45 19 81t45 61t65 38t80 13q45 -1 83 -15t66 -40t42 -64q16 -36 16 -80q0 -56 -23 -94t-65 -58q46 -20 73 -60t27 -107z"/>
<glyph glyph-name="four" horiz-adv-x="566" unicode="4" d="M526 30h-85v-153h-98v153h-305v95l253 510h109l-253 -510h196v176h98v-176h85v-95z"/>
<glyph glyph-name="five" horiz-adv-x="535" unicode="5" d="M477 123q-1 -57 -11 -103t-49 -86q-24 -24 -61 -40t-89 -16q-51 0 -89 16t-62 39q-28 29 -40 63t-15 73h102q6 -47 31 -73t73 -26q47 0 75 28q23 23 28 56t5 69q-1 32 -5 59t-16 47q-12 19 -31 31q-20 12 -51 12q-44 0 -69 -19t-33 -45h-92v389h383v-91h-291v-188 q18 19 48 30t69 11q42 0 74 -12t54 -34q21 -20 33 -43t18 -47q6 -23 9 -49q2 -26 2 -51z"/>
<glyph glyph-name="six" horiz-adv-x="538" unicode="6" d="M390 220q0 28 -8 54t-24 44t-38 30q-22 11 -51 11q-53 1 -87 -37t-34 -102t34 -101t87 -37t87 37t34 101zM492 223q0 -53 -16 -95t-46 -72t-71 -46t-90 -16t-90 16t-71 44t-46 70t-16 94q0 54 15 102t46 102l171 306h109l-175 -303q19 9 38 13t44 4q42 0 78 -15t64 -43 q26 -28 41 -70q15 -40 15 -91z"/>
<glyph glyph-name="seven" horiz-adv-x="528" unicode="7" d="M493 506l-276 -626h-109l276 626h-241v-112h-98v203h448v-91z"/>
<glyph glyph-name="eight" horiz-adv-x="549" unicode="8" d="M392 203q0 25 -9 47t-25 37t-38 25t-46 10t-46 -10t-38 -25t-24 -37q-9 -22 -9 -47t9 -47q8 -22 24 -37q16 -16 38 -25t46 -9t46 9t38 25q16 15 25 37t9 47zM380 518q0 47 -30 78t-76 31t-76 -31t-30 -78q0 -48 30 -78t76 -30t76 30t30 78zM494 201q0 -49 -17 -87 t-47 -65t-70 -41t-86 -14t-86 14t-70 41t-46 65q-17 38 -17 87q1 32 9 58q8 27 22 47t30 36q18 16 37 26q-35 20 -61 58t-26 95q0 45 16 81t44 62t66 40t82 14q43 0 81 -14q39 -14 67 -40t44 -62t16 -81q0 -57 -26 -95t-60 -58q18 -10 36 -26t32 -36t22 -47q8 -26 8 -58z "/>
<glyph glyph-name="nine" horiz-adv-x="538" unicode="9" d="M390 377q0 64 -34 101t-87 37t-87 -37t-34 -101q0 -29 8 -55t24 -44q16 -20 38 -30t51 -10q53 0 87 38t34 101zM492 379q0 -53 -14 -101t-46 -103l-172 -306h-109l175 303q-20 -10 -38 -14t-43 -3q-43 0 -79 15q-36 16 -63 44t-42 68t-15 92t16 94t46 73q30 30 71 46 t90 16q49 1 90 -15t71 -44t46 -71q16 -42 16 -94z"/>
<glyph glyph-name="colon" horiz-adv-x="310" unicode=":" d="M240 70q0 -30 -21 -52t-51 -21q-30 -1 -52 21t-21 52q-1 30 21 51t52 21t51 -21t21 -51zM240 347q0 -29 -21 -51t-51 -22t-52 22t-21 51q-1 29 21 51t52 22t51 -22t21 -51z"/>
<glyph glyph-name="semicolon" horiz-adv-x="303" unicode=";" d="M226 -60l-116 -95v271h116v-176zM240 347q0 -29 -21 -51t-51 -22t-52 22t-21 51q-1 29 21 51t52 22t51 -22t21 -51z"/>
<glyph glyph-name="less" horiz-adv-x="1027" unicode="&lt;" d="M905 209l-391 -392l-392 392v130l343 -345v745h97v-745l343 345v-130z"/>
<glyph glyph-name="equal" horiz-adv-x="533" unicode="=" d="M482 133h-431v95h431v-95zM482 327h-431v95h431v-95z"/>
<glyph glyph-name="greater" horiz-adv-x="1027" unicode="&gt;" d="M906 217l-344 345v-745h-96v745l-344 -345v130l392 392l392 -392v-130z"/>
<glyph glyph-name="question" horiz-adv-x="511" unicode="?" d="M340 62q0 -27 -19 -46t-46 -19t-45 19t-19 46q1 27 19 46t45 19t46 -19t19 -46zM470 527q0 -35 -14 -65t-34 -58l-77 -108q-8 -10 -13 -26t-5 -28v-30h-102v35q0 31 8 53t26 46l78 105q15 19 23 37t8 39q0 42 -27 71t-71 29q-47 0 -72 -30t-25 -71h-102q0 42 15 78t42 60 q28 26 64 40t78 14t78 -14t63 -38t43 -60t16 -79z"/>
<glyph glyph-name="at" horiz-adv-x="736" unicode="@" d="M574 234q0 32 -4 60t-16 50q-12 21 -31 33q-20 12 -51 12q-32 0 -52 -12t-30 -33q-11 -22 -15 -50t-4 -60t4 -60t15 -49q10 -21 30 -33t52 -12q31 0 51 12q19 12 31 33t16 49t4 60zM672 -2l-96 2v50q-24 -29 -54 -43t-73 -14q-41 0 -75 15t-56 41q-14 17 -23 35t-14 40 t-7 49t-1 61q0 66 8 109t35 75q22 26 56 42t76 15q42 0 72 -14t54 -42v61q0 34 -8 60t-29 48q-20 20 -47 28t-59 9h-126q-32 0 -58 -8t-47 -29q-23 -24 -30 -48t-7 -60v-312q1 -20 3 -36t8 -28t14 -24q10 -10 25 -22l-70 -70q-22 18 -37 35q-14 17 -24 37t-14 45t-4 58v318 q0 57 14 100t45 75q33 32 75 46t97 13h146q55 1 97 -13t74 -46t46 -75t14 -100v-483z"/>
<glyph glyph-name="A" horiz-adv-x="625" unicode="A" d="M423 235l-108 316l-111 -316h219zM617 0h-115l-49 143h-281l-49 -143h-115l261 712h87z"/>
<glyph glyph-name="B" horiz-adv-x="663" unicode="B" d="M488 206q0 48 -30 78t-87 30h-170v-217h170q57 1 87 31t30 78zM477 513q0 50 -32 76t-84 26h-160v-204h160q52 0 84 26t32 76zM596 201q0 -49 -16 -87t-44 -62q-28 -26 -68 -39t-87 -13h-288v712h277q100 0 158 -52t57 -143q-1 -29 -9 -53t-22 -44t-30 -34 q-17 -14 -35 -20q21 -8 40 -22t34 -35q15 -20 24 -47t9 -61z"/>
<glyph glyph-name="C" horiz-adv-x="574" unicode="C" d="M522 78q-40 -40 -86 -62t-113 -22q-56 0 -103 20t-84 56q-26 26 -40 55t-20 63t-8 76q-1 42 -1 92t1 92q2 42 8 76t20 63t40 55q37 36 84 56t103 20q67 0 113 -22t86 -62l-72 -73q-28 28 -56 44t-71 16q-32 1 -59 -11t-46 -32q-14 -14 -22 -30t-12 -42q-4 -24 -6 -60 t-2 -90t2 -90t6 -60t12 -42q8 -16 22 -30q19 -20 46 -32t59 -11q43 0 71 16t56 44z"/>
<glyph glyph-name="D" horiz-adv-x="666" unicode="D" d="M491 361q0 75 -5 125t-33 81q-44 48 -121 48h-131v-518h131q77 0 121 48q28 31 33 87t5 129zM599 361q-1 -39 -1 -79t-6 -78t-21 -73t-44 -64q-34 -35 -81 -51t-103 -16h-250v712h250q56 0 103 -16t81 -51q29 -29 44 -63t21 -70t6 -74t1 -77z"/>
<glyph glyph-name="E" horiz-adv-x="603" unicode="E" d="M548 0h-455v712h455v-97h-347v-208h296v-96h-296v-214h347v-97z"/>
<glyph glyph-name="F" horiz-adv-x="585" unicode="F" d="M548 615h-347v-217h296v-97h-296v-301h-108v712h455v-97z"/>
<glyph glyph-name="G" horiz-adv-x="641" unicode="G" d="M580 278q0 -68 -14 -116t-49 -86q-39 -40 -87 -61t-107 -21q-56 0 -103 20t-84 56q-26 26 -40 55t-20 63t-8 76q-1 42 -1 92t1 92q2 42 8 76t20 63t40 55q38 36 84 56t103 20q35 0 65 -6t55 -17t48 -29t47 -42l-73 -73q-17 17 -32 30t-31 22t-36 13q-19 4 -43 5 q-31 0 -59 -12t-47 -32q-13 -15 -21 -31t-14 -40q-4 -24 -6 -60t-1 -90q-1 -54 1 -90t6 -60t14 -42q8 -16 21 -30q19 -20 47 -32t59 -11q35 0 64 13t50 37q19 22 27 51t8 62v39h-149v92h257v-107z"/>
<glyph glyph-name="H" horiz-adv-x="691" unicode="H" d="M598 0h-108v311h-289v-311h-108v712h108v-304h289v304h108v-712z"/>
<glyph glyph-name="I" horiz-adv-x="294" unicode="I" d="M201 0h-108v712h108v-712z"/>
<glyph glyph-name="J" horiz-adv-x="506" unicode="J" d="M423 225q-1 -56 -19 -99t-50 -72q-32 -28 -76 -44q-43 -16 -92 -16q-56 0 -96 16t-77 53l72 71q19 -19 41 -31t60 -12q60 0 94 36t35 106v479h108v-487z"/>
<glyph glyph-name="K" horiz-adv-x="658" unicode="K" d="M648 0h-127l-200 351l-120 -144v-207h-108v712h108v-358l291 358h132l-231 -279z"/>
<glyph glyph-name="L" horiz-adv-x="574" unicode="L" d="M544 0h-451v712h108v-615h343v-97z"/>
<glyph glyph-name="M" horiz-adv-x="813" unicode="M" d="M721 0h-108v476l-164 -347h-80l-168 347v-476h-108v712h108l208 -443l204 443h108v-712z"/>
<glyph glyph-name="N" horiz-adv-x="722" unicode="N" d="M629 0h-99l-329 501v-501h-108v712h99l329 -500v500h108v-712z"/>
<glyph glyph-name="O" horiz-adv-x="646" unicode="O" d="M471 356q0 54 -1.5 89.5t-6 60t-13 41t-21.5 30.5q-19 20 -46.5 32t-59.5 12t-59.5 -12t-46.5 -32q-13 -14 -21.5 -30.5t-13 -41t-6 -60t-1.5 -89.5t1.5 -89.5t6 -60t13 -41t21.5 -30.5q19 -20 46.5 -32t59.5 -12t59.5 12t46.5 32q13 14 21.5 30.5t13 41t6 60t1.5 89.5z M579 356q0 -51 -1 -92.5t-7 -75.5t-20 -63t-40 -55q-37 -37 -84 -56.5t-104 -19.5t-103.5 19.5t-83.5 56.5q-26 26 -40 55t-20.5 63t-7.5 75.5t-1 92.5t1 92.5t7.5 75.5t20.5 63t40 55q37 37 83.5 56.5t103.5 19.5t104 -19.5t84 -56.5q26 -26 40 -55t20 -63t7 -75.5t1 -92.5 z"/>
<glyph glyph-name="P" horiz-adv-x="629" unicode="P" d="M483 496q-1 57 -35 88t-91 31h-156v-237h156q57 0 91 30t35 88zM591 496q0 -46 -16 -86t-46 -68t-72 -46q-42 -16 -94 -16h-162v-280h-108v712h270q52 0 94 -16t72 -46q30 -28 46 -68t16 -86z"/>
<glyph glyph-name="Q" horiz-adv-x="646" unicode="Q" d="M471 356q1 54 -1 90t-6 60t-14 40q-8 16 -21 31q-19 20 -47 32t-59 12t-59 -12t-47 -32q-13 -15 -21 -31t-14 -40q-4 -24 -6 -60t-1 -90q-1 -54 1 -90t6 -60t14 -40q8 -16 21 -31q19 -20 47 -32t59 -12q41 0 73 23l-75 75l60 60l69 -69q14 27 18 67t3 109zM603 28 l-60 -60l-71 71q-31 -21 -69 -33t-80 -12q-57 0 -103 20t-84 56q-26 26 -40 55t-20 63t-8 76q-1 42 -1 92t1 92q2 42 8 76t20 63t40 55q38 36 84 56t103 20t104 -20t84 -56q26 -26 40 -55t20 -63t7 -76t1 -92q-1 -44 -1 -82t-4 -69t-14 -57q-9 -26 -27 -51z"/>
<glyph glyph-name="R" horiz-adv-x="655" unicode="R" d="M482 503q0 53 -34 83t-87 29h-160v-223h160q53 0 87 29t34 82zM612 0h-126l-150 300h-135v-300h-108v712h276q51 0 91 -16t70 -42q28 -28 44 -66t16 -84q0 -76 -41 -124t-101 -65z"/>
<glyph glyph-name="S" horiz-adv-x="590" unicode="S" d="M538 203q0 -49 -19 -88t-53 -66t-81 -41t-103 -14q-81 0 -141 21t-111 73l72 71q39 -39 83 -53.5t99 -14.5q70 0 108.5 28.5t38.5 80.5q0 49 -28 74q-14 13 -30 19t-48 11l-84 12q-87 12 -135 57q-52 49 -52 136q0 46 16.5 84.5t47 66.5t74.5 43t100 15q71 0 123 -19 t98 -62l-69 -68q-33 32 -71.5 43.5t-83.5 11.5q-63 0 -96.5 -31.5t-33.5 -79.5q0 -20 6.5 -36.5t20.5 -29.5q28 -25 80 -33l81 -12q50 -8 80 -20.5t53 -32.5q29 -26 43.5 -63t14.5 -83z"/>
<glyph glyph-name="T" horiz-adv-x="560" unicode="T" d="M530 615h-196v-615h-108v615h-196v97h500v-97z"/>
<glyph glyph-name="U" horiz-adv-x="675" unicode="U" d="M593 240q0 -55 -19.5 -100.5t-54 -77.5t-81.5 -50t-101 -18t-101 18t-81 50t-53.5 77.5t-19.5 100.5v472h108v-467q0 -72 40 -113t107 -41t107.5 41t40.5 113v467h108v-472z"/>
<glyph glyph-name="V" horiz-adv-x="564" unicode="V" d="M559 712l-236 -712h-84l-234 712h112l164 -518l164 518h114z"/>
<glyph glyph-name="W" horiz-adv-x="871" unicode="W" d="M860 712l-186 -712h-94l-145 499l-144 -499h-94l-186 712h114l124 -509l143 509h87l143 -509l124 509h114z"/>
<glyph glyph-name="X" horiz-adv-x="578" unicode="X" d="M568 0h-125l-155 273l-154 -273h-124l220 365l-206 347h124l140 -255l141 255h124l-206 -347z"/>
<glyph glyph-name="Y" horiz-adv-x="544" unicode="Y" d="M539 712l-213 -419v-293h-108v293l-213 419h118l149 -313l149 313h118z"/>
<glyph glyph-name="Z" horiz-adv-x="552" unicode="Z" d="M504 0h-456v93l329 522h-315v97h442v-88l-331 -527h331v-97z"/>
<glyph glyph-name="bracketleft" horiz-adv-x="347" unicode="[" d="M304 -74h-218v860h218v-91h-116v-678h116v-91z"/>
<glyph glyph-name="backslash" horiz-adv-x="380" unicode="\" d="M380 -74h-98l-282 852h98z"/>
<glyph glyph-name="bracketright" horiz-adv-x="347" unicode="]" d="M261 -74h-218v90h118v680h-118v90h218v-860z"/>
<glyph glyph-name="asciicircum" horiz-adv-x="571" unicode="^" d="M503 401h-106l-112 207l-112 -207h-106l172 318h93z"/>
<glyph glyph-name="underscore" horiz-adv-x="571" unicode="_" d="M571 -172h-571v70h571v-70z"/>
<glyph glyph-name="grave" horiz-adv-x="500" unicode="`" d="M302 599h-77l-111 162h113z"/>
<glyph glyph-name="a" horiz-adv-x="530" unicode="a" d="M352 183v41h-119q-45 0 -68 -19t-23 -54t22.5 -53.5t70.5 -18.5q29 0 52 4.5t43 24.5q22 22 22 75zM454 0h-100v46q-28 -28 -58 -40t-77 -12q-48 0 -80.5 11.5t-55.5 34.5q-40 42 -40 109q0 64 43.5 105t131.5 41h134v36q0 48 -25.5 71.5t-85.5 23.5q-42 0 -66 -11 t-45 -38l-67 63q36 42 77.5 57.5t104.5 15.5q209 0 209 -174v-339z"/>
<glyph glyph-name="b" horiz-adv-x="553" unicode="b" d="M394 254q0 34 -4 64t-14 54q-11 22 -32 36t-55 14q-35 0 -55 -14t-32 -36q-12 -24 -16 -54t-3 -64q-1 -34 3 -64t16 -54t32 -38t55 -13q34 -1 55 13t32 38q10 24 14 54t4 64zM496 254q0 -29 -2 -59q-2 -31 -7 -59t-17 -53t-31 -44q-21 -21 -53 -33t-71 -12q-41 0 -73 12 t-61 48v-54h-100v712h102v-256q28 33 60 45t73 12q38 0 70 -12t53 -33q19 -19 31 -44t17 -53t7 -58t2 -59z"/>
<glyph glyph-name="c" horiz-adv-x="485" unicode="c" d="M448 66q-36 -38 -75 -55t-92 -17q-43 0 -83 14t-72 45t-52 81t-19 120q-1 70 19 120t52 80t72 45q40 14 83 14q53 -1 92 -17t75 -54l-70 -68q-24 26 -46 37t-51 11q-60 0 -94 -45q-17 -21 -23 -49t-7 -74q1 -45 7 -74t23 -50q34 -45 94 -45q29 0 51 11t46 37z"/>
<glyph glyph-name="d" horiz-adv-x="553" unicode="d" d="M370 254q0 34 -4 64t-14 54q-11 22 -32 36t-55 14q-35 0 -55 -14t-32 -36q-12 -24 -16 -54t-3 -64q-1 -34 3 -64t16 -54t32 -38t55 -13q34 -1 55 13t32 38q10 24 14 54t4 64zM472 0h-100v54q-28 -36 -60 -48t-74 -12q-38 0 -70 12t-54 33q-18 19 -30 44t-18 53t-8 59 q-2 30 -1 59q-1 29 1 59t8 58t18 53t30 44q21 21 53 33t70 12q41 0 73 -12t60 -45v256h102v-712z"/>
<glyph glyph-name="e" horiz-adv-x="539" unicode="e" d="M384 295q-1 23 -3.5 37.5t-10.5 31.5q-12 29 -38 46.5t-62 17.5t-62.5 -17.5t-38.5 -46.5q-8 -17 -10 -31.5t-3 -37.5h228zM485 224h-329q0 -66 33 -104t96 -38q43 0 69.5 12.5t53.5 39.5l65 -61q-20 -20 -39.5 -34.5t-42 -24.5t-49 -15t-59.5 -5q-48 0 -89.5 13.5 t-72 44t-48.5 80.5t-18 122q0 124 58.5 191.5t156.5 67.5q51 0 91 -18t67.5 -50t42 -77t14.5 -99v-45z"/>
<glyph glyph-name="f" horiz-adv-x="328" unicode="f" d="M300 420h-101v-420h-102v420h-58v78h58v78q1 26 9 52t25 46t43 31q26 12 62 12h64v-87h-45q-29 0 -43 -16t-13 -43v-73h101v-78z"/>
<glyph glyph-name="g" horiz-adv-x="549" unicode="g" d="M366 263q0 31 -3 59t-14 50t-31 36t-55 14t-55 -14t-32 -36q-10 -22 -14 -50t-3 -59q-1 -31 3 -59t14 -50t32 -36q20 -14 55 -14t55 14t31 36t14 50t3 59zM468 3q0 -47 -15 -86t-43 -67t-68 -45q-40 -16 -91 -16q-59 0 -99 15t-80 52l65 65q24 -23 48 -34t62 -11 q33 0 55 10t36 29q14 18 22 41q6 23 6 49v65q-28 -34 -60 -46t-71 -12q-38 0 -69 12t-52 33q-37 37 -47 89t-10 117t10 117t47 89q44 44 122 44q40 -1 72 -13t61 -47v54h99v-504z"/>
<glyph glyph-name="h" horiz-adv-x="566" unicode="h" d="M490 0h-102v311q0 59 -30 85t-72 26q-43 0 -73 -27t-30 -84v-311h-102v712h102v-256q25 29 59 43t72 14q42 1 75 -13t55 -38t34 -60q12 -34 12 -75v-327z"/>
<glyph glyph-name="i" horiz-adv-x="264" unicode="i" d="M183 0h-102v507h102v-507zM198 672q0 -26 -20 -46t-46 -20t-46 20t-20 46t20 46t46 20t46 -20t20 -46z"/>
<glyph glyph-name="j" horiz-adv-x="264" unicode="j" d="M183 -67q0 -27 -8 -53t-25 -45q-18 -19 -44 -31t-62 -11h-63v87h45q31 0 43 15t12 44v568h102v-574zM198 672q0 -26 -20 -46t-46 -20t-46 20t-20 46t20 46t46 20t46 -20t20 -46z"/>
<glyph glyph-name="k" horiz-adv-x="548" unicode="k" d="M526 0h-126l-142 234l-75 -85v-149h-102v712h102v-439l197 234h124l-176 -199z"/>
<glyph glyph-name="l" horiz-adv-x="311" unicode="l" d="M280 0h-63q-36 0 -62 12q-25 12 -43 30t-26 44t-8 54v572h102v-566q0 -29 12 -44t43 -15h45v-87z"/>
<glyph glyph-name="m" horiz-adv-x="877" unicode="m" d="M801 0h-102v309q1 59 -29 86t-73 27q-21 0 -40 -6t-33 -20t-24 -34q-8 -20 -8 -48v-314h-102v309q0 59 -30 86t-72 27q-43 0 -74 -28t-31 -85v-309h-102v507h100v-51q25 28 61 42t74 15q96 0 144 -74q61 74 159 74q39 0 72 -12t56 -34q29 -29 41 -65t13 -78v-324z"/>
<glyph glyph-name="n" horiz-adv-x="568" unicode="n" d="M492 0h-102v309q0 59 -29.5 86t-72.5 27t-74 -27.5t-31 -85.5v-309h-102v507h100v-51q26 29 61.5 43t73.5 14q39 0 70.5 -12t54.5 -34q29 -29 40 -64.5t11 -78.5v-324z"/>
<glyph glyph-name="o" d="M378 254q0 42 -6 79t-29 60q-29 29 -75 29q-45 0 -74 -29q-23 -23 -29 -60t-6 -79t6 -79t29 -60q30 -30 74 -30q45 0 75 30q23 23 29 60t6 79zM480 254q0 -65 -12 -113.5t-48 -86.5q-25 -26 -62.5 -43t-89.5 -17t-89 17t-62 43q-36 38 -48 86.5t-12 113.5q0 64 12 112.5 t48 86.5q25 26 62 43t89 17t89.5 -17t62.5 -43q36 -38 48 -86.5t12 -112.5z" unicode="o"/>
<glyph glyph-name="p" horiz-adv-x="553" unicode="p" d="M394 254q0 34 -4 64t-14 54q-11 22 -32 36t-55 14q-35 0 -55 -14t-32 -36q-12 -24 -16 -54t-3 -64q-1 -34 3 -64t16 -54t32 -38t55 -13q34 -1 55 13t32 38q10 24 14 54t4 64zM496 254q0 -29 -2 -59q-2 -31 -7 -59t-17 -53t-31 -44q-21 -21 -53 -33t-70 -12q-41 0 -73 12 t-60 46v-257h-102v712h100v-54q29 35 61 47t73 13q39 0 71 -12t53 -33q19 -19 31 -44t17 -53t7 -58t2 -59z"/>
<glyph glyph-name="q" horiz-adv-x="553" unicode="q" d="M370 254q0 34 -4 64t-14 54q-11 22 -32 36t-55 14q-35 0 -55 -14t-32 -36q-12 -24 -16 -54t-3 -64q-1 -34 3 -64t16 -54t32 -38t55 -13q34 -1 55 13t32 38q10 24 14 54t4 64zM472 -205h-102v257q-28 -34 -60 -46t-73 -12q-38 0 -70 12t-53 33q-18 19 -30 44t-18 53t-8 59 q-2 30 -1 59q-1 29 1 59t8 58t18 53t30 44q22 21 54 33t70 12q42 -1 74 -13t60 -47v54h100v-712z"/>
<glyph glyph-name="r" horiz-adv-x="439" unicode="r" d="M437 465l-77 -77q-18 18 -34 26t-42 8q-42 0 -72 -30t-29 -84v-308h-102v507h100v-55q20 27 56 44t79 17q37 0 66 -11t55 -37z"/>
<glyph glyph-name="s" horiz-adv-x="499" unicode="s" d="M456 155q0 -40 -16 -70t-44 -50.5t-67 -30.5t-84 -10q-62 0 -115 14.5t-98 58.5l67 67q31 -32 69.5 -42.5t76.5 -10.5q47 0 79 17t32 53q0 26 -15.5 41.5t-52.5 18.5l-81 7q-72 6 -111 39.5t-39 100.5q0 37 15 66t41 48.5t60.5 30t74.5 10.5q57 0 105 -13t83 -44l-64 -65 q-24 20 -56.5 28.5t-68.5 8.5q-46 0 -69 -18t-23 -47q0 -23 14.5 -38.5t55.5 -19.5l80 -7q72 -6 111.5 -40.5t39.5 -102.5z"/>
<glyph glyph-name="t" horiz-adv-x="342" unicode="t" d="M293 0h-61q-36 0 -62 12t-43 32t-25 44q-8 26 -9 53v279h-58v78h58v154h102v-154h98v-78h-98v-274q-1 -28 13 -44t43 -15h42v-87z"/>
<glyph glyph-name="u" horiz-adv-x="568" unicode="u" d="M487 0h-100v51q-26 -29 -61.5 -43t-73.5 -14q-39 0 -70.5 12t-54.5 34q-29 29 -40 64.5t-11 78.5v324h102v-309q0 -59 29.5 -86t72.5 -27q21 0 40.5 6.5t33.5 20.5t22.5 35.5t8.5 50.5v309h102v-507z"/>
<glyph glyph-name="v" horiz-adv-x="471" unicode="v" d="M463 507l-186 -507h-83l-186 507h108l120 -357l119 357h108z"/>
<glyph glyph-name="w" horiz-adv-x="743" unicode="w" d="M735 507l-158 -507h-87l-119 354l-118 -354h-88l-157 507h108l98 -357l118 357h79l117 -357l98 357h109z"/>
<glyph glyph-name="x" horiz-adv-x="503" unicode="x" d="M481 0h-123l-106 173l-107 -173h-123l174 259l-167 248h123l100 -165l99 165h123l-166 -248z"/>
<glyph glyph-name="y" horiz-adv-x="468" unicode="y" d="M464 507l-224 -608q-14 -40 -37 -63q-21 -21 -48 -29t-56 -8h-41v92h26q32 0 47 11.5t26 42.5l28 79l-177 483h108l121 -357l118 357h109z"/>
<glyph glyph-name="z" horiz-adv-x="469" unicode="z" d="M421 0h-378v81l252 335h-238v91h364v-81l-254 -335h254v-91z"/>
<glyph glyph-name="braceleft" horiz-adv-x="407" unicode="{" d="M362 -74h-71q-38 0 -64 8t-43 26q-20 20 -28 44t-8 61v167q0 42 -18 60q-8 8 -20 14t-28 5h-37v90h37q16 -1 28 5t20 14q18 18 18 60v167q0 37 8 61t28 44q17 18 43 26t64 8h71v-91h-39q-24 0 -37 -3t-21 -11q-7 -8 -11 -23t-4 -41v-161q0 -24 -6 -41t-15 -28t-21 -19 t-24 -12q12 -4 24 -12t21 -19t15 -28t6 -41v-161q0 -26 4 -41t11 -23q8 -8 21 -11t37 -3h39v-91z"/>
<glyph glyph-name="bar" horiz-adv-x="338" unicode="|" d="M220 -74h-102v860h102v-860z"/>
<glyph glyph-name="braceright" horiz-adv-x="407" unicode="}" d="M362 311h-36q-17 1 -29 -5t-20 -14q-18 -18 -18 -60v-167q0 -37 -8 -61t-28 -44q-17 -18 -43 -26t-64 -8h-71v91h39q24 0 37 3t21 11t12 23t3 41v161q0 24 6 41q5 17 15 28t22 19t24 12q-12 4 -24 12t-22 19t-15 28q-6 17 -6 41v161q1 26 -3 41t-12 23t-21 11t-37 3h-39 v91h71q38 0 64 -8t43 -26q20 -20 28 -44t8 -61v-167q0 -42 18 -60q8 -8 20 -14t29 -5h36v-90z"/>
<glyph glyph-name="asciitilde" horiz-adv-x="574" unicode="~" d="M531 280q-23 -22 -41 -37t-36 -24t-34 -13q-17 -4 -37 -4q-29 0 -55 9t-57 24q-21 11 -39 17t-40 7q-21 0 -39 -8t-46 -36l-64 64q23 22 41 37t35 24t34 13t37 4q28 0 54 -9t57 -24q21 -12 40 -18t40 -6q9 0 19 2t20 6t20 13q12 9 26 23z"/>
<glyph glyph-name="nonbreakingspace" horiz-adv-x="240" unicode=" "/>
<glyph glyph-name="exclamdown" horiz-adv-x="332" unicode="¡" d="M229 -205h-124l23 500h77zM232 445q0 -27 -19 -45t-46 -19q-27 1 -46 19t-19 45t19 46t46 19t46 -19t19 -46z"/>
<glyph glyph-name="cent" horiz-adv-x="498" unicode="¢" d="M247 204v324q-34 -7 -58 -39q-16 -22 -24 -50t-8 -73q-1 -44 7 -72t24 -51q24 -32 59 -39zM459 184q-32 -34 -65 -52t-76 -22v-110h-80v111q-40 7 -74 27t-58 52t-38 76t-13 100q-1 56 13 100t38 76t58 52t74 27v91h80v-90q43 -4 76 -22t65 -52l-68 -66q-21 22 -39 33 t-43 15v-328q25 4 43 15t39 33z"/>
<glyph glyph-name="sterling" horiz-adv-x="564" unicode="£" d="M516 0h-411v313h-62v78h62v96q0 55 19 99t51 72q31 28 75 44t93 16q55 0 95 -16t78 -53l-72 -71q-18 19 -40 31t-61 12q-61 0 -95 -36t-34 -106v-88h129v-78h-129v-216h302v-97z"/>
<glyph glyph-name="currency" horiz-adv-x="665" unicode="¤" d="M468 279q0 29 -10 53t-30 42q-18 18 -43 30q-25 10 -53 10t-53 -10t-43 -30q-18 -18 -30 -42q-10 -24 -10 -53q0 -28 10 -53q10 -26 30 -44q18 -18 43 -28t53 -11q28 1 53 11t43 28t30 44q10 25 10 53zM597 81l-67 -67l-74 74q-26 -18 -58 -28t-66 -10t-66 10t-58 28 l-73 -74l-67 67l73 74q-18 25 -28 57t-10 67t10 67t28 57l-73 73l67 67l73 -73q54 37 124 37t124 -37l74 73l67 -67l-74 -73q18 -25 28 -57t10 -67t-10 -67t-28 -57z"/>
<glyph glyph-name="yen" horiz-adv-x="544" unicode="¥" d="M538 712l-146 -290h87v-78h-127l-26 -51v-52h153v-78h-153v-163h-108v163h-153v78h153v52l-26 51h-127v78h87l-147 290h118l150 -314l148 314h117z"/>
<glyph glyph-name="brokenbar" horiz-adv-x="344" unicode="¦" d="M220 -74h-102v350h102v-350zM220 436h-102v350h102v-350z"/>
<glyph glyph-name="section" horiz-adv-x="543" unicode="§" d="M372 261q0 52 -29 80q-15 13 -31 21t-39 7q-45 0 -71 -28q-14 -15 -21 -33t-7 -47t8 -47t20 -32q26 -28 71 -28q44 0 70 28q13 13 21 31t8 48zM472 264q0 -29 -9 -54q-9 -24 -23 -44t-31 -34t-34 -24q38 -16 63 -50t25 -91q1 -43 -15 -76t-42 -55t-62 -35 q-34 -12 -72 -12q-37 0 -71 10t-61 31t-44 53t-18 76h100q4 -37 28 -58t66 -21q43 0 67 22t24 62q0 27 -18 51t-60 37l-70 21q-69 21 -105 66t-36 120q0 29 8 54t23 45q13 20 31 34t35 23q-37 19 -61 49t-23 85q1 35 13 65t36 54q24 22 58 36t79 14t79 -12t58 -34t37 -52 t14 -67h-98q-3 41 -27 59t-63 17q-42 0 -65 -20t-23 -57q0 -30 20 -50t55 -31l70 -21q70 -20 106 -66t36 -120z"/>
<glyph glyph-name="dieresis" horiz-adv-x="500" unicode="¨" d="M197 657q0 -23 -17 -40t-40 -17t-39.5 17t-16.5 40t16.5 39.5t39.5 16.5t40 -16.5t17 -39.5zM416 657q0 -23 -16.5 -40t-39.5 -17t-40 17t-17 40t17 39.5t40 16.5t39.5 -16.5t16.5 -39.5z"/>
<glyph glyph-name="copyright" horiz-adv-x="862" unicode="©" d="M568 208q-29 -26 -59 -39t-72 -13q-41 0 -74 14t-56 40t-36 63t-13 83t13 83t36 63t56 40t74 14q42 0 72 -13t59 -39l-46 -47q-23 19 -41 27t-44 8q-57 0 -83 -38t-25 -98q-1 -60 25 -98t83 -38q26 0 44 8t41 27zM720 356q0 62 -22 116t-62 93q-39 41 -92 63t-113 22 t-113 -22t-92 -63q-40 -39 -62 -93t-22 -116t22 -116t62 -93q39 -41 92 -63t113 -22t113 22t92 63q40 39 62 93t22 116zM793 356q-1 -75 -29 -141t-77 -115q-49 -50 -115 -78t-141 -28t-141 28t-115 78q-49 49 -77 115t-29 141q1 75 29 141t77 115q49 50 115 78t141 28 t141 -28t115 -78q49 -49 77 -115t29 -141z"/>
<glyph glyph-name="ordfeminine" horiz-adv-x="452" unicode="ª" d="M296 453v32h-93q-35 0 -53 -15t-17 -42t17 -41t54 -14q24 -1 42 3t33 19q17 16 17 58zM379 307h-81v36q-22 -22 -46 -31t-60 -9q-38 1 -64 9t-44 27q-16 17 -24 39t-8 48q0 51 35 84t104 33h105v28q0 38 -20 56t-67 18q-33 -1 -51 -9t-36 -30l-55 52q29 34 62 46t84 12 q166 0 166 -139v-270z"/>
<glyph glyph-name="guillemotleft" horiz-adv-x="592" unicode="«" d="M267 42l-230 230l230 229v-123l-107 -106l107 -107v-123zM520 42l-230 230l230 229v-123l-108 -106l108 -107v-123z"/>
<glyph glyph-name="logicalnot" horiz-adv-x="533" unicode="¬" d="M484 98h-95v141h-341v95h436v-236z"/>
<glyph glyph-name="registered" horiz-adv-x="862" unicode="®" d="M507 432q1 25 -17 42t-47 17h-66v-118h66q29 0 47 17t17 42zM588 161h-81l-80 155h-50v-155h-72v391h147q28 0 51 -10t39 -26t26 -38t10 -46q0 -42 -22 -68t-55 -38zM720 356q0 62 -22 116t-62 94t-92 62q-52 23 -113 23t-114 -23q-53 -22 -92 -62t-61 -94t-23 -116 q1 -62 23 -116t61 -94t92 -62q53 -23 114 -23t113 23q52 22 92 62t62 94t22 116zM793 356q-1 -75 -29 -141t-77 -115q-49 -50 -115 -78t-141 -28t-141 28t-115 78q-49 49 -77 115t-29 141q1 75 29 141t77 115q49 50 115 78t141 28t141 -28t115 -78q49 -49 77 -115t29 -141z "/>
<glyph glyph-name="degree" horiz-adv-x="471" unicode="°" d="M326 549q0 19 -7 36t-19 30t-30 20q-16 7 -35 7q-38 0 -64 -27t-26 -66t26 -65t64 -27q39 1 65 27t26 65zM410 549q0 -35 -14 -67t-38 -56t-55 -38q-32 -14 -68 -13q-35 -1 -67 13t-56 38t-38 56t-13 67q-1 36 13 68q14 31 38 55t56 38t67 14q36 0 68 -14q31 -14 55 -38 t38 -55q14 -32 14 -68z"/>
<glyph glyph-name="plusminus" horiz-adv-x="533" unicode="±" d="M482 0h-431v95h431v-95zM482 316h-168v-169h-95v169h-168v95h168v168h95v-168h168v-95z"/>
<glyph glyph-name="twosuperior" horiz-adv-x="350" unicode="²" d="M305 285h-260v69l161 186q12 14 17 26t5 26q0 25 -14 40t-39 15q-21 1 -37 -11t-16 -44h-77q0 58 37 91t93 33q57 0 93 -33t37 -91q0 -32 -12 -52t-34 -46l-121 -140h167v-69z"/>
<glyph glyph-name="threesuperior" horiz-adv-x="362" unicode="³" d="M317 408q0 -32 -11 -56q-12 -24 -30 -40t-42 -24t-52 -8q-26 0 -50 7t-44 23q-19 16 -31 39q-12 24 -12 57h77q1 -29 19 -43t41 -14q26 0 42 16t16 45q0 28 -16 44t-45 16h-11v66h11q29 0 43 16t13 39q0 28 -16 42t-38 14q-23 1 -37 -13t-17 -39h-76q2 57 39 89t91 32 q28 0 52 -9t41 -25t27 -38t10 -50q0 -34 -14 -56t-36 -33q23 -12 39 -35t17 -62z"/>
<glyph glyph-name="acute" horiz-adv-x="500" unicode="´" d="M386 761l-111 -162h-77l75 162h113z"/>
<glyph glyph-name="mu" horiz-adv-x="569" unicode="µ" d="M487 0h-100v51q-26 -29 -61 -43t-73 -14q-45 0 -75 25v-224h-102v712h102v-309q0 -59 30 -86t73 -27t73 27t31 86v309h102v-507z"/>
<glyph glyph-name="mu" horiz-adv-x="569" unicode="μ" d="M487 0h-100v51q-26 -29 -61 -43t-73 -14q-45 0 -75 25v-224h-102v712h102v-309q0 -59 30 -86t73 -27t73 27t31 86v309h102v-507z"/>
<glyph glyph-name="paragraph" horiz-adv-x="637" unicode="¶" d="M544 -205h-102v820h-108v-820h-102v522q-40 0 -76 16t-62 43q-26 26 -41 62t-15 75q0 45 16 81t45 63t71 41t93 14h281v-917z"/>
<glyph glyph-name="periodcentered" horiz-adv-x="284" unicode="·" d="M215 276q1 -30 -21 -52t-52 -21q-30 -1 -52 21t-21 52q-1 30 21 51t52 21t52 -21t21 -51z"/>
<glyph glyph-name="cedilla" horiz-adv-x="500" unicode="¸" d="M319 -64l-51 -147h-101l70 147h82z"/>
<glyph glyph-name="onesuperior" horiz-adv-x="277" unicode="¹" d="M204 285h-77v341l-87 -76v87l87 75h77v-427z"/>
<glyph glyph-name="ordmasculine" horiz-adv-x="458" unicode="º" d="M314 510q0 32 -4 61t-22 48q-23 23 -59 23q-35 0 -58 -23q-19 -19 -23 -48t-4 -61t4 -62t23 -48q23 -23 58 -23q36 0 59 23q18 18 22 48t4 62zM398 510q0 -52 -10 -90t-38 -69q-20 -20 -50 -34t-71 -14q-42 0 -71 14t-49 34q-29 31 -39 69t-9 90q-1 52 9 90t39 68 q20 20 49 34t71 14q41 0 71 -14t50 -34q28 -30 38 -68t10 -90z"/>
<glyph glyph-name="guillemotright" horiz-adv-x="592" unicode="»" d="M303 272l-231 -230v123l108 107l-108 106v123zM556 272l-231 -230v123l107 107l-107 106v123z"/>
<glyph glyph-name="onequarter" horiz-adv-x="808" unicode="¼" d="M204 285h-77v341l-87 -76v87l87 75h77v-427zM596 712l-335 -712h-81l335 712h81zM768 61h-40v-61h-74v61h-174v71l147 295h83l-147 -295h91v83h74v-83h40v-71z"/>
<glyph glyph-name="onehalf" horiz-adv-x="827" unicode="½" d="M204 285h-77v341l-87 -76v87l87 75h77v-427zM588 712l-335 -712h-81l335 712h81zM782 0h-259v69l160 186q12 13 17 25t5 27q1 25 -13 40t-40 15q-20 0 -36 -12t-17 -43h-76q1 58 37 91t92 33q58 0 94 -33t36 -91q0 -31 -12 -51t-34 -47l-121 -140h167v-69z"/>
<glyph glyph-name="threequarters" horiz-adv-x="844" unicode="¾" d="M317 408q0 -32 -11 -56q-12 -24 -30 -40t-42 -24t-52 -8q-26 0 -50 7t-44 23q-19 16 -31 39q-12 24 -12 57h77q1 -29 19 -43t41 -14q26 0 42 16t16 45q0 28 -16 44t-45 16h-11v66h11q29 0 43 16t13 39q0 28 -16 42t-38 14q-23 1 -37 -13t-17 -39h-76q2 57 39 89t91 32 q28 0 52 -9t41 -25t27 -38t10 -50q0 -34 -14 -56t-36 -33q23 -12 39 -35t17 -62zM638 712l-335 -712h-81l335 712h81zM804 61h-40v-61h-73v61h-174v71l146 295h84l-147 -295h91v83h73v-83h40v-71z"/>
<glyph glyph-name="questiondown" horiz-adv-x="511" unicode="¿" d="M453 -19q0 -41 -15 -77t-42 -62q-28 -26 -64 -39q-36 -14 -78 -14q-41 -1 -77 13t-63 39t-43 61t-16 79q-1 35 13 65t34 58l77 108q8 10 13 26t5 28v30h102v-36q0 -31 -8 -53t-26 -46l-78 -105q-14 -18 -22 -36t-8 -40q1 -42 27 -70t70 -29q47 -1 72 29t25 71h102z M314 445q0 -27 -19 -45t-46 -19q-27 1 -46 19t-19 45t19 46t46 19t46 -19t19 -46z"/>
<glyph glyph-name="Agrave" horiz-adv-x="625" unicode="À" d="M423 235l-108 316l-111 -316h219zM617 0h-115l-49 143h-281l-49 -143h-115l261 712h87zM361 781h-77l-111 162h113z"/>
<glyph glyph-name="Aacute" horiz-adv-x="625" unicode="Á" d="M423 235l-108 316l-111 -316h219zM617 0h-115l-49 143h-281l-49 -143h-115l261 712h87zM445 943l-111 -162h-77l75 162h113z"/>
<glyph glyph-name="Acircumflex" horiz-adv-x="625" unicode="Â" d="M423 235l-108 316l-111 -316h219zM617 0h-115l-49 143h-281l-49 -143h-115l261 712h87zM481 781h-85l-87 97l-87 -97h-85l129 161h86z"/>
<glyph glyph-name="Atilde" horiz-adv-x="625" unicode="Ã" d="M423 235l-108 316l-111 -316h219zM617 0h-115l-49 143h-281l-49 -143h-115l261 712h87zM478 849q-34 -34 -57.5 -44.5t-46.5 -10.5q-22 0 -38.5 6t-36.5 17q-14 8 -27.5 13.5t-28.5 5.5q-13 0 -25 -4.5t-33 -25.5l-48 47q34 34 57 44.5t47 10.5q22 0 38.5 -6t36.5 -18 q15 -9 27.5 -14t27.5 -5q12 0 25.5 5.5t33.5 25.5z"/>
<glyph glyph-name="Adieresis" horiz-adv-x="625" unicode="Ä" d="M423 235l-108 316l-111 -316h219zM617 0h-115l-49 143h-281l-49 -143h-115l261 712h87zM256 839q0 -23 -17 -40t-40 -17t-39.5 17t-16.5 40t16.5 39.5t39.5 16.5t40 -16.5t17 -39.5zM475 839q0 -23 -16.5 -40t-39.5 -17t-40 17t-17 40t17 39.5t40 16.5t39.5 -16.5 t16.5 -39.5z"/>
<glyph glyph-name="Aring" horiz-adv-x="625" unicode="Å" d="M423 235l-108 316l-111 -316h219zM617 0h-115l-49 143h-281l-49 -143h-115l261 712h87zM373 875q0 26 -19 44.5t-45 18.5t-45 -18.5t-19 -44.5t19 -44.5t45 -18.5t45 18.5t19 44.5zM434 875q0 -26 -10 -48.5t-27 -39.5t-39.5 -27t-48.5 -10t-48.5 10t-39.5 27t-27 39.5 t-10 48.5t10 48.5t27 39.5t39.5 27t48.5 10t48.5 -10t39.5 -27t27 -39.5t10 -48.5z"/>
<glyph glyph-name="AE" horiz-adv-x="952" unicode="Æ" d="M442 254v361l-188 -361h188zM897 0h-455v162h-235l-84 -162h-118l374 712h518v-97h-347v-209h296v-97h-296v-212h347v-97z"/>
<glyph glyph-name="Ccedilla" horiz-adv-x="600" unicode="Ç" d="M374 -64l-51 -147h-101l70 147h82zM522 78q-40 -40 -86 -62t-113 -22q-56 0 -103 20t-84 56q-26 26 -40 55t-20 63t-8 76q-1 42 -1 92t1 92q2 42 8 76t20 63t40 55q37 36 84 56t103 20q67 0 113 -22t86 -62l-72 -73q-28 28 -56 44t-71 16q-32 1 -59 -11t-46 -32 q-14 -14 -22 -30t-12 -42q-4 -24 -6 -60t-2 -90t2 -90t6 -60t12 -42q8 -16 22 -30q19 -20 46 -32t59 -11q43 0 71 16t56 44z"/>
<glyph glyph-name="Egrave" horiz-adv-x="603" unicode="È" d="M548 0h-455v712h455v-97h-347v-208h296v-96h-296v-214h347v-97zM363 781h-77l-111 162h113z"/>
<glyph glyph-name="Eacute" horiz-adv-x="603" unicode="É" d="M548 0h-455v712h455v-97h-347v-208h296v-96h-296v-214h347v-97zM447 943l-111 -162h-77l75 162h113z"/>
<glyph glyph-name="Ecircumflex" horiz-adv-x="603" unicode="Ê" d="M548 0h-455v712h455v-97h-347v-208h296v-96h-296v-214h347v-97zM483 781h-85l-87 97l-87 -97h-85l129 161h86z"/>
<glyph glyph-name="Edieresis" horiz-adv-x="603" unicode="Ë" d="M548 0h-455v712h455v-97h-347v-208h296v-96h-296v-214h347v-97zM258 839q0 -23 -17 -40t-40 -17t-39.5 17t-16.5 40t16.5 39.5t39.5 16.5t40 -16.5t17 -39.5zM477 839q0 -23 -16.5 -40t-39.5 -17t-40 17t-17 40t17 39.5t40 16.5t39.5 -16.5t16.5 -39.5z"/>
<glyph glyph-name="Igrave" horiz-adv-x="294" unicode="Ì" d="M201 0h-108v712h108v-712zM282 781h-77l-111 162h113z"/>
<glyph glyph-name="Iacute" horiz-adv-x="294" unicode="Í" d="M201 0h-108v712h108v-712zM282 943l-111 -162h-77l75 162h113z"/>
<glyph glyph-name="Icircumflex" horiz-adv-x="294" unicode="Î" d="M201 0h-108v712h108v-712zM437 781h-85l-87 97l-87 -97h-85l129 161h86z"/>
<glyph glyph-name="Idieresis" horiz-adv-x="294" unicode="Ï" d="M201 0h-108v712h108v-712zM206 839q0 -23 -17 -40t-40 -17t-39.5 17t-16.5 40t16.5 39.5t39.5 16.5t40 -16.5t17 -39.5zM425 839q0 -23 -16.5 -40t-39.5 -17t-40 17t-17 40t17 39.5t40 16.5t39.5 -16.5t16.5 -39.5z"/>
<glyph glyph-name="Eth" horiz-adv-x="684" unicode="Ð" d="M509 353q0 49 -1 81t-4 54q-4 22 -10 37t-16 29q-24 32 -54 47t-75 15h-129v-215h138v-83h-138v-222h129q90 0 133 63q8 13 14 27t8 34t4 52q1 32 1 81zM617 356q0 -56 -1 -94q0 -38 -6 -68t-17 -52q-11 -24 -30 -48q-34 -42 -85 -68t-119 -26h-247v318h-74v83h74v311 h250q127 0 201 -95q20 -27 31 -51t16 -54t6 -66q1 -38 1 -90z"/>
<glyph glyph-name="Ntilde" horiz-adv-x="721" unicode="Ñ" d="M530 849q-34 -35 -58 -45t-46 -10t-38 6t-37 17q-13 7 -27 13t-29 6q-13 0 -25 -4t-33 -26l-48 47q34 35 57 45t47 10q23 0 39 -6t36 -18q16 -9 28 -14t27 -5q11 -1 25 5t34 26zM629 0h-99l-329 501v-501h-108v712h99l329 -500v500h108v-712z"/>
<glyph glyph-name="Ograve" horiz-adv-x="646" unicode="Ò" d="M471 356q0 54 -1.5 89.5t-6 60t-13 41t-21.5 30.5q-19 20 -46.5 32t-59.5 12t-59.5 -12t-46.5 -32q-13 -14 -21.5 -30.5t-13 -41t-6 -60t-1.5 -89.5t1.5 -89.5t6 -60t13 -41t21.5 -30.5q19 -20 46.5 -32t59.5 -12t59.5 12t46.5 32q13 14 21.5 30.5t13 41t6 60t1.5 89.5z M579 356q0 -51 -1 -92.5t-7 -75.5t-20 -63t-40 -55q-37 -37 -84 -56.5t-104 -19.5t-103.5 19.5t-83.5 56.5q-26 26 -40 55t-20.5 63t-7.5 75.5t-1 92.5t1 92.5t7.5 75.5t20.5 63t40 55q37 37 83.5 56.5t103.5 19.5t104 -19.5t84 -56.5q26 -26 40 -55t20 -63t7 -75.5t1 -92.5 zM375 781h-77l-111 162h113z"/>
<glyph glyph-name="Oacute" horiz-adv-x="646" unicode="Ó" d="M471 356q0 54 -1.5 89.5t-6 60t-13 41t-21.5 30.5q-19 20 -46.5 32t-59.5 12t-59.5 -12t-46.5 -32q-13 -14 -21.5 -30.5t-13 -41t-6 -60t-1.5 -89.5t1.5 -89.5t6 -60t13 -41t21.5 -30.5q19 -20 46.5 -32t59.5 -12t59.5 12t46.5 32q13 14 21.5 30.5t13 41t6 60t1.5 89.5z M579 356q0 -51 -1 -92.5t-7 -75.5t-20 -63t-40 -55q-37 -37 -84 -56.5t-104 -19.5t-103.5 19.5t-83.5 56.5q-26 26 -40 55t-20.5 63t-7.5 75.5t-1 92.5t1 92.5t7.5 75.5t20.5 63t40 55q37 37 83.5 56.5t103.5 19.5t104 -19.5t84 -56.5q26 -26 40 -55t20 -63t7 -75.5t1 -92.5 zM459 943l-111 -162h-77l75 162h113z"/>
<glyph glyph-name="Ocircumflex" horiz-adv-x="646" unicode="Ô" d="M471 356q0 54 -1.5 89.5t-6 60t-13 41t-21.5 30.5q-19 20 -46.5 32t-59.5 12t-59.5 -12t-46.5 -32q-13 -14 -21.5 -30.5t-13 -41t-6 -60t-1.5 -89.5t1.5 -89.5t6 -60t13 -41t21.5 -30.5q19 -20 46.5 -32t59.5 -12t59.5 12t46.5 32q13 14 21.5 30.5t13 41t6 60t1.5 89.5z M579 356q0 -51 -1 -92.5t-7 -75.5t-20 -63t-40 -55q-37 -37 -84 -56.5t-104 -19.5t-103.5 19.5t-83.5 56.5q-26 26 -40 55t-20.5 63t-7.5 75.5t-1 92.5t1 92.5t7.5 75.5t20.5 63t40 55q37 37 83.5 56.5t103.5 19.5t104 -19.5t84 -56.5q26 -26 40 -55t20 -63t7 -75.5t1 -92.5 zM495 781h-85l-87 97l-87 -97h-85l129 161h86z"/>
<glyph glyph-name="Otilde" horiz-adv-x="646" unicode="Õ" d="M471 356q0 54 -1.5 89.5t-6 60t-13 41t-21.5 30.5q-19 20 -46.5 32t-59.5 12t-59.5 -12t-46.5 -32q-13 -14 -21.5 -30.5t-13 -41t-6 -60t-1.5 -89.5t1.5 -89.5t6 -60t13 -41t21.5 -30.5q19 -20 46.5 -32t59.5 -12t59.5 12t46.5 32q13 14 21.5 30.5t13 41t6 60t1.5 89.5z M579 356q0 -51 -1 -92.5t-7 -75.5t-20 -63t-40 -55q-37 -37 -84 -56.5t-104 -19.5t-103.5 19.5t-83.5 56.5q-26 26 -40 55t-20.5 63t-7.5 75.5t-1 92.5t1 92.5t7.5 75.5t20.5 63t40 55q37 37 83.5 56.5t103.5 19.5t104 -19.5t84 -56.5q26 -26 40 -55t20 -63t7 -75.5t1 -92.5 zM492 849q-34 -34 -57.5 -44.5t-46.5 -10.5q-22 0 -38.5 6t-36.5 17q-14 8 -27.5 13.5t-28.5 5.5q-13 0 -25 -4.5t-33 -25.5l-48 47q34 34 57 44.5t47 10.5q22 0 38.5 -6t36.5 -18q15 -9 27.5 -14t27.5 -5q12 0 25.5 5.5t33.5 25.5z"/>
<glyph glyph-name="Odieresis" horiz-adv-x="646" unicode="Ö" d="M471 356q0 54 -1.5 89.5t-6 60t-13 41t-21.5 30.5q-19 20 -46.5 32t-59.5 12t-59.5 -12t-46.5 -32q-13 -14 -21.5 -30.5t-13 -41t-6 -60t-1.5 -89.5t1.5 -89.5t6 -60t13 -41t21.5 -30.5q19 -20 46.5 -32t59.5 -12t59.5 12t46.5 32q13 14 21.5 30.5t13 41t6 60t1.5 89.5z M579 356q0 -51 -1 -92.5t-7 -75.5t-20 -63t-40 -55q-37 -37 -84 -56.5t-104 -19.5t-103.5 19.5t-83.5 56.5q-26 26 -40 55t-20.5 63t-7.5 75.5t-1 92.5t1 92.5t7.5 75.5t20.5 63t40 55q37 37 83.5 56.5t103.5 19.5t104 -19.5t84 -56.5q26 -26 40 -55t20 -63t7 -75.5t1 -92.5 zM270 839q0 -23 -17 -40t-40 -17t-39.5 17t-16.5 40t16.5 39.5t39.5 16.5t40 -16.5t17 -39.5zM489 839q0 -23 -16.5 -40t-39.5 -17t-40 17t-17 40t17 39.5t40 16.5t39.5 -16.5t16.5 -39.5z"/>
<glyph glyph-name="multiply" horiz-adv-x="533" unicode="×" d="M476 132l-64 -63l-146 145l-145 -145l-64 63l146 146l-146 146l64 64l145 -146l146 146l64 -64l-146 -146z"/>
<glyph glyph-name="Oslash" horiz-adv-x="652" unicode="Ø" d="M471 356q-1 40 -1 70t-2 52t-7 38q-4 16 -10 30l-207 -433q35 -22 79 -22q31 0 59 12t47 32q13 15 21 31t14 40q4 24 6 60t1 90zM403 599q-36 22 -80 22q-32 0 -59 -12t-46 -32q-14 -15 -22 -31t-12 -40t-6 -60t-2 -90q0 -40 1 -70t3 -52t6 -39q4 -16 10 -29zM579 356 q0 -50 -1 -92t-7 -76t-20 -63t-40 -55q-37 -36 -84 -56t-104 -20q-33 0 -63 7t-56 20l-31 -65h-82l51 108l-6 6q-26 26 -40 55t-20 63t-8 76q-1 42 -1 92t1 92q2 42 8 76t20 63t40 55q38 36 84 56t103 20q33 0 63 -7t57 -20l30 65h83l-52 -108q2 -2 4 -3t3 -3q26 -26 40 -55 t20 -63t7 -76t1 -92z"/>
<glyph glyph-name="Ugrave" horiz-adv-x="675" unicode="Ù" d="M593 240q0 -55 -19.5 -100.5t-54 -77.5t-81.5 -50t-101 -18t-101 18t-81 50t-53.5 77.5t-19.5 100.5v472h108v-467q0 -72 40 -113t107 -41t107.5 41t40.5 113v467h108v-472zM390 781h-77l-111 162h113z"/>
<glyph glyph-name="Uacute" horiz-adv-x="675" unicode="Ú" d="M593 240q0 -55 -19.5 -100.5t-54 -77.5t-81.5 -50t-101 -18t-101 18t-81 50t-53.5 77.5t-19.5 100.5v472h108v-467q0 -72 40 -113t107 -41t107.5 41t40.5 113v467h108v-472zM474 943l-111 -162h-77l75 162h113z"/>
<glyph glyph-name="Ucircumflex" horiz-adv-x="675" unicode="Û" d="M593 240q0 -55 -19.5 -100.5t-54 -77.5t-81.5 -50t-101 -18t-101 18t-81 50t-53.5 77.5t-19.5 100.5v472h108v-467q0 -72 40 -113t107 -41t107.5 41t40.5 113v467h108v-472zM510 781h-85l-87 97l-87 -97h-85l129 161h86z"/>
<glyph glyph-name="Udieresis" horiz-adv-x="675" unicode="Ü" d="M593 240q0 -55 -19.5 -100.5t-54 -77.5t-81.5 -50t-101 -18t-101 18t-81 50t-53.5 77.5t-19.5 100.5v472h108v-467q0 -72 40 -113t107 -41t107.5 41t40.5 113v467h108v-472zM285 839q0 -23 -17 -40t-40 -17t-39.5 17t-16.5 40t16.5 39.5t39.5 16.5t40 -16.5t17 -39.5z M504 839q0 -23 -16.5 -40t-39.5 -17t-40 17t-17 40t17 39.5t40 16.5t39.5 -16.5t16.5 -39.5z"/>
<glyph glyph-name="Yacute" horiz-adv-x="544" unicode="Ý" d="M539 712l-213 -419v-293h-108v293l-213 419h118l149 -313l149 313h118zM407 943l-111 -162h-77l75 162h113z"/>
<glyph glyph-name="Thorn" horiz-adv-x="637" unicode="Þ" d="M482 359q0 57 -34 88t-92 31h-155v-237h155q58 1 92 31t34 87zM591 359q0 -47 -16 -86t-46 -68t-72 -45t-94 -16h-162v-144h-108v712h108v-137h162q52 -1 94 -17t72 -44t46 -69q16 -40 16 -86z"/>
<glyph glyph-name="germandbls" horiz-adv-x="565" unicode="ß" d="M501 152q-1 -36 -11 -65t-30 -48q-21 -19 -48 -29t-66 -10h-53v87h32q19 0 30 4t22 13q21 16 21 57v156q0 36 -18 53q-19 19 -52 19h-35v81h31q32 0 53 19t21 56q0 17 -7 33t-18 27q-25 24 -81 24q-60 -1 -84 -31t-24 -82v-516h-103v522q-1 49 15 86t44 62t68 37t87 12 q43 0 81 -10t65 -31q27 -22 43 -54t16 -76q0 -45 -18 -72t-44 -44q32 -17 48 -42t15 -73v-165z"/>
<glyph glyph-name="agrave" horiz-adv-x="530" unicode="à" d="M352 183v41h-119q-45 0 -68 -19t-23 -54t22.5 -53.5t70.5 -18.5q29 0 52 4.5t43 24.5q22 22 22 75zM454 0h-100v46q-28 -28 -58 -40t-77 -12q-48 0 -80.5 11.5t-55.5 34.5q-40 42 -40 109q0 64 43.5 105t131.5 41h134v36q0 48 -25.5 71.5t-85.5 23.5q-42 0 -66 -11 t-45 -38l-67 63q36 42 77.5 57.5t104.5 15.5q209 0 209 -174v-339zM309 599h-77l-111 162h113z"/>
<glyph glyph-name="aacute" horiz-adv-x="530" unicode="á" d="M352 183v41h-119q-45 0 -68 -19t-23 -54t22.5 -53.5t70.5 -18.5q29 0 52 4.5t43 24.5q22 22 22 75zM454 0h-100v46q-28 -28 -58 -40t-77 -12q-48 0 -80.5 11.5t-55.5 34.5q-40 42 -40 109q0 64 43.5 105t131.5 41h134v36q0 48 -25.5 71.5t-85.5 23.5q-42 0 -66 -11 t-45 -38l-67 63q36 42 77.5 57.5t104.5 15.5q209 0 209 -174v-339zM393 761l-111 -162h-77l75 162h113z"/>
<glyph glyph-name="acircumflex" horiz-adv-x="530" unicode="â" d="M352 183v41h-119q-45 0 -68 -19t-23 -54t22.5 -53.5t70.5 -18.5q29 0 52 4.5t43 24.5q22 22 22 75zM454 0h-100v46q-28 -28 -58 -40t-77 -12q-48 0 -80.5 11.5t-55.5 34.5q-40 42 -40 109q0 64 43.5 105t131.5 41h134v36q0 48 -25.5 71.5t-85.5 23.5q-42 0 -66 -11 t-45 -38l-67 63q36 42 77.5 57.5t104.5 15.5q209 0 209 -174v-339zM429 599h-85l-87 97l-87 -97h-85l129 161h86z"/>
<glyph glyph-name="atilde" horiz-adv-x="530" unicode="ã" d="M352 183v41h-119q-45 0 -68 -19t-23 -54t22.5 -53.5t70.5 -18.5q29 0 52 4.5t43 24.5q22 22 22 75zM454 0h-100v46q-28 -28 -58 -40t-77 -12q-48 0 -80.5 11.5t-55.5 34.5q-40 42 -40 109q0 64 43.5 105t131.5 41h134v36q0 48 -25.5 71.5t-85.5 23.5q-42 0 -66 -11 t-45 -38l-67 63q36 42 77.5 57.5t104.5 15.5q209 0 209 -174v-339zM426 667q-34 -34 -57.5 -44.5t-46.5 -10.5q-22 0 -38.5 6t-36.5 17q-14 8 -27.5 13.5t-28.5 5.5q-13 0 -25 -4.5t-33 -25.5l-48 47q34 34 57 44.5t47 10.5q22 0 38.5 -6t36.5 -18q15 -9 27.5 -14t27.5 -5 q12 0 25.5 5.5t33.5 25.5z"/>
<glyph glyph-name="adieresis" horiz-adv-x="530" unicode="ä" d="M352 183v41h-119q-45 0 -68 -19t-23 -54t22.5 -53.5t70.5 -18.5q29 0 52 4.5t43 24.5q22 22 22 75zM454 0h-100v46q-28 -28 -58 -40t-77 -12q-48 0 -80.5 11.5t-55.5 34.5q-40 42 -40 109q0 64 43.5 105t131.5 41h134v36q0 48 -25.5 71.5t-85.5 23.5q-42 0 -66 -11 t-45 -38l-67 63q36 42 77.5 57.5t104.5 15.5q209 0 209 -174v-339zM204 657q0 -23 -17 -40t-40 -17t-39.5 17t-16.5 40t16.5 39.5t39.5 16.5t40 -16.5t17 -39.5zM423 657q0 -23 -16.5 -40t-39.5 -17t-40 17t-17 40t17 39.5t40 16.5t39.5 -16.5t16.5 -39.5z"/>
<glyph glyph-name="aring" horiz-adv-x="530" unicode="å" d="M352 183v41h-119q-45 0 -68 -19t-23 -54t22.5 -53.5t70.5 -18.5q29 0 52 4.5t43 24.5q22 22 22 75zM454 0h-100v46q-28 -28 -58 -40t-77 -12q-48 0 -80.5 11.5t-55.5 34.5q-40 42 -40 109q0 64 43.5 105t131.5 41h134v36q0 48 -25.5 71.5t-85.5 23.5q-42 0 -66 -11 t-45 -38l-67 63q36 42 77.5 57.5t104.5 15.5q209 0 209 -174v-339zM321 701q0 26 -19 44.5t-45 18.5t-45 -18.5t-19 -44.5t19 -44.5t45 -18.5t45 18.5t19 44.5zM382 701q0 -26 -10 -48.5t-27 -39.5t-39.5 -27t-48.5 -10t-48.5 10t-39.5 27t-27 39.5t-10 48.5t10 48.5 t27 39.5t39.5 27t48.5 10t48.5 -10t39.5 -27t27 -39.5t10 -48.5z"/>
<glyph glyph-name="ae" horiz-adv-x="837" unicode="æ" d="M352 183v41h-119q-45 0 -68 -19t-23 -54t22 -53t71 -19q29 1 52 5t43 24q22 22 22 75zM681 295q-1 23 -3 37t-10 32q-12 28 -38 46t-63 18q-36 0 -62 -18t-38 -46q-9 -18 -11 -32t-3 -37h228zM782 224h-329q0 -66 33 -104t96 -38q44 0 70 12t53 40l65 -61 q-20 -21 -40 -35t-42 -24t-48 -15t-60 -5q-56 0 -102 18t-77 61q-39 -47 -81 -63t-101 -16q-49 0 -81 12t-55 34q-20 20 -30 48t-10 61q-1 64 43 105t132 41h134v36q0 47 -26 71t-85 24q-42 0 -66 -11t-45 -38l-67 63q35 42 77 58t105 15q125 0 172 -67q55 67 150 67 q51 0 91 -18t68 -50t42 -77t14 -99v-45z"/>
<glyph glyph-name="ccedilla" horiz-adv-x="488" unicode="ç" d="M319 -64l-51 -147h-101l70 147h82zM448 66q-36 -38 -75 -55t-92 -17q-43 0 -83 14t-72 45t-52 81t-19 120q-1 70 19 120t52 80t72 45q40 14 83 14q53 -1 92 -17t75 -54l-70 -68q-24 26 -46 37t-51 11q-60 0 -94 -45q-17 -21 -23 -49t-7 -74q1 -45 7 -74t23 -50 q34 -45 94 -45q29 0 51 11t46 37z"/>
<glyph glyph-name="egrave" horiz-adv-x="539" unicode="è" d="M384 295q-1 23 -3.5 37.5t-10.5 31.5q-12 29 -38 46.5t-62 17.5t-62.5 -17.5t-38.5 -46.5q-8 -17 -10 -31.5t-3 -37.5h228zM485 224h-329q0 -66 33 -104t96 -38q43 0 69.5 12.5t53.5 39.5l65 -61q-20 -20 -39.5 -34.5t-42 -24.5t-49 -15t-59.5 -5q-48 0 -89.5 13.5 t-72 44t-48.5 80.5t-18 122q0 124 58.5 191.5t156.5 67.5q51 0 91 -18t67.5 -50t42 -77t14.5 -99v-45zM325 599h-77l-111 162h113z"/>
<glyph glyph-name="eacute" horiz-adv-x="539" unicode="é" d="M384 295q-1 23 -3.5 37.5t-10.5 31.5q-12 29 -38 46.5t-62 17.5t-62.5 -17.5t-38.5 -46.5q-8 -17 -10 -31.5t-3 -37.5h228zM485 224h-329q0 -66 33 -104t96 -38q43 0 69.5 12.5t53.5 39.5l65 -61q-20 -20 -39.5 -34.5t-42 -24.5t-49 -15t-59.5 -5q-48 0 -89.5 13.5 t-72 44t-48.5 80.5t-18 122q0 124 58.5 191.5t156.5 67.5q51 0 91 -18t67.5 -50t42 -77t14.5 -99v-45zM409 761l-111 -162h-77l75 162h113z"/>
<glyph glyph-name="ecircumflex" horiz-adv-x="539" unicode="ê" d="M384 295q-1 23 -3.5 37.5t-10.5 31.5q-12 29 -38 46.5t-62 17.5t-62.5 -17.5t-38.5 -46.5q-8 -17 -10 -31.5t-3 -37.5h228zM485 224h-329q0 -66 33 -104t96 -38q43 0 69.5 12.5t53.5 39.5l65 -61q-20 -20 -39.5 -34.5t-42 -24.5t-49 -15t-59.5 -5q-48 0 -89.5 13.5 t-72 44t-48.5 80.5t-18 122q0 124 58.5 191.5t156.5 67.5q51 0 91 -18t67.5 -50t42 -77t14.5 -99v-45zM445 599h-85l-87 97l-87 -97h-85l129 161h86z"/>
<glyph glyph-name="edieresis" horiz-adv-x="539" unicode="ë" d="M384 295q-1 23 -3.5 37.5t-10.5 31.5q-12 29 -38 46.5t-62 17.5t-62.5 -17.5t-38.5 -46.5q-8 -17 -10 -31.5t-3 -37.5h228zM485 224h-329q0 -66 33 -104t96 -38q43 0 69.5 12.5t53.5 39.5l65 -61q-20 -20 -39.5 -34.5t-42 -24.5t-49 -15t-59.5 -5q-48 0 -89.5 13.5 t-72 44t-48.5 80.5t-18 122q0 124 58.5 191.5t156.5 67.5q51 0 91 -18t67.5 -50t42 -77t14.5 -99v-45zM220 657q0 -23 -17 -40t-40 -17t-39.5 17t-16.5 40t16.5 39.5t39.5 16.5t40 -16.5t17 -39.5zM439 657q0 -23 -16.5 -40t-39.5 -17t-40 17t-17 40t17 39.5t40 16.5 t39.5 -16.5t16.5 -39.5z"/>
<glyph glyph-name="igrave" horiz-adv-x="264" unicode="ì" d="M183 0h-102v507h102v-507zM270 599h-77l-111 162h113z"/>
<glyph glyph-name="iacute" horiz-adv-x="264" unicode="í" d="M183 0h-102v507h102v-507zM270 761l-111 -162h-77l75 162h113z"/>
<glyph glyph-name="icircumflex" horiz-adv-x="264" unicode="î" d="M183 0h-102v507h102v-507zM425 599h-85l-87 97l-87 -97h-85l129 161h86z"/>
<glyph glyph-name="idieresis" horiz-adv-x="264" unicode="ï" d="M183 0h-102v507h102v-507zM195 657q0 -23 -17 -40t-40 -17t-39.5 17t-16.5 40t16.5 39.5t39.5 16.5t40 -16.5t17 -39.5zM414 657q0 -23 -16.5 -40t-39.5 -17t-40 17t-17 40t17 39.5t40 16.5t39.5 -16.5t16.5 -39.5z"/>
<glyph glyph-name="eth" d="M374 249q0 40 -5 76t-28 59q-15 14 -33 22t-40 7q-43 0 -72 -29q-23 -23 -28 -59t-5 -76t5 -76t28 -59q29 -29 72 -29q22 -1 40 7t33 22q23 23 28 59t5 76zM476 249q0 -63 -12 -111t-47 -85q-24 -27 -61 -43t-88 -16q-52 0 -88 16t-60 43q-36 37 -48 85t-11 111 q-1 63 11 111t48 85q39 40 104 51q18 3 38 3t38 -5l-45 81h-116v72h78l-39 70h108l39 -70h87v-72h-50l51 -94q19 -35 31 -63t20 -53t10 -53t2 -63z" unicode="ð"/>
<glyph glyph-name="ntilde" horiz-adv-x="568" unicode="ñ" d="M492 0h-102v309q0 59 -29.5 86t-72.5 27t-74 -27.5t-31 -85.5v-309h-102v507h100v-51q26 29 61.5 43t73.5 14q39 0 70.5 -12t54.5 -34q29 -29 40 -64.5t11 -78.5v-324zM456 667q-34 -34 -57.5 -44.5t-46.5 -10.5q-22 0 -38.5 6t-36.5 17q-14 8 -27.5 13.5t-28.5 5.5 q-13 0 -25 -4.5t-33 -25.5l-48 47q34 34 57 44.5t47 10.5q22 0 38.5 -6t36.5 -18q15 -9 27.5 -14t27.5 -5q12 0 25.5 5.5t33.5 25.5z"/>
<glyph glyph-name="ograve" d="M378 254q0 42 -6 79t-29 60q-29 29 -75 29q-45 0 -74 -29q-23 -23 -29 -60t-6 -79t6 -79t29 -60q30 -30 74 -30q45 0 75 30q23 23 29 60t6 79zM480 254q0 -65 -12 -113.5t-48 -86.5q-25 -26 -62.5 -43t-89.5 -17t-89 17t-62 43q-36 38 -48 86.5t-12 113.5q0 64 12 112.5 t48 86.5q25 26 62 43t89 17t89.5 -17t62.5 -43q36 -38 48 -86.5t12 -112.5zM313 599h-77l-111 162h113z" unicode="ò"/>
<glyph glyph-name="oacute" d="M378 254q0 42 -6 79t-29 60q-29 29 -75 29q-45 0 -74 -29q-23 -23 -29 -60t-6 -79t6 -79t29 -60q30 -30 74 -30q45 0 75 30q23 23 29 60t6 79zM480 254q0 -65 -12 -113.5t-48 -86.5q-25 -26 -62.5 -43t-89.5 -17t-89 17t-62 43q-36 38 -48 86.5t-12 113.5q0 64 12 112.5 t48 86.5q25 26 62 43t89 17t89.5 -17t62.5 -43q36 -38 48 -86.5t12 -112.5zM404 761l-111 -162h-77l75 162h113z" unicode="ó"/>
<glyph glyph-name="ocircumflex" d="M378 254q0 42 -6 79t-29 60q-29 29 -75 29q-45 0 -74 -29q-23 -23 -29 -60t-6 -79t6 -79t29 -60q30 -30 74 -30q45 0 75 30q23 23 29 60t6 79zM480 254q0 -65 -12 -113.5t-48 -86.5q-25 -26 -62.5 -43t-89.5 -17t-89 17t-62 43q-36 38 -48 86.5t-12 113.5q0 64 12 112.5 t48 86.5q25 26 62 43t89 17t89.5 -17t62.5 -43q36 -38 48 -86.5t12 -112.5zM440 599h-85l-87 97l-87 -97h-85l129 161h86z" unicode="ô"/>
<glyph glyph-name="otilde" d="M378 254q0 42 -6 79t-29 60q-29 29 -75 29q-45 0 -74 -29q-23 -23 -29 -60t-6 -79t6 -79t29 -60q30 -30 74 -30q45 0 75 30q23 23 29 60t6 79zM480 254q0 -65 -12 -113.5t-48 -86.5q-25 -26 -62.5 -43t-89.5 -17t-89 17t-62 43q-36 38 -48 86.5t-12 113.5q0 64 12 112.5 t48 86.5q25 26 62 43t89 17t89.5 -17t62.5 -43q36 -38 48 -86.5t12 -112.5zM437 667q-34 -34 -57.5 -44.5t-46.5 -10.5q-22 0 -38.5 6t-36.5 17q-14 8 -27.5 13.5t-28.5 5.5q-13 0 -25 -4.5t-33 -25.5l-48 47q34 34 57 44.5t47 10.5q22 0 38.5 -6t36.5 -18q15 -9 27.5 -14 t27.5 -5q12 0 25.5 5.5t33.5 25.5z" unicode="õ"/>
<glyph glyph-name="odieresis" d="M378 254q0 42 -6 79t-29 60q-29 29 -75 29q-45 0 -74 -29q-23 -23 -29 -60t-6 -79t6 -79t29 -60q30 -30 74 -30q45 0 75 30q23 23 29 60t6 79zM480 254q0 -65 -12 -113.5t-48 -86.5q-25 -26 -62.5 -43t-89.5 -17t-89 17t-62 43q-36 38 -48 86.5t-12 113.5q0 64 12 112.5 t48 86.5q25 26 62 43t89 17t89.5 -17t62.5 -43q36 -38 48 -86.5t12 -112.5zM215 657q0 -23 -17 -40t-40 -17t-39.5 17t-16.5 40t16.5 39.5t39.5 16.5t40 -16.5t17 -39.5zM434 657q0 -23 -16.5 -40t-39.5 -17t-40 17t-17 40t17 39.5t40 16.5t39.5 -16.5t16.5 -39.5z" unicode="ö"/>
<glyph glyph-name="divide" horiz-adv-x="533" unicode="÷" d="M339 84q1 -30 -21 -52t-52 -21q-30 -1 -51 21t-21 52t21 52t51 21q30 1 52 -21t21 -52zM484 230h-436v95h436v-95zM339 471q1 -30 -21 -51t-52 -21t-51 21t-21 51q0 29 21 51t51 22t52 -22t21 -51z"/>
<glyph glyph-name="oslash" d="M378 254q0 30 -2 58t-13 51l-154 -260q26 -18 59 -18q45 0 75 30q23 23 29 60t6 79zM328 405q-26 17 -60 17q-45 0 -74 -29q-23 -23 -29 -60t-6 -79q1 -30 3 -58t12 -51zM480 254q0 -66 -12 -114t-48 -86q-24 -26 -62 -43t-90 -17q-32 0 -58 7t-46 18l-37 -63h-69l58 99 q-36 39 -48 87t-11 112q0 64 12 112t48 87q25 26 62 43t89 17q32 0 58 -7t47 -18l37 63h69l-59 -98q36 -39 48 -87t12 -112z" unicode="ø"/>
<glyph glyph-name="ugrave" horiz-adv-x="568" unicode="ù" d="M487 0h-100v51q-26 -29 -61.5 -43t-73.5 -14q-39 0 -70.5 12t-54.5 34q-29 29 -40 64.5t-11 78.5v324h102v-309q0 -59 29.5 -86t72.5 -27q21 0 40.5 6.5t33.5 20.5t22.5 35.5t8.5 50.5v309h102v-507zM333 599h-77l-111 162h113z"/>
<glyph glyph-name="uacute" horiz-adv-x="568" unicode="ú" d="M487 0h-100v51q-26 -29 -61.5 -43t-73.5 -14q-39 0 -70.5 12t-54.5 34q-29 29 -40 64.5t-11 78.5v324h102v-309q0 -59 29.5 -86t72.5 -27q21 0 40.5 6.5t33.5 20.5t22.5 35.5t8.5 50.5v309h102v-507zM417 761l-111 -162h-77l75 162h113z"/>
<glyph glyph-name="ucircumflex" horiz-adv-x="568" unicode="û" d="M487 0h-100v51q-26 -29 -61.5 -43t-73.5 -14q-39 0 -70.5 12t-54.5 34q-29 29 -40 64.5t-11 78.5v324h102v-309q0 -59 29.5 -86t72.5 -27q21 0 40.5 6.5t33.5 20.5t22.5 35.5t8.5 50.5v309h102v-507zM453 599h-85l-87 97l-87 -97h-85l129 161h86z"/>
<glyph glyph-name="udieresis" horiz-adv-x="568" unicode="ü" d="M487 0h-100v51q-26 -29 -61.5 -43t-73.5 -14q-39 0 -70.5 12t-54.5 34q-29 29 -40 64.5t-11 78.5v324h102v-309q0 -59 29.5 -86t72.5 -27q21 0 40.5 6.5t33.5 20.5t22.5 35.5t8.5 50.5v309h102v-507zM228 657q0 -23 -17 -40t-40 -17t-39.5 17t-16.5 40t16.5 39.5 t39.5 16.5t40 -16.5t17 -39.5zM447 657q0 -23 -16.5 -40t-39.5 -17t-40 17t-17 40t17 39.5t40 16.5t39.5 -16.5t16.5 -39.5z"/>
<glyph glyph-name="yacute" horiz-adv-x="468" unicode="ý" d="M464 507l-224 -608q-14 -40 -37 -63q-21 -21 -48 -29t-56 -8h-41v92h26q32 0 47 11.5t26 42.5l28 79l-177 483h108l121 -357l118 357h109zM371 761l-111 -162h-77l75 162h113z"/>
<glyph glyph-name="thorn" horiz-adv-x="554" unicode="þ" d="M394 254q0 34 -4 64t-14 54q-11 22 -32 36t-55 14q-35 0 -55 -14t-32 -36q-12 -24 -16 -54t-3 -64q-1 -34 3 -64t16 -54t32 -38t55 -13q34 -1 55 13t32 38q10 24 14 54t4 64zM496 254q0 -29 -2 -59q-2 -31 -7 -59t-17 -53t-31 -44q-21 -21 -53 -33t-70 -12q-41 0 -73 12 t-60 46v-257h-102v917h102v-256q28 33 60 45t73 12q38 0 70 -12t53 -33q19 -19 31 -44t17 -53t7 -58t2 -59z"/>
<glyph glyph-name="dotlessi" horiz-adv-x="264" unicode="ı" d="M183 0h-102v507h102v-507z"/>
<glyph glyph-name="OE" horiz-adv-x="977" unicode="Œ" d="M471 356q1 54 -1 90t-6 60t-14 40q-8 16 -21 31q-19 20 -47 32t-59 12q-32 0 -59 -12t-46 -32q-14 -15 -22 -31t-12 -40t-6 -60t-2 -90t2 -90t6 -60t12 -40t22 -31q19 -20 46 -32t59 -12q31 0 59 12t47 32q13 15 21 31t14 40q4 24 6 60t1 90zM922 0h-451v58 q-29 -34 -69 -49t-81 -15q-57 0 -103 18t-82 56q-26 26 -40 55t-20 63t-8 77q-1 42 -1 93t1 93q2 43 8 77t20 63t40 55q36 38 82 56t103 18q43 0 82 -15t68 -49v58h450v-96h-342v-210h291v-94h-291v-216h343v-96z"/>
<glyph glyph-name="oe" horiz-adv-x="862" unicode="œ" d="M378 254q0 42 -6 79t-29 60q-29 29 -75 29q-45 0 -74 -29q-23 -23 -29 -60t-6 -79t6 -79t29 -60q30 -30 74 -30q45 0 75 30q23 23 29 60t6 79zM706 295q-1 23 -3 37t-10 32q-13 28 -39 46t-62 18t-62 -18t-38 -46q-8 -18 -10 -32t-4 -37h228zM807 224h-329q0 -66 33 -104 t96 -38q43 0 69 12t54 40l65 -61q-20 -21 -39 -35q-20 -14 -42 -24t-48 -15t-60 -5q-56 0 -101 19t-74 61q-24 -36 -66 -58t-97 -22q-52 0 -89 17t-62 43q-36 38 -48 86t-12 114q0 64 12 112t48 87q25 26 62 43t89 17q56 1 98 -21t66 -60q53 81 160 81q51 0 91 -18 q39 -18 67 -50t42 -77t15 -99v-45z"/>
<glyph glyph-name="Scaron" horiz-adv-x="590" unicode="Š" d="M538 203q0 -49 -19 -88t-53 -66t-81 -41t-103 -14q-81 0 -141 21t-111 73l72 71q39 -39 83 -53.5t99 -14.5q70 0 108.5 28.5t38.5 80.5q0 49 -28 74q-14 13 -30 19t-48 11l-84 12q-87 12 -135 57q-52 49 -52 136q0 46 16.5 84.5t47 66.5t74.5 43t100 15q71 0 123 -19 t98 -62l-69 -68q-33 32 -71.5 43.5t-83.5 11.5q-63 0 -96.5 -31.5t-33.5 -79.5q0 -20 6.5 -36.5t20.5 -29.5q28 -25 80 -33l81 -12q50 -8 80 -20.5t53 -32.5q29 -26 43.5 -63t14.5 -83zM463 942l-129 -161h-86l-129 161h85l87 -97l87 97h85z"/>
<glyph glyph-name="scaron" horiz-adv-x="499" unicode="š" d="M456 155q0 -40 -16 -70t-44 -50.5t-67 -30.5t-84 -10q-62 0 -115 14.5t-98 58.5l67 67q31 -32 69.5 -42.5t76.5 -10.5q47 0 79 17t32 53q0 26 -15.5 41.5t-52.5 18.5l-81 7q-72 6 -111 39.5t-39 100.5q0 37 15 66t41 48.5t60.5 30t74.5 10.5q57 0 105 -13t83 -44l-64 -65 q-24 20 -56.5 28.5t-68.5 8.5q-46 0 -69 -18t-23 -47q0 -23 14.5 -38.5t55.5 -19.5l80 -7q72 -6 111.5 -40.5t39.5 -102.5zM421 760l-129 -161h-86l-129 161h85l87 -97l87 97h85z"/>
<glyph glyph-name="Ydieresis" horiz-adv-x="544" unicode="Ÿ" d="M539 712l-213 -419v-293h-108v293l-213 419h118l149 -313l149 313h118zM218 839q0 -23 -17 -40t-40 -17t-39.5 17t-16.5 40t16.5 39.5t39.5 16.5t40 -16.5t17 -39.5zM437 839q0 -23 -16.5 -40t-39.5 -17t-40 17t-17 40t17 39.5t40 16.5t39.5 -16.5t16.5 -39.5z"/>
<glyph glyph-name="circumflex" horiz-adv-x="500" unicode="ˆ" d="M422 599h-85l-87 97l-87 -97h-85l129 161h86z"/>
<glyph glyph-name="caron" horiz-adv-x="500" unicode="ˇ" d="M422 760l-129 -161h-86l-129 161h85l87 -97l87 97h85z"/>
<glyph glyph-name="ring" horiz-adv-x="500" unicode="˚" d="M314 701q0 26 -19 44.5t-45 18.5t-45 -18.5t-19 -44.5t19 -44.5t45 -18.5t45 18.5t19 44.5zM375 701q0 -26 -10 -48.5t-27 -39.5t-39.5 -27t-48.5 -10t-48.5 10t-39.5 27t-27 39.5t-10 48.5t10 48.5t27 39.5t39.5 27t48.5 10t48.5 -10t39.5 -27t27 -39.5t10 -48.5z"/>
<glyph glyph-name="tilde" horiz-adv-x="500" unicode="˜" d="M419 667q-34 -34 -57.5 -44.5t-46.5 -10.5q-22 0 -38.5 6t-36.5 17q-14 8 -27.5 13.5t-28.5 5.5q-13 0 -25 -4.5t-33 -25.5l-48 47q34 34 57 44.5t47 10.5q22 0 38.5 -6t36.5 -18q15 -9 27.5 -14t27.5 -5q12 0 25.5 5.5t33.5 25.5z"/>
<glyph glyph-name="Delta" horiz-adv-x="619" unicode="Δ" d="M472 92l-161 459l-162 -459h323zM613 0h-608l261 712h87z"/>
<glyph glyph-name="pi" horiz-adv-x="591" unicode="π" d="M503 0h-100v412h-214v-412h-101v507h415v-507z"/>
<glyph glyph-name="endash" horiz-adv-x="533" unicode="–" d="M482 230h-431v95h431v-95z"/>
<glyph glyph-name="emdash" horiz-adv-x="972" unicode="—" d="M905 231h-838v97h838v-97z"/>
<glyph glyph-name="quoteleft" horiz-adv-x="268" unicode="‘" d="M190 608h-112v104l112 93v-197z"/>
<glyph glyph-name="quotesinglbase" horiz-adv-x="267" unicode="‚" d="M190 0l-112 -92v197h112v-105z"/>
<glyph glyph-name="quotedblleft" horiz-adv-x="459" unicode="“" d="M190 608h-112v104l112 93v-197zM381 608h-112v104l112 93v-197z"/>
<glyph glyph-name="quotedblright" horiz-adv-x="459" unicode="”" d="M190 607l-112 -91v196h112v-105zM381 607l-112 -91v196h112v-105z"/>
<glyph glyph-name="dagger" horiz-adv-x="591" unicode="†" d="M526 427h-180v-427h-102v427h-179v91h179v194h102v-194h180v-91z"/>
<glyph glyph-name="daggerdbl" horiz-adv-x="591" unicode="‡" d="M526 -11h-180v-194h-102v194h-179v92h179v346h-179v91h179v194h102v-194h180v-91h-180v-346h180v-92z"/>
<glyph glyph-name="ellipsis" horiz-adv-x="803" unicode="…" d="M215 70q1 -30 -21 -52t-52 -21q-30 -1 -52 21t-21 52q-1 30 21 51t52 21t52 -21t21 -51zM474 70q0 -30 -22 -52t-51 -21q-30 -1 -51 21t-21 52t21 51t51 21q29 0 51 -21t22 -51zM734 70q0 -30 -22 -52t-51 -21q-29 -1 -51 21t-22 52t22 51t51 21t51 -21t22 -51z"/>
<glyph glyph-name="perthousand" horiz-adv-x="1196" unicode="‰" d="M1061 133v95q1 34 -15 53t-48 19t-48 -18t-15 -54v-95q-1 -35 15 -53t48 -19q32 0 48 19t15 53zM1138 130q0 -32 -11 -58t-30 -42q-19 -18 -45 -28t-54 -9q-28 -1 -54 9t-45 28t-30 42q-11 26 -11 58v101q0 31 11 57t30 44t45 26q26 10 54 10t54 -10t45 -26 q19 -18 30 -44t11 -57v-101zM261 484v95q1 34 -15 53t-48 19q-32 -1 -48 -19t-15 -53v-95q0 -71 63 -71q32 1 48 19t15 52zM707 133v95q1 34 -15 53t-48 19t-48 -18t-15 -54v-95q-1 -35 15 -53t48 -19q32 0 48 19t15 53zM338 481q0 -31 -11 -57t-30 -44t-45 -26 q-26 -9 -54 -9t-54 9q-26 8 -45 26t-30 44t-11 57v101q0 32 11 58t30 42q19 18 45 28t54 9q28 1 54 -9t45 -28t30 -42q11 -26 11 -58v-101zM629 712l-335 -712h-82l336 712h81zM784 130q0 -32 -11 -58t-30 -42q-19 -18 -45 -28t-54 -9q-28 -1 -54 9t-45 28t-30 42 q-11 26 -11 58v101q0 31 11 57t30 44t45 26q26 10 54 10t54 -10t45 -26q19 -18 30 -44t11 -57v-101z"/>
<glyph glyph-name="guilsinglleft" horiz-adv-x="339" unicode="‹" d="M267 42l-230 230l230 229v-123l-107 -106l107 -107v-123z"/>
<glyph glyph-name="guilsinglright" horiz-adv-x="339" unicode="›" d="M303 272l-231 -230v123l108 107l-108 106v123z"/>
<glyph glyph-name="trademark" horiz-adv-x="883" unicode="™" d="M346 643h-115v-358h-76v358h-114v69h305v-69zM822 285h-77v279l-90 -179h-71l-90 179v-279h-77v427h77l125 -243l126 243h77v-427z"/>
<glyph glyph-name="partialdiff" horiz-adv-x="549" unicode="∂" d="M366 249q0 40 -5 76t-27 59q-14 14 -31 22t-38 7q-41 0 -70 -29q-22 -23 -27 -59t-5 -76t5 -76t27 -59q29 -29 70 -29q21 -1 38 7t31 22q22 23 27 59t5 76zM468 249q0 -63 -11 -111t-46 -85q-24 -27 -60 -43t-86 -16q-51 0 -87 16t-60 43q-35 37 -46 85t-11 111 q0 66 11 114t46 84q22 23 56 40t85 17q29 0 57 -8t50 -34v47q0 21 -6 43t-20 40t-38 28q-22 11 -55 11q-38 -1 -62 -11t-48 -33l-64 64q40 37 80 52t98 15q55 0 95 -17t68 -47t40 -72q14 -42 14 -91v-242z"/>
<glyph glyph-name="product" horiz-adv-x="690" unicode="∏" d="M598 -205h-109v869h-288v-869h-108v965h505v-965z"/>
<glyph glyph-name="summation" horiz-adv-x="552" unicode="∑" d="M508 -205h-460v88l195 406l-193 383v88h455v-97h-329l161 -325v-100l-164 -346h335v-97z"/>
<glyph glyph-name="minus" horiz-adv-x="533" unicode="−" d="M482 230h-431v95h431v-95z"/>
<glyph glyph-name="radical" horiz-adv-x="580" unicode="√" d="M550 615h-91l-202 -615h-84l-168 507h111l99 -313l163 518h172v-97z"/>
<glyph glyph-name="infinity" horiz-adv-x="830" unicode="∞" d="M347 274q-29 34 -53 56t-57 23t-55 -21t-23 -58q1 -36 23 -58t55 -21t57 23t53 56zM671 274q0 36 -23 57t-56 21q-32 0 -56 -22t-53 -56q29 -34 53 -56t56 -23q33 -1 56 21t23 58zM769 276q1 -36 -11 -68t-34 -56t-56 -36q-32 -14 -74 -14q-53 0 -95 25t-84 74 q-43 -49 -85 -75t-94 -25q-42 -1 -74 13t-56 38q-22 24 -34 55q-12 32 -11 69q-1 37 11 69q12 31 34 55t56 38q32 14 74 13q51 1 94 -25t85 -75q41 49 83 75t96 25q42 1 74 -13t56 -38q22 -24 34 -55q12 -32 11 -69z"/>
<glyph glyph-name="approxequal" horiz-adv-x="574" unicode="≈" d="M531 178q-23 -22 -41 -37t-35 -24t-34 -13t-37 -4q-29 0 -55 9t-57 24q-22 11 -40 17t-39 7q-21 0 -39 -8t-47 -36l-64 64q23 22 41 37t35 24t35 13t37 4q29 0 55 -9t56 -24q21 -12 40 -18t40 -6q10 0 20 2t18 6q10 4 22 13t25 23zM531 380q-23 -22 -41 -37t-36 -24 t-34 -13q-17 -4 -37 -3q-29 1 -55 9t-57 23q-21 11 -39 17t-40 7q-21 1 -39 -7t-46 -36l-64 64q23 22 41 37t35 24t34 13t37 3q28 -1 54 -9t57 -23q21 -11 40 -17t40 -7q9 -1 19 1t20 6t20 14q12 8 26 22z"/>
<glyph glyph-name="notequal" horiz-adv-x="571" unicode="≠" d="M520 133h-303l-103 -120l-63 51l61 69h-61v95h138l88 99h-226v95h302l104 120l63 -51l-61 -69h61v-95h-138l-88 -99h226v-95z"/>
<glyph glyph-name="lessequal" horiz-adv-x="1027" unicode="≤" d="M873 535l-526 -527l487 1l-92 -91h-555v554l92 92l-1 -487l527 527z"/>
<glyph glyph-name="greaterequal" horiz-adv-x="1027" unicode="≥" d="M839 -82h-554l-92 91l487 -1l-527 527l69 69l527 -527l-2 487l92 -93v-553z"/>
<glyph glyph-name="lozenge" horiz-adv-x="642" unicode="◊" d="M467 346l-146 207l-146 -207l146 -208zM582 346l-261 -365l-260 365l260 365z"/>
</font>
</defs>
</svg>
